<svg width="63" height="18" viewBox="0 0 63 18" fill="none" xmlns="http://www.w3.org/2000/svg">
<g clip-path="url(#clip0)">
<path d="M18.8779 10.3105C20.1926 10.3105 20.4479 11.0025 20.4479 12.6168C20.4479 14.8975 19.4305 14.8975 18.795 14.8975H17.8681V10.3105H18.8779ZM18.9837 3.13479C19.9106 3.13479 20.2821 3.98791 20.2821 5.17281C20.2821 6.67715 19.8115 7.20988 19.1504 7.20988H17.8681V3.13384H18.9884L18.9837 3.13479ZM13.6594 0.0332031V18H19.4705C23.5077 18 24.3556 15.3601 24.3556 13.1514C24.3556 11.266 24.0326 9.30857 21.9368 8.66115C23.3239 8.0924 24.4137 6.71697 24.4137 4.78416C24.4041 0.527068 21.4681 0.0332031 19.4876 0.0332031H13.6594Z" fill="white"/>
<path d="M30.7523 10.3105C32.0641 10.3105 32.3223 11.0025 32.3223 12.6168C32.3223 14.8965 31.3049 14.8965 30.6695 14.8965H29.7378V10.3105H30.7523ZM30.8581 3.13479C31.786 3.13479 32.1565 3.98791 32.1565 5.17281C32.1565 6.67715 31.6859 7.20988 31.0248 7.20988H29.7378V3.13384H30.8581V3.13479ZM25.53 0.0332031V18H31.3411C35.3802 18 36.2281 15.3601 36.2281 13.1514C36.2281 11.2651 35.9032 9.30857 33.8103 8.66115C35.1935 8.0924 36.2805 6.71792 36.2805 4.78416C36.2805 0.527068 33.3397 0.034151 31.3611 0.034151H25.53V0.0332031Z" fill="white"/>
<path d="M43.8224 0.0332031C43.8224 0.0332031 42.2458 6.12831 41.8886 7.23737C41.5533 6.12641 40.0929 0.0332031 40.0929 0.0332031H36.1719C36.1719 0.0332031 39.7223 11.6926 39.7442 11.7485V18.0048H43.9482V11.7542C43.9711 11.6888 47.512 0.0332031 47.512 0.0332031H43.8224Z" fill="white"/>
<path d="M55.6099 0.0332031C55.6099 0.0332031 54.0352 6.12831 53.6761 7.23737C53.3408 6.12357 51.8775 0.0332031 51.8775 0.0332031H47.9651C47.9651 0.0332031 51.5098 11.6926 51.5317 11.7485V18.0048H55.7357V11.7542C55.7614 11.6926 59.2995 0.0369948 59.2995 0.0369948H55.6099V0.0332031Z" fill="white"/>
<path d="M5.71988 11.0669L6.80779 5.70267L7.89569 11.0669H5.71988ZM9.30272 18H12.8951L9.25128 0.0322266H4.3662L0.721436 18H4.3138L5.09115 14.1723H8.52062L9.30272 18Z" fill="white"/>
<path d="M61.3818 1.2282e-05C61.558 -0.000742283 61.7327 0.0332787 61.8957 0.100108C62.0586 0.166938 62.2067 0.26525 62.3312 0.389361C62.4558 0.513472 62.5544 0.660919 62.6213 0.823178C62.6882 0.985437 62.7222 1.15929 62.7212 1.33468C62.7212 1.59873 62.6425 1.85685 62.495 2.07638C62.3475 2.2959 62.1379 2.46697 61.8927 2.56793C61.6475 2.66889 61.3777 2.69521 61.1175 2.64356C60.8573 2.59191 60.6183 2.46461 60.4308 2.27776C60.2433 2.09091 60.1157 1.85292 60.0641 1.5939C60.0126 1.33487 60.0394 1.06645 60.1412 0.82261C60.243 0.578764 60.4153 0.370449 60.6361 0.224022C60.8569 0.0775952 61.1164 -0.000362793 61.3818 1.2282e-05ZM61.3818 2.4646C61.9886 2.4646 62.4678 1.95557 62.4678 1.3271C62.4753 1.18033 62.4528 1.03357 62.4016 0.895744C62.3504 0.757914 62.2715 0.631896 62.1698 0.525355C62.068 0.418814 61.9456 0.333977 61.8099 0.276005C61.6742 0.218033 61.528 0.188137 61.3804 0.188137C61.2327 0.188137 61.0865 0.218033 60.9508 0.276005C60.8151 0.333977 60.6927 0.418814 60.5909 0.525355C60.4892 0.631896 60.4103 0.757914 60.3591 0.895744C60.3079 1.03357 60.2854 1.18033 60.2929 1.3271C60.2939 1.96031 60.7721 2.4646 61.3818 2.4646ZM60.8921 0.657867H61.4828C61.6257 0.657867 61.9248 0.694836 61.9248 1.04272C61.9273 1.11135 61.9064 1.1788 61.8656 1.23419C61.8248 1.28958 61.7665 1.32966 61.7 1.34795V1.35553C61.8705 1.38682 61.8829 1.53943 61.8905 1.67498C61.9019 1.88068 61.8905 1.9186 61.9429 1.98969H61.6895C61.6466 1.93661 61.6495 1.90627 61.6418 1.6873C61.6418 1.56597 61.6285 1.43895 61.3484 1.43895H61.1417V1.99064H60.894V0.657867H60.8921ZM61.1398 1.256H61.4256C61.6371 1.256 61.6723 1.13751 61.6723 1.04272C61.6723 0.881575 61.5628 0.840815 61.4046 0.840815H61.1408V1.256H61.1398Z" fill="white"/>
</g>
<defs>
<clipPath id="clip0">
<rect width="62" height="18" fill="white" transform="translate(0.721191)"/>
</clipPath>
</defs>
</svg>
