<svg width="76" height="18" viewBox="0 0 76 18" fill="none" xmlns="http://www.w3.org/2000/svg">
<g clip-path="url(#clip0)">
<path d="M22.7158 7.13735C24.2644 7.13735 25.2641 7.99047 25.7346 9.42621H28.0477C27.4792 6.70038 25.4405 4.99414 22.7158 4.99414C19.4618 4.99414 17.0115 7.67835 17.0115 11.1949C17.0115 14.7114 19.4618 17.3124 22.7158 17.3124C25.4405 17.3124 27.4204 15.5229 28.0477 12.8803H25.7346C25.2641 14.2328 24.2448 15.1692 22.7158 15.1692C20.5791 15.1692 19.2462 13.5462 19.2462 11.2157C19.2658 8.8644 20.5791 7.13735 22.7158 7.13735Z" fill="white"/>
<path d="M32.2617 6.32569H32.1637L32.0461 5.16045H30.1055V17.3538H32.2617V9.63413C32.2617 8.01112 33.4379 7.11639 34.9865 7.11639C35.3197 7.11639 35.3981 7.13719 35.3981 7.13719V4.91076C35.3981 4.91076 35.2609 4.86914 34.9865 4.86914C34.32 4.86914 33.1047 5.16045 32.2617 6.32569Z" fill="white"/>
<path d="M55.4124 4.86914C53.4914 4.86914 52.3152 5.74307 51.8056 6.32569H51.7076L51.5899 5.16045H49.6493V17.3538H51.8056V9.67575C51.8056 7.96951 53.2562 7.07477 55.04 7.07477C56.569 7.07477 57.6667 7.88628 57.6667 9.57171V17.3538H59.823V9.42606C59.8034 6.05519 57.5687 4.86914 55.4124 4.86914Z" fill="white"/>
<path d="M64.7427 5.16113H62.5864V17.3545H64.7427V5.16113Z" fill="white"/>
<path d="M41.7495 4.99414C38.4758 4.99414 35.9863 7.63674 35.9863 11.1533C35.9863 14.6698 38.4562 17.3124 41.7495 17.3124C45.0231 17.3124 47.5126 14.6698 47.5126 11.1533C47.5126 7.63674 45.0231 4.99414 41.7495 4.99414ZM41.7495 15.1068C39.6128 15.1068 38.2406 13.4421 38.2406 11.1533C38.2406 8.8644 39.6128 7.15816 41.7495 7.15816C43.8861 7.15816 45.2583 8.8644 45.2583 11.1533C45.2583 13.4421 43.8861 15.1068 41.7495 15.1068Z" fill="white"/>
<path d="M71.7027 9.94708C69.566 9.44769 69.664 8.88588 69.664 8.38649C69.664 7.78307 70.2913 7.03398 71.3302 7.03398C72.1928 7.03398 73.1141 7.49176 73.1141 9.03154H75.1919C75.2704 6.5346 73.7217 5.01562 71.3302 5.01562C69.2132 5.01562 67.5077 6.57621 67.5077 8.49053C67.5077 10.9042 69.3112 11.6533 71.2714 12.1111C73.3493 12.5897 73.5257 13.2763 73.5257 13.7549C73.5257 14.6705 72.6436 15.4612 71.4086 15.4612C70.5265 15.4612 69.174 14.8785 69.174 13.1099H67.0961C66.9589 15.8981 68.8603 17.5003 71.4086 17.5003C73.8198 17.5003 75.7212 15.8565 75.7212 13.6717C75.7016 11.1747 73.6433 10.384 71.7027 9.94708Z" fill="white"/>
<path d="M7.8761 0.5L0.721191 17.3543H3.01468L4.40646 13.9627H13.306L14.6978 17.3543H16.9717L9.85596 0.5H7.8761ZM8.81702 3.37148H8.91504L9.03265 3.6836L11.0517 8.59425H6.68035L8.69941 3.6836L8.81702 3.37148ZM5.21016 12.0483L5.87665 10.467H11.8358L12.5023 12.0483H5.21016Z" fill="white"/>
</g>
<defs>
<clipPath id="clip0">
<rect width="75" height="17" fill="white" transform="translate(0.721191 0.5)"/>
</clipPath>
</defs>
</svg>
