<svg width="162" height="31" viewBox="0 0 162 31" fill="none" xmlns="http://www.w3.org/2000/svg">
<g clip-path="url(#clip0)">
<path fill-rule="evenodd" clip-rule="evenodd" d="M0.968018 15.2319C0.968018 6.81781 7.78583 0 16.1999 0C24.614 0 31.4318 6.81781 31.4318 15.2319C31.4318 23.6459 24.614 30.4638 16.1999 30.4638C7.79292 30.4638 0.968018 23.6459 0.968018 15.2319Z" fill="#40A8E7"/>
<path fill-rule="evenodd" clip-rule="evenodd" d="M14.1233 15.9564L15.5422 10.3801C15.5918 10.1957 15.6344 9.91191 15.7266 9.52171C15.8188 9.13861 15.8685 8.84774 15.9111 8.66328H16.5921C16.6134 8.93287 16.734 9.50043 16.9327 10.3801L18.3587 15.9564H14.1233ZM20.4019 23.2141H24.2329L19.3377 6.82581C19.1603 6.14473 18.7276 5.8042 18.0252 5.8042H14.4638C14.1516 5.8042 13.8749 5.88933 13.6266 6.07379C13.3712 6.25115 13.2223 6.50655 13.1726 6.82581L8.2561 23.2141H12.1084L13.3358 18.8155H19.1816L20.4019 23.2141Z" fill="white"/>
<g clip-path="url(#clip1)">
<path fill-rule="evenodd" clip-rule="evenodd" d="M41.8811 8.60221L42.6308 5.5037C42.6547 5.41074 42.6826 5.25139 42.7344 5.02564C42.7703 4.81317 42.7983 4.65825 42.8222 4.56087H43.1771C43.193 4.71579 43.2568 5.02564 43.3565 5.50812L44.1222 8.60663H41.8811V8.60221ZM45.2029 12.918H47.2287L44.6286 3.53836C44.5409 3.15769 44.3096 2.9585 43.9388 2.9585H42.0485C41.8851 2.9585 41.7295 3.01161 41.6059 3.11342C41.4783 3.22851 41.3906 3.37015 41.3666 3.53836L38.7666 12.918H40.8044L41.4544 10.2046H44.5489L45.2029 12.918Z" fill="#211F1F"/>
<path fill-rule="evenodd" clip-rule="evenodd" d="M47.8479 2.9585V11.019C47.8479 11.6299 48.0114 12.0947 48.3464 12.4222C48.6774 12.7631 49.12 12.9136 49.7102 12.9136C50.4001 12.9136 50.9225 12.8295 51.2495 12.6303L51.0222 11.1474H50.4998C50.0173 11.1474 49.774 10.9217 49.774 10.4569V2.9585H47.8479Z" fill="#211F1F"/>
<path fill-rule="evenodd" clip-rule="evenodd" d="M52.0547 2.9585V11.019C52.0547 11.6299 52.2222 12.0947 52.5532 12.4222C52.8841 12.7631 53.3268 12.9136 53.913 12.9136C54.6029 12.9136 55.1253 12.8295 55.4563 12.6303L55.229 11.1474H54.7066C54.224 11.1474 53.9808 10.9217 53.9808 10.4569V2.9585H52.0547Z" fill="#211F1F"/>
<path fill-rule="evenodd" clip-rule="evenodd" d="M59.3097 10.2266C59.3815 10.2532 59.4493 10.2709 59.4852 10.2709C59.525 10.2842 59.5729 10.2975 59.6407 10.324C59.6885 10.3506 59.7284 10.3639 59.7563 10.3816C59.7803 10.3949 59.8082 10.4081 59.8441 10.4347C59.88 10.4612 59.9079 10.4745 59.9358 10.4922C59.9478 10.5188 59.9597 10.5454 59.9836 10.5719C59.9956 10.6029 60.0116 10.6427 60.0116 10.6737C60.0116 10.718 60.0235 10.7578 60.0235 10.7977C60.0235 11.0234 59.9198 11.1695 59.7165 11.2226C59.5131 11.2801 59.0665 11.3067 58.4045 11.3067H56.1753L56.0597 12.6656C56.937 12.8338 57.894 12.9046 58.9388 12.9046C60.0116 12.9046 60.7732 12.763 61.2199 12.4664C61.6665 12.1876 61.8978 11.621 61.8978 10.7977C61.8978 10.2311 61.7702 9.79286 61.5269 9.50071C61.2757 9.21742 60.8649 8.97397 60.3027 8.79691L58.6597 8.32771C58.6118 8.32771 58.548 8.31443 58.4683 8.28787C58.3845 8.26131 58.3167 8.24803 58.2928 8.23475C58.2649 8.23475 58.2171 8.21704 58.1612 8.19049C58.1134 8.16393 58.0735 8.15065 58.0456 8.13737C58.0216 8.13737 57.9977 8.12409 57.9738 8.0931C57.9339 8.06655 57.906 8.05327 57.898 8.02671C57.8741 8.01343 57.8581 7.98244 57.8462 7.95589C57.8223 7.92933 57.8103 7.88506 57.8103 7.8408V7.72571C57.8103 7.61505 57.8223 7.51324 57.8462 7.46012C57.8741 7.40258 57.9339 7.34504 58.0615 7.31405C58.1772 7.28749 58.2928 7.27421 58.4204 7.27421H59.0545H61.5269L61.6585 5.92858C60.833 5.76037 59.8361 5.67627 58.6916 5.67627C57.6827 5.67627 56.9689 5.8312 56.5621 6.12777C56.1554 6.42434 55.948 6.9201 55.948 7.6239C55.948 8.19049 56.0517 8.64198 56.279 8.95626C56.5063 9.28382 56.913 9.53612 57.5152 9.70875L59.1223 10.1735C59.1542 10.2001 59.222 10.2134 59.3097 10.2266Z" fill="#211F1F"/>
<path fill-rule="evenodd" clip-rule="evenodd" d="M66.96 7.69915C67.1354 7.97802 67.2232 8.51804 67.2232 9.31038C67.2232 10.1027 67.1354 10.6427 66.96 10.9083C66.7805 11.1916 66.4336 11.32 65.9511 11.32C65.4406 11.32 65.0937 11.1916 64.9182 10.9083C64.7388 10.6427 64.663 10.1027 64.663 9.31038C64.663 8.50476 64.7388 7.96474 64.9182 7.68587C65.0937 7.41586 65.4406 7.27421 65.9511 7.27421C66.4495 7.27421 66.7765 7.41143 66.96 7.69915ZM63.3909 6.49516C62.8805 7.04847 62.6372 7.97802 62.6372 9.31038C62.6372 10.6427 62.8805 11.5723 63.3909 12.1123C63.8854 12.6523 64.7388 12.9179 65.9511 12.9179C67.1474 12.9179 67.9888 12.6523 68.4992 12.1123C68.9977 11.5723 69.2489 10.6427 69.2489 9.31038C69.2489 7.99572 68.9977 7.06174 68.4992 6.50844C67.9888 5.95514 67.1474 5.67627 65.9511 5.67627C64.7388 5.67627 63.8854 5.95514 63.3909 6.49516Z" fill="#211F1F"/>
<path fill-rule="evenodd" clip-rule="evenodd" d="M75.1536 3.11342C74.6711 3.01604 73.9812 2.9585 73.064 2.9585C71.6603 2.9585 70.9585 3.56492 70.9585 4.78219V5.6719H69.8259V7.26985H70.9585V12.9136H72.8965V7.27427H74.6711V5.67633H72.8965V5.14958C72.8965 4.93711 72.9643 4.78219 73.0879 4.69809C73.2195 4.61841 73.4349 4.55644 73.7659 4.55644H74.9781L75.1536 3.11342Z" fill="#211F1F"/>
<path fill-rule="evenodd" clip-rule="evenodd" d="M79.6926 7.27457V5.67662H77.906V3.86621H75.9999V5.67662H74.8474V7.27457H75.9999V10.9352C75.9999 11.5594 76.1514 12.0551 76.4665 12.3915C76.7855 12.7456 77.2481 12.9183 77.8303 12.9183C78.5441 12.9183 79.1423 12.8342 79.6367 12.635L79.4334 11.1521H78.6079C78.3567 11.1521 78.1653 11.1123 78.0616 11.0105C77.9619 10.9131 77.906 10.7316 77.906 10.4705V7.27457H79.6926Z" fill="#211F1F"/>
<path fill-rule="evenodd" clip-rule="evenodd" d="M86.4651 11.32C86.2498 11.32 86.0942 11.2625 85.9906 11.1341C85.8909 11.0058 85.851 10.7933 85.851 10.5011V8.38974H89.444V6.79179H85.851V5.29566C85.851 5.03892 85.8869 4.84416 85.9906 4.72907C86.0942 4.61398 86.2498 4.55644 86.4651 4.55644H89.9305L90.0182 3.11342C89.2047 3.01604 87.801 2.9585 85.839 2.9585C85.2409 2.9585 84.7663 3.14441 84.4114 3.49852C84.0525 3.86592 83.8611 4.34397 83.8611 4.95482V10.9217C83.8611 11.5458 84.0525 12.0283 84.4114 12.378C84.7663 12.7454 85.2369 12.9136 85.839 12.9136C87.801 12.9136 89.2047 12.8737 90.0182 12.7852L89.9305 11.32H86.4651Z" fill="#40A8E7"/>
<path fill-rule="evenodd" clip-rule="evenodd" d="M94.5954 11.32C93.9973 11.32 93.5865 11.1783 93.3712 10.895C93.1439 10.6162 93.0402 10.0894 93.0402 9.2971C93.0402 8.51804 93.1439 7.97802 93.3712 7.69915C93.5865 7.41586 93.9973 7.27421 94.5954 7.27421H96.4298L96.6332 6.10121C96.0231 5.81792 95.2335 5.67627 94.2644 5.67627C93.0641 5.67627 92.2267 5.95514 91.7402 6.49516C91.2577 7.03519 91.0144 7.96474 91.0144 9.2971C91.0144 10.6295 91.2616 11.5723 91.7402 12.1123C92.2267 12.6523 93.0522 12.9179 94.2405 12.9179C95.2335 12.9179 96.0629 12.7763 96.7249 12.4797L96.5614 11.196C95.9991 11.2757 95.3491 11.32 94.5954 11.32Z" fill="#211F1F"/>
<path fill-rule="evenodd" clip-rule="evenodd" d="M101.988 7.69915C102.167 7.97802 102.259 8.51804 102.259 9.31038C102.259 10.1027 102.171 10.6427 101.988 10.9083C101.812 11.1916 101.466 11.32 100.987 11.32C100.477 11.32 100.13 11.1916 99.9502 10.9083C99.7747 10.6427 99.699 10.1027 99.699 9.31038C99.699 8.50476 99.7747 7.96474 99.9502 7.68587C100.13 7.41586 100.477 7.27421 100.987 7.27421C101.478 7.27421 101.812 7.41143 101.988 7.69915ZM98.4189 6.49516C97.9085 7.04847 97.6692 7.97802 97.6692 9.31038C97.6692 10.6427 97.9085 11.5723 98.4189 12.1123C98.9174 12.6523 99.7707 12.9179 100.983 12.9179C102.179 12.9179 103.021 12.6523 103.531 12.1123C104.026 11.5723 104.281 10.6427 104.281 9.31038C104.281 7.99572 104.026 7.06174 103.531 6.50844C103.021 5.95514 102.179 5.67627 100.983 5.67627C99.7747 5.67627 98.9174 5.95514 98.4189 6.49516Z" fill="#211F1F"/>
<path fill-rule="evenodd" clip-rule="evenodd" d="M105.409 5.67627V12.9179H107.336V7.91162C107.946 7.48668 108.416 7.27421 108.763 7.27421C108.99 7.27421 109.17 7.34504 109.286 7.4734C109.389 7.60177 109.449 7.82752 109.449 8.13737V12.9179H111.299V7.9249C111.654 7.67259 111.937 7.49996 112.129 7.41143C112.32 7.33176 112.524 7.26979 112.739 7.26979C112.99 7.26979 113.17 7.34061 113.273 7.46898C113.361 7.59734 113.413 7.82309 113.413 8.13294V12.9135H115.335V7.6239C115.335 7.0042 115.183 6.51729 114.88 6.18088C114.573 5.84005 114.127 5.67627 113.544 5.67627C112.727 5.67627 111.949 6.03038 111.2 6.70763C110.956 6.03038 110.41 5.67627 109.541 5.67627C108.723 5.67627 107.91 6.04366 107.096 6.78288L106.957 5.67627H105.409Z" fill="#211F1F"/>
<path fill-rule="evenodd" clip-rule="evenodd" d="M116.958 5.67627V12.9179H118.884V7.91162C119.494 7.48668 119.965 7.27421 120.311 7.27421C120.539 7.27421 120.722 7.34504 120.834 7.4734C120.934 7.60177 120.997 7.82752 120.997 8.13737V12.9179H122.844V7.9249C123.203 7.67259 123.486 7.49996 123.673 7.41143C123.861 7.33176 124.064 7.26979 124.287 7.26979C124.539 7.26979 124.718 7.34061 124.822 7.46898C124.909 7.59734 124.961 7.82309 124.961 8.13294V12.9135H126.887V7.6239C126.887 7.0042 126.736 6.51729 126.433 6.18088C126.126 5.84005 125.679 5.67627 125.089 5.67627C124.271 5.67627 123.498 6.03038 122.744 6.70763C122.501 6.03038 121.958 5.67627 121.089 5.67627C120.272 5.67627 119.458 6.04366 118.641 6.78288L118.501 5.67627H116.958Z" fill="#211F1F"/>
<path fill-rule="evenodd" clip-rule="evenodd" d="M130.558 7.49996C130.738 7.35832 131.081 7.27421 131.579 7.27421C131.986 7.27421 132.281 7.33176 132.433 7.41586C132.584 7.49996 132.676 7.65489 132.676 7.88064C132.676 8.05327 132.624 8.18163 132.544 8.26574C132.469 8.34984 132.301 8.3941 132.074 8.3941H130.251C130.275 7.93818 130.379 7.63718 130.558 7.49996ZM134.1 9.50956C134.407 9.19529 134.57 8.71723 134.57 8.06655C134.558 7.27421 134.315 6.66779 133.832 6.26941C133.346 5.87546 132.584 5.67627 131.512 5.67627C130.327 5.67627 129.486 5.94186 128.991 6.48188C128.481 7.02191 128.238 7.96916 128.238 9.31038C128.238 10.6162 128.493 11.5324 129.003 12.0858C129.514 12.6523 130.379 12.9179 131.587 12.9179C132.788 12.9179 133.717 12.7453 134.395 12.4089L134.215 11.1651C133.298 11.2801 132.493 11.3244 131.819 11.3244C131.296 11.3244 130.929 11.2403 130.71 11.0544C130.483 10.8862 130.343 10.5321 130.291 9.99647H132.612C133.298 9.98762 133.797 9.83269 134.1 9.50956Z" fill="#211F1F"/>
<path fill-rule="evenodd" clip-rule="evenodd" d="M140.26 5.6763C139.391 5.6763 138.525 6.00386 137.66 6.62356L137.48 5.6763H135.981V12.918H137.919V7.80985C138.796 7.45573 139.458 7.26982 139.893 7.26982H140.415L140.607 5.67188H140.26V5.6763Z" fill="#211F1F"/>
<path fill-rule="evenodd" clip-rule="evenodd" d="M145.127 11.32C144.529 11.32 144.118 11.1783 143.903 10.895C143.676 10.6162 143.572 10.0894 143.572 9.2971C143.572 8.51804 143.676 7.97802 143.903 7.69915C144.118 7.41586 144.525 7.27421 145.127 7.27421H146.962L147.165 6.10121C146.551 5.81792 145.765 5.67627 144.796 5.67627C143.6 5.67627 142.758 5.95514 142.272 6.49516C141.789 7.03519 141.546 7.96474 141.546 9.2971C141.546 10.6295 141.789 11.5723 142.272 12.1123C142.758 12.6523 143.584 12.9179 144.772 12.9179C145.769 12.9179 146.595 12.7763 147.257 12.4797L147.093 11.196C146.527 11.2757 145.881 11.32 145.127 11.32Z" fill="#211F1F"/>
<path fill-rule="evenodd" clip-rule="evenodd" d="M150.519 7.49996C150.699 7.35832 151.041 7.27421 151.536 7.27421C151.943 7.27421 152.238 7.33176 152.389 7.41586C152.545 7.49996 152.633 7.65489 152.633 7.88064C152.633 8.05327 152.581 8.18163 152.501 8.26574C152.429 8.34984 152.262 8.3941 152.03 8.3941H150.208C150.24 7.93818 150.34 7.63718 150.519 7.49996ZM154.064 9.50956C154.371 9.19529 154.535 8.71723 154.535 8.06655C154.523 7.27421 154.284 6.66779 153.797 6.26941C153.311 5.87546 152.549 5.67627 151.476 5.67627C150.296 5.67627 149.45 5.94186 148.952 6.48188C148.441 7.02191 148.202 7.96916 148.202 9.31038C148.202 10.6162 148.457 11.5324 148.968 12.0858C149.478 12.6523 150.344 12.9179 151.556 12.9179C152.756 12.9179 153.685 12.7453 154.355 12.4089L154.18 11.1651C153.263 11.2801 152.457 11.3244 151.783 11.3244C151.261 11.3244 150.89 11.2403 150.675 11.0544C150.447 10.8862 150.308 10.5321 150.256 9.99647H152.577C153.263 9.98762 153.757 9.83269 154.064 9.50956Z" fill="#211F1F"/>
<path fill-rule="evenodd" clip-rule="evenodd" d="M161.901 3.41005C161.901 4.28206 161.622 5.03013 161.064 5.64983C160.505 6.26953 159.831 6.57938 159.046 6.57938C158.26 6.57938 157.586 6.26953 157.028 5.64983C156.47 5.03013 156.195 4.28206 156.195 3.41005C156.195 2.53805 156.474 1.78998 157.028 1.17028C157.586 0.550574 158.26 0.240723 159.046 0.240723C159.831 0.240723 160.505 0.546147 161.064 1.17028C161.626 1.78998 161.901 2.53805 161.901 3.41005ZM161.275 3.41005C161.275 2.72838 161.056 2.14409 160.625 1.65276C160.19 1.16585 159.664 0.917968 159.05 0.917968C158.44 0.917968 157.913 1.16142 157.475 1.65276C157.044 2.13967 156.825 2.72396 156.825 3.41005C156.825 4.0873 157.044 4.67601 157.475 5.16735C157.913 5.65426 158.44 5.90214 159.05 5.90214C159.664 5.90214 160.19 5.65868 160.625 5.16735C161.052 4.68044 161.275 4.09173 161.275 3.41005ZM160.653 4.91062H159.756L158.894 3.75089H158.607V4.91062H157.905V1.75899H158.986C159.185 1.75899 159.345 1.76342 159.469 1.78112C159.592 1.79883 159.708 1.84309 159.831 1.91392C159.959 1.99359 160.055 2.0954 160.115 2.20606C160.17 2.32115 160.202 2.4628 160.202 2.63543C160.202 2.86118 160.146 3.05151 160.027 3.20201C159.911 3.35251 159.76 3.4676 159.576 3.5517L160.653 4.91062ZM159.433 2.69297C159.433 2.62215 159.421 2.5646 159.397 2.51149C159.373 2.45837 159.329 2.40968 159.269 2.37869C159.213 2.34328 159.15 2.32558 159.078 2.31672C159.01 2.30787 158.926 2.30344 158.834 2.30344H158.615V3.18873H158.787C158.902 3.18873 159.002 3.17988 159.086 3.16217C159.173 3.14447 159.237 3.11348 159.285 3.07364C159.341 3.03381 159.377 2.97626 159.401 2.91872C159.417 2.85232 159.433 2.77707 159.433 2.69297Z" fill="#989897"/>
<path d="M44.9866 20.018V26.918H43.4566V21.088H41.0166V26.918H39.4866V20.018H44.9866ZM51.95 20.018V26.918H50.42V21.088H49.52C49.1266 21.088 48.9166 21.2813 48.89 21.668C48.81 22.548 48.73 23.2913 48.65 23.898C48.5766 24.5046 48.4566 25.0213 48.29 25.448C48.0766 26.0546 47.7733 26.4713 47.38 26.698C46.9933 26.9246 46.5366 27.008 46.01 26.948L45.89 25.768C46.11 25.7213 46.3033 25.6513 46.47 25.558C46.6433 25.458 46.78 25.2846 46.88 25.038C46.9733 24.798 47.0533 24.528 47.12 24.228C47.1866 23.928 47.2433 23.5613 47.29 23.128C47.3366 22.688 47.3833 22.148 47.43 21.508C47.5033 20.5146 48.0366 20.018 49.03 20.018H51.95ZM56.7968 20.018C56.9235 20.018 57.0335 20.0546 57.1268 20.128C57.2268 20.2013 57.2935 20.298 57.3268 20.418L59.3268 26.918H57.7668L57.2568 25.088H54.8768L54.3768 26.918H52.8168L54.8168 20.418C54.8502 20.298 54.9135 20.2013 55.0068 20.128C55.1068 20.0546 55.2202 20.018 55.3468 20.018H56.7968ZM55.7868 21.838L55.1968 23.948H56.9368L56.3568 21.838C56.3235 21.7313 56.2935 21.6213 56.2668 21.508C56.2468 21.388 56.2268 21.2746 56.2068 21.168H55.9368C55.9168 21.2746 55.8935 21.388 55.8668 21.508C55.8402 21.6213 55.8135 21.7313 55.7868 21.838ZM64.7639 20.018V21.218H62.6839V26.918H61.1639V21.218H59.0839V20.018H64.7639ZM70.0895 19.518V20.418C70.8628 20.458 71.4795 20.5813 71.9395 20.788C72.3995 20.988 72.7295 21.298 72.9295 21.718C73.1362 22.138 73.2395 22.6913 73.2395 23.378C73.2395 24.058 73.1362 24.6013 72.9295 25.008C72.7295 25.4146 72.3995 25.718 71.9395 25.918C71.4795 26.1113 70.8628 26.2313 70.0895 26.278V27.168H68.5695V26.278C67.7962 26.238 67.1762 26.118 66.7095 25.918C66.2495 25.718 65.9195 25.4146 65.7195 25.008C65.5195 24.6013 65.4195 24.058 65.4195 23.378C65.4195 22.6846 65.5195 22.1313 65.7195 21.718C65.9195 21.298 66.2495 20.988 66.7095 20.788C67.1762 20.5813 67.7962 20.458 68.5695 20.418V19.518H70.0895ZM66.9495 23.378C66.9495 23.8046 66.9962 24.1413 67.0895 24.388C67.1828 24.6346 67.3495 24.818 67.5895 24.938C67.8362 25.0513 68.1828 25.1213 68.6295 25.148V21.538C68.1828 21.5713 67.8362 21.648 67.5895 21.768C67.3495 21.888 67.1828 22.078 67.0895 22.338C66.9962 22.5913 66.9495 22.938 66.9495 23.378ZM71.7095 23.378C71.7028 22.938 71.6528 22.5913 71.5595 22.338C71.4662 22.078 71.2962 21.888 71.0495 21.768C70.8095 21.648 70.4662 21.5746 70.0195 21.548V25.148C70.4662 25.1213 70.8095 25.0513 71.0495 24.938C71.2962 24.818 71.4662 24.6346 71.5595 24.388C71.6528 24.1413 71.7028 23.8046 71.7095 23.378ZM77.2046 19.878C77.7513 19.878 78.2113 19.938 78.5846 20.058C78.9646 20.1713 79.2713 20.3646 79.5046 20.638C79.738 20.9113 79.908 21.278 80.0146 21.738C80.1213 22.198 80.1746 22.7746 80.1746 23.468C80.1746 24.1613 80.1213 24.738 80.0146 25.198C79.908 25.658 79.738 26.0246 79.5046 26.298C79.2713 26.5713 78.9646 26.7646 78.5846 26.878C78.2113 26.9913 77.7513 27.048 77.2046 27.048C76.658 27.048 76.1946 26.9913 75.8146 26.878C75.4346 26.7646 75.128 26.5713 74.8946 26.298C74.6613 26.0246 74.4913 25.658 74.3846 25.198C74.2846 24.738 74.2346 24.1613 74.2346 23.468C74.2346 22.7746 74.2846 22.198 74.3846 21.738C74.4913 21.278 74.6613 20.9113 74.8946 20.638C75.128 20.3646 75.4346 20.1713 75.8146 20.058C76.1946 19.938 76.658 19.878 77.2046 19.878ZM77.2046 21.078C76.8513 21.078 76.5746 21.148 76.3746 21.288C76.1813 21.428 76.0413 21.6713 75.9546 22.018C75.8746 22.3646 75.8346 22.848 75.8346 23.468C75.8346 24.088 75.8746 24.5713 75.9546 24.918C76.0413 25.2646 76.1813 25.508 76.3746 25.648C76.5746 25.7813 76.8513 25.848 77.2046 25.848C77.5513 25.848 77.8246 25.7813 78.0246 25.648C78.2246 25.508 78.3646 25.2646 78.4446 24.918C78.5246 24.5713 78.5646 24.088 78.5646 23.468C78.5646 22.848 78.5246 22.3646 78.4446 22.018C78.3646 21.6713 78.2246 21.428 78.0246 21.288C77.8246 21.148 77.5513 21.078 77.2046 21.078ZM84.1694 19.918C84.8094 19.918 85.3127 19.9846 85.6794 20.118C86.0461 20.2513 86.3061 20.4813 86.4594 20.808C86.6194 21.1346 86.6994 21.5913 86.6994 22.178C86.6994 22.7646 86.6227 23.2213 86.4694 23.548C86.3227 23.8746 86.0761 24.1013 85.7294 24.228C85.3894 24.3546 84.9327 24.4213 84.3594 24.428C84.1327 24.4213 83.9061 24.4113 83.6794 24.398C83.4594 24.3846 83.2461 24.368 83.0394 24.348V26.918H81.5194V20.018C81.7927 19.9913 82.0527 19.9713 82.2994 19.958C82.5461 19.9446 82.8127 19.9346 83.0994 19.928C83.3927 19.9213 83.7494 19.918 84.1694 19.918ZM84.1294 21.068C83.9294 21.068 83.7361 21.068 83.5494 21.068C83.3694 21.068 83.1994 21.068 83.0394 21.068V23.278H84.1294C84.5294 23.278 84.8027 23.2046 84.9494 23.058C85.0961 22.9113 85.1694 22.618 85.1694 22.178C85.1694 21.738 85.0961 21.4446 84.9494 21.298C84.8027 21.1446 84.5294 21.068 84.1294 21.068ZM94.9306 20.018C95.2906 20.018 95.4773 20.2046 95.4906 20.578L95.7506 26.918H94.3406L94.1106 21.188H93.9306L92.8206 25.498C92.7539 25.818 92.5539 25.978 92.2206 25.978H91.2606C90.9206 25.978 90.7173 25.818 90.6506 25.498L89.5306 21.188H89.3606L89.1506 26.918H87.7406L87.9906 20.578C88.0039 20.2046 88.1939 20.018 88.5606 20.018H89.9906C90.3173 20.018 90.5173 20.178 90.5906 20.498L91.4806 23.978C91.5206 24.138 91.5539 24.3013 91.5806 24.468C91.6073 24.628 91.6373 24.7913 91.6706 24.958H91.8006C91.8339 24.7913 91.8639 24.628 91.8906 24.468C91.9173 24.3013 91.9506 24.1346 91.9906 23.968L92.8706 20.498C92.9373 20.178 93.1406 20.018 93.4806 20.018H94.9306ZM42.7566 34.018C42.8833 34.018 42.9933 34.0546 43.0866 34.128C43.1866 34.2013 43.2533 34.298 43.2866 34.418L45.2866 40.918H43.7266L43.2166 39.088H40.8366L40.3366 40.918H38.7766L40.7766 34.418C40.8099 34.298 40.8733 34.2013 40.9666 34.128C41.0666 34.0546 41.1799 34.018 41.3066 34.018H42.7566ZM41.7466 35.838L41.1566 37.948H42.8966L42.3166 35.838C42.2833 35.7313 42.2533 35.6213 42.2266 35.508C42.2066 35.388 42.1866 35.2746 42.1666 35.168H41.8966C41.8766 35.2746 41.8533 35.388 41.8266 35.508C41.7999 35.6213 41.7733 35.7313 41.7466 35.838Z" fill="#40A8E7"/>
</g>
</g>
<defs>
<clipPath id="clip0">
<rect width="160.933" height="30.4638" fill="white" transform="translate(0.968018)"/>
</clipPath>
<clipPath id="clip1">
<rect width="123.135" height="29.9822" fill="white" transform="translate(38.7666 0.240723)"/>
</clipPath>
</defs>
</svg>
