<svg width="73" height="24" viewBox="0 0 73 24" fill="none" xmlns="http://www.w3.org/2000/svg">
<path fill-rule="evenodd" clip-rule="evenodd" d="M22.0142 15.9447C21.2753 15.2443 20.7927 15.1377 20.1895 14.6962C18.3497 13.3411 17.9123 10.4939 19.3148 8.65164C19.722 8.11875 20.2196 7.75334 20.7776 7.3727C21.3657 6.97684 21.8935 6.4135 22.1801 5.8197C22.738 4.63211 22.6023 3.12479 21.7427 1.9981C20.9284 0.932317 19.6315 0.368974 18.229 0.643033C17.5655 0.764837 17.0075 1.0389 16.4345 1.55656C15.8614 2.07423 15.7106 2.62235 15.0471 3.27704C14.0065 4.31238 12.7548 4.81482 11.2619 4.72347C10.538 4.67779 9.91973 4.49508 9.19587 4.084C8.41169 3.64246 8.09501 3.09434 7.49179 2.95731C6.85842 2.80505 6.16472 2.98776 5.74247 3.47498C5.16941 4.1449 5.24482 4.75392 5.50118 5.54564C5.74247 6.29169 5.93851 7.02252 5.98375 7.81424C6.02899 8.59074 5.93851 9.38247 5.71231 10.1285C5.30514 11.4988 4.32491 12.7778 3.37485 13.6304C2.59067 14.3308 2.04778 14.4373 1.53504 14.9245C1.03739 15.3813 0.720703 16.036 0.720703 16.7668C0.720703 18.0458 1.62553 19.1116 2.81687 19.3247C3.75186 19.5074 4.6416 19.0659 4.92813 18.9745C6.8735 18.3503 9.31651 18.4264 11.0809 18.9441C12.5437 19.3704 13.7954 20.1317 14.9717 21.0909C15.5447 21.5476 15.967 22.1719 16.5702 22.5982C18.1084 23.6944 20.7474 23.9228 22.4364 21.7151C23.5825 20.2535 23.854 17.6804 22.0142 15.9447Z" fill="white"/>
<path fill-rule="evenodd" clip-rule="evenodd" d="M14.7454 7.9043C14.1724 7.9043 13.9612 8.36106 13.9612 8.69602V9.30504C13.3731 8.49809 12.5738 7.98042 11.4881 7.98042C10.5983 7.98042 9.84429 8.34584 9.226 9.06143C8.6077 9.77703 8.29102 10.6601 8.29102 11.665C8.29102 12.6851 8.6077 13.553 9.226 14.2686C9.85937 14.9994 10.6134 15.3496 11.4881 15.3496C12.6492 15.3496 13.4636 14.7101 13.9612 14.0097V14.6644C13.9612 14.9537 14.2025 15.4257 14.7454 15.4257C15.2883 15.4257 15.5145 14.9537 15.5145 14.634V8.6808C15.5145 8.17836 15.0772 7.9043 14.7454 7.9043ZM11.9103 13.9031C10.719 13.9031 9.85937 12.8069 9.85937 11.6345C9.85937 10.3861 10.734 9.36594 11.9103 9.36594C13.162 9.36594 13.9612 10.5079 13.9612 11.6345C13.9612 12.8221 13.1167 13.9031 11.9103 13.9031Z" fill="white"/>
<path fill-rule="evenodd" clip-rule="evenodd" d="M45.1015 6.51877C44.3777 6.22949 43.8348 6.77761 43.699 7.14302L41.0751 14.0858L38.4511 7.14302C38.3153 6.79283 37.7725 6.22949 37.0486 6.51877C36.2644 6.82328 36.3097 7.56933 36.4303 7.90429C36.4303 7.90429 38.617 13.69 39.3257 15.5627C39.7329 16.6437 40.5322 16.8721 41.06 16.8721C41.5878 16.8721 42.387 16.6437 42.7942 15.5627C43.503 13.69 45.6896 7.90429 45.6896 7.90429C45.8555 7.56933 45.8857 6.82328 45.1015 6.51877Z" fill="white"/>
<path fill-rule="evenodd" clip-rule="evenodd" d="M33.9878 6.42676C33.2036 6.42676 32.8869 7.051 32.8869 7.50777V8.3604C32.0726 7.24893 30.9717 6.51811 29.4637 6.51811C28.2422 6.51811 27.1865 7.02055 26.3269 8.01021C25.4674 9.01509 25.03 10.2179 25.03 11.6339C25.03 13.0346 25.4674 14.2374 26.3269 15.2423C27.1865 16.2472 28.2422 16.7496 29.4637 16.7496C31.0773 16.7496 32.1932 15.8666 32.8869 14.8921V15.8057C32.8869 16.2167 33.2187 16.8562 33.9727 16.8562C34.7267 16.8562 35.0434 16.2015 35.0434 15.7752V7.52299C35.0585 6.82262 34.4553 6.42676 33.9878 6.42676ZM30.0367 14.7856C28.393 14.7856 27.2016 13.263 27.2016 11.6339C27.2016 9.9134 28.4231 8.49742 30.0367 8.49742C31.771 8.49742 32.8718 10.0656 32.8718 11.6339C32.8718 13.2935 31.6956 14.7856 30.0367 14.7856Z" fill="white"/>
<path fill-rule="evenodd" clip-rule="evenodd" d="M55.1756 6.42676C54.3915 6.42676 54.0748 7.051 54.0748 7.50777V8.3604C53.2604 7.24893 52.1596 6.51811 50.6515 6.51811C49.43 6.51811 48.3744 7.02055 47.5148 8.01021C46.6552 9.01509 46.2179 10.2179 46.2179 11.6339C46.2179 13.0346 46.6552 14.2374 47.5148 15.2423C48.3744 16.2472 49.43 16.7496 50.6515 16.7496C52.2651 16.7496 53.3811 15.8666 54.0748 14.8921V15.8057C54.0748 16.2167 54.4065 16.8562 55.1606 16.8562C55.9146 16.8562 56.2313 16.2015 56.2313 15.7752V7.52299C56.2313 6.82262 55.6431 6.42676 55.1756 6.42676ZM51.2246 14.7856C49.5808 14.7856 48.3895 13.263 48.3895 11.6339C48.3895 9.9134 49.611 8.49742 51.2246 8.49742C52.9588 8.49742 54.0597 10.0656 54.0597 11.6339C54.0446 13.2935 52.8834 14.7856 51.2246 14.7856Z" fill="white"/>
<path d="M58.0564 15.654C57.8151 15.517 57.619 15.2277 57.619 14.847C57.619 14.3294 58.0111 13.9183 58.5389 13.9183C58.735 13.9183 58.9009 13.9792 59.0366 14.0553C60.0017 14.71 60.997 15.0297 61.9018 15.0297C62.8821 15.0297 63.4551 14.6034 63.4551 13.9487V13.9031C63.4551 13.1266 62.3995 12.8982 61.2232 12.5328C59.7454 12.1064 58.1016 11.467 58.1016 9.53334V9.48766C58.1016 7.58447 59.67 6.41211 61.6455 6.41211C62.7011 6.41211 63.817 6.71662 64.7822 7.23429C65.0989 7.40177 65.3251 7.70628 65.3251 8.11736C65.3251 8.65026 64.9028 9.04612 64.375 9.04612C64.179 9.04612 64.0734 9.00044 63.9226 8.92432C63.1083 8.498 62.2789 8.23917 61.5852 8.23917C60.6954 8.23917 60.1827 8.66548 60.1827 9.22883V9.2745C60.1827 10.0206 61.2534 10.2794 62.4297 10.66C63.8774 11.1168 65.5211 11.8172 65.5211 13.629V13.6747C65.5211 15.791 63.8925 16.8416 61.8264 16.8416C60.5899 16.8568 59.2025 16.4609 58.0564 15.654Z" fill="white"/>
<path d="M67.6175 13.9333V8.69571H67.1802C66.6373 8.69571 66.2 8.25418 66.2 7.70606C66.2 7.15794 66.6373 6.7164 67.1802 6.7164H67.6175V5.1634C67.6175 4.53915 68.0699 4.02148 68.7033 4.02148C69.3216 4.02148 69.774 4.53915 69.774 5.1634V6.7164H71.4781C72.021 6.7164 72.4734 7.15794 72.4734 7.70606C72.4734 8.25418 72.021 8.69571 71.4781 8.69571H69.774V13.5679C69.774 14.4662 70.2867 14.8164 71.0558 14.8164C71.3273 14.8164 71.5535 14.7555 71.6289 14.7555C72.1416 14.7555 72.594 15.1666 72.594 15.6994C72.594 16.1105 72.3075 16.4607 71.9908 16.5978C71.4932 16.7652 71.0257 16.8566 70.4225 16.8566C68.7485 16.8718 67.6175 16.1258 67.6175 13.9333Z" fill="white"/>
</svg>
