<svg width="16" height="15" viewBox="0 0 16 15" fill="none" xmlns="http://www.w3.org/2000/svg">
<path fill-rule="evenodd" clip-rule="evenodd" d="M1 8.91699H12.865L9.232 13.277C8.878 13.701 8.936 14.332 9.36 14.685C9.785 15.039 10.415 14.981 10.769 14.557L15.769 8.55699C15.808 8.50999 15.827 8.45499 15.856 8.40299C15.88 8.36099 15.909 8.32499 15.927 8.27899C15.972 8.16399 15.999 8.04299 15.999 7.92099C15.999 7.91999 16 7.91799 16 7.91699C16 7.91599 15.999 7.91399 15.999 7.91299C15.999 7.79099 15.972 7.66999 15.927 7.55499C15.909 7.50899 15.88 7.47299 15.856 7.43099C15.827 7.37899 15.808 7.32399 15.769 7.27699L10.769 1.27699C10.57 1.03999 10.286 0.916992 10 0.916992C9.774 0.916992 9.547 0.992992 9.36 1.14899C8.936 1.50199 8.878 2.13299 9.232 2.55699L12.865 6.91699H1C0.448 6.91699 0 7.36499 0 7.91699C0 8.46899 0.448 8.91699 1 8.91699Z" fill="#40A8E7"/>
</svg>
 