<svg width="63" height="22" viewBox="0 0 63 22" fill="none" xmlns="http://www.w3.org/2000/svg">
<g clip-path="url(#clip0)">
<path d="M26.978 11.2689C26.978 14.1838 24.7008 16.3317 21.9063 16.3317C19.1117 16.3317 16.8346 14.1838 16.8346 11.2689C16.8346 8.33345 19.1117 6.20605 21.9063 6.20605C24.7008 6.20605 26.978 8.33345 26.978 11.2689ZM24.7578 11.2689C24.7578 9.44736 23.438 8.20106 21.9063 8.20106C20.3745 8.20106 19.0547 9.44736 19.0547 11.2689C19.0547 13.0721 20.3745 14.3367 21.9063 14.3367C23.438 14.3367 24.7578 13.0699 24.7578 11.2689Z" fill="white"/>
<path d="M37.9201 11.2689C37.9201 14.1838 35.643 16.3317 32.8484 16.3317C30.0539 16.3317 27.7767 14.1838 27.7767 11.2689C27.7767 8.33573 30.0539 6.20605 32.8484 6.20605C35.643 6.20605 37.9201 8.33345 37.9201 11.2689ZM35.7 11.2689C35.7 9.44736 34.3802 8.20106 32.8484 8.20106C31.3167 8.20106 29.9969 9.44736 29.9969 11.2689C29.9969 13.0721 31.3167 14.3367 32.8484 14.3367C34.3802 14.3367 35.7 13.0699 35.7 11.2689Z" fill="white"/>
<path d="M48.4049 6.51192V15.6013C48.4049 19.3402 46.203 20.8673 43.5999 20.8673C41.1496 20.8673 39.6748 19.2261 39.1186 17.8839L41.0516 17.0781C41.3958 17.9021 42.2391 18.8745 43.5977 18.8745C45.2639 18.8745 46.2965 17.8451 46.2965 15.9071V15.179H46.219C45.7221 15.793 44.7647 16.3294 43.5566 16.3294C41.0288 16.3294 38.7129 14.1244 38.7129 11.2871C38.7129 8.42932 41.0288 6.20605 43.5566 6.20605C44.7624 6.20605 45.7198 6.74247 46.219 7.33823H46.2965V6.51421H48.4049V6.51192ZM46.4538 11.2871C46.4538 9.50442 45.2662 8.20106 43.7549 8.20106C42.2232 8.20106 40.9399 9.50442 40.9399 11.2871C40.9399 13.0516 42.2232 14.3367 43.7549 14.3367C45.2662 14.3367 46.4538 13.0516 46.4538 11.2871Z" fill="white"/>
<path d="M51.881 1.18457V16.0215H49.7156V1.18457H51.881Z" fill="white"/>
<path d="M60.3191 12.9355L62.0423 14.086C61.4862 14.91 60.1459 16.3298 57.83 16.3298C54.9579 16.3298 52.813 14.1065 52.813 11.2669C52.813 8.25617 54.9762 6.2041 57.5815 6.2041C60.2051 6.2041 61.4884 8.29497 61.9078 9.42486L62.1381 10.0001L55.3796 12.8031C55.897 13.8189 56.7017 14.337 57.83 14.337C58.9606 14.337 59.7447 13.7801 60.3191 12.9355ZM55.0149 11.114L59.5327 9.23541C59.2842 8.60312 58.5366 8.16258 57.6567 8.16258C56.5284 8.16258 54.9579 9.16008 55.0149 11.114Z" fill="white"/>
<path d="M8.63886 9.95242V7.80449H15.8669C15.9375 8.17883 15.974 8.62166 15.974 9.10101C15.974 10.7125 15.5341 12.7052 14.1163 14.125C12.7372 15.5631 10.9753 16.33 8.64114 16.33C4.31482 16.33 0.67688 12.8011 0.67688 8.46873C0.67688 4.13633 4.31482 0.607422 8.64114 0.607422C11.0345 0.607422 12.7395 1.54786 14.0206 2.77362L12.507 4.28927C11.5884 3.42644 10.3439 2.75536 8.63886 2.75536C5.4796 2.75536 3.00872 5.30503 3.00872 8.46873C3.00872 11.6324 5.4796 14.1821 8.63886 14.1821C10.6881 14.1821 11.8551 13.3581 12.6028 12.6094C13.2091 12.0022 13.608 11.1348 13.7653 9.95014L8.63886 9.95242Z" fill="white"/>
</g>
<defs>
<clipPath id="clip0">
<rect width="62" height="21" fill="white" transform="translate(0.594238 0.5)"/>
</clipPath>
</defs>
</svg>
