<svg width="89" height="20" viewBox="0 0 89 20" fill="none" xmlns="http://www.w3.org/2000/svg">
<path d="M77.5495 15.817L75.9813 12.7067L74.4112 15.817H77.5495ZM42.3826 8.37338L39.2453 9.92802L42.3826 11.4836V8.37338ZM14.0378 11.8811L15.607 14.9914L17.1771 11.8811H14.0378ZM85.7981 5.25547C85.2738 5.25547 84.7639 5.65106 84.7639 6.25209C84.7639 6.89708 85.2882 7.26209 85.7981 7.26209C86.3668 7.26209 86.8545 6.88275 86.8545 6.27407C86.8545 5.65106 86.3446 5.25547 85.8049 5.25547H85.7981ZM81.4753 8.43548V7.22005H84.0834C83.6179 6.78719 83.6179 6.20814 83.6179 6.03901C83.6179 5.1905 84.2319 4.04004 85.7837 4.04004C87.2612 4.04004 88.0005 5.05768 88.0005 6.09061C88.0005 6.66297 87.72 7.10252 87.4241 7.27069H87.8588V8.43548H81.4753ZM85.828 12.5146C86.2039 12.5146 86.8545 12.2366 86.8545 11.5037C86.8545 11.0718 86.6473 10.8071 86.3967 10.6533C86.2338 10.551 86.0564 10.4994 85.8714 10.4851C85.6873 10.4708 85.5032 10.5071 85.3326 10.5873C85.0521 10.7192 84.7639 10.9973 84.7639 11.5113C84.7639 12.2079 85.3548 12.5146 85.8193 12.5146H85.828ZM87.8588 9.26871V10.4851H87.4155C87.8164 10.7049 88.0005 11.2103 88.0005 11.6862C88.0005 12.9762 86.9808 13.731 85.8049 13.731C84.4603 13.731 83.6179 12.7717 83.6179 11.6862C83.6179 11.0202 83.9427 10.6466 84.1943 10.4851H83.7586V9.26871H87.8588ZM81.4753 15.817V14.6006H87.8588V15.817H81.4753Z" fill="white"/>
<path d="M54.9416 17.4621L55.8573 19.4343C60.2032 16.1387 61.0032 12.458 58.1743 8.51356C55.9334 5.38802 58.3999 2.60838 59.142 1.88599L57.4784 0.566406C56.3912 1.74935 53.5382 5.44631 56.0327 9.16428C58.45 12.7657 58.1994 14.7178 54.9416 17.4621ZM21.1771 17.4621L22.0928 19.4343C26.4387 16.1387 27.2387 12.458 24.4089 8.51356C22.1689 5.38802 24.6344 2.60838 25.3766 1.88599L23.714 0.566406C22.6258 1.74935 19.7728 5.44631 22.2691 9.16428C24.6855 12.7657 24.4349 14.7178 21.1771 17.4621ZM78.7332 4.04072L75.9814 8.76677L73.2277 4.04072H70.9877L75.9814 12.6157L80.9751 4.04072H78.7332ZM33.8488 4.70863C33.0642 4.25189 32.1033 4.04072 30.8242 4.04072H28.0195V15.8176H30.2614V6.26233H30.8242C32.376 6.26233 33.4401 6.64167 33.4401 8.02433C33.4401 9.31525 32.1582 9.88093 30.6729 9.92679C30.6276 9.92775 30.4609 9.92775 30.35 9.9287L31.8392 12.0376C32.5756 11.9086 33.2368 11.6716 33.789 11.3362C33.8295 11.3104 33.87 11.2827 33.9105 11.2559C35.0372 10.5173 35.682 9.34774 35.682 8.02433C35.682 6.57383 35.0305 5.39662 33.8488 4.70863ZM51.5951 11.2559C52.7209 10.5173 53.3657 9.34774 53.3657 8.02433C53.3657 6.57383 52.7142 5.39662 51.5315 4.70863C50.7489 4.25189 49.787 4.04072 48.5079 4.04072H45.7031V15.8176H47.945V6.26233H48.5079C50.0597 6.26233 51.1248 6.64167 51.1248 8.02433C51.1248 9.31525 49.8429 9.88093 48.3576 9.92679C48.3103 9.92775 48.1455 9.92775 48.0347 9.9287L52.1937 15.8176H54.8163L51.5951 11.2559ZM66.7381 9.9287L70.8971 4.04072H68.2735L64.1155 9.9287L68.2735 15.8176H70.8971L66.7381 9.9287ZM64.0258 4.04072H61.7849V15.8176H64.0258V4.04072ZM5.52521 9.9287L9.68421 4.04072H7.06158L2.90259 9.9287L7.06158 15.8176H9.68421L5.52521 9.9287ZM2.81295 4.04072H0.571045V15.8176H2.81295V4.04072ZM43.975 6.26233V4.04072H36.9158V15.8176H43.975V13.596H39.1557V6.26233H43.975ZM21.3593 15.8176H19.1174L15.607 8.35494L12.0977 15.8176H9.85481L15.607 3.58971L21.3593 15.8176Z" fill="white"/>
</svg>
