<svg width="99" height="20" viewBox="0 0 99 20" fill="none" xmlns="http://www.w3.org/2000/svg">
<path d="M44.6012 10.0499C44.6012 13.8025 42.3116 15.5765 39.446 15.5765H37.6946V13.3249H39.3095C41.038 13.3249 42.1902 12.3925 42.1902 10.0499C42.1902 7.73 41.1005 6.5699 39.2583 6.5699C37.4842 6.5699 36.2162 7.66176 36.2162 10.0044V19.4205H33.8281V4.61387H36.2162V5.88771H36.5574C37.3535 4.81875 38.5304 4.34094 39.7586 4.34094C42.3969 4.34094 44.6012 6.25147 44.6012 10.0499ZM28.9061 9.07174L27.3139 8.91251C26.063 8.79881 25.4034 8.45765 25.4034 7.72982C25.4034 6.86556 26.245 6.3652 27.4504 6.3652C28.7014 6.3652 29.4973 6.95652 29.5656 7.79805H31.8628C31.7718 5.66013 30.1115 4.34094 27.4732 4.34094C24.8121 4.34094 23.0153 5.7511 23.0153 7.82082C23.0153 9.54939 24.107 10.6638 26.5862 10.914L28.2009 11.0732C29.179 11.1642 29.8386 11.3689 29.8386 12.3014C29.8386 13.143 29.2244 13.757 27.6096 13.757C26.1226 13.757 25.3899 13.0822 25.1328 12.1777H22.6476C22.8952 14.2453 24.6321 15.8495 27.6096 15.8495C30.4072 15.8495 32.2266 14.3711 32.2266 12.1877C32.2266 10.2544 30.953 9.27645 28.9061 9.07174ZM53.8504 12.1777C53.4757 13.0382 52.5806 13.6889 51.3102 13.6889C49.559 13.6889 48.2626 12.5516 48.2626 10.0952C48.2626 7.75259 49.468 6.45616 51.333 6.45616C52.9933 6.45616 53.9486 7.45693 54.0396 8.95801H49.7409V10.6867H56.3823V9.54939C56.3823 6.38793 54.2898 4.34094 51.3102 4.34094C48.5355 4.34094 45.8744 6.22873 45.8744 10.0952C45.8744 13.9617 48.5355 15.8495 51.3102 15.8495C53.8482 15.8495 55.658 14.2861 56.2203 12.1777H53.8504ZM16.2035 4.34094C13.5879 4.34094 11.6319 5.70577 11.4045 7.79805H13.9745C14.1565 7.02494 14.8616 6.45634 16.2035 6.45634C17.9321 6.45634 18.5007 7.36624 18.5007 8.48056V12.2332C17.5227 13.3478 16.3855 13.8707 15.2482 13.8707C14.0656 13.8707 13.2468 13.3022 13.2468 12.2789C13.2468 11.3006 13.8836 10.6867 15.1118 10.6867H17.0223V8.95801H15.0435C12.3142 8.95801 10.7904 10.3229 10.7904 12.4151C10.7904 14.3711 12.2687 15.8495 14.7024 15.8495C16.067 15.8495 17.2725 15.3038 18.1595 14.644H18.5007V15.5765H20.8888V8.25295C20.8888 5.5464 19.0465 4.34094 16.2035 4.34094ZM0 15.5765H2.38815V0.56543H0V15.5765ZM10.0302 4.61387H7.11892L3.63908 9.18562V10.6185L7.20989 15.5765H10.1666L5.98174 9.89055L10.0302 4.61387ZM96.3617 4.61387L94.4056 8.95801C93.928 10.0044 93.4734 11.0277 93.3368 11.7102H92.9954C92.8589 11.0277 92.3815 10.027 91.9038 8.98092L89.9478 4.61387H87.3095L91.9038 14.4621L89.6294 19.4205H92.1768L99 4.61387H96.3617ZM86.7813 4.61387H83.87L80.3901 9.18562V10.6185L83.9609 15.5765H86.9177L82.7327 9.89055L86.7813 4.61387ZM71.829 9.07174L70.2369 8.91251C68.9859 8.79881 68.3264 8.45765 68.3264 7.72982C68.3264 6.86556 69.1679 6.3652 70.3734 6.3652C71.6243 6.3652 72.4203 6.95652 72.4886 7.79805H74.7857C74.6947 5.66013 73.0344 4.34094 70.3961 4.34094C67.735 4.34094 65.9383 5.7511 65.9383 7.82082C65.9383 9.54939 67.03 10.6638 69.5091 10.914L71.1239 11.0732C72.1019 11.1642 72.7615 11.3689 72.7615 12.3014C72.7615 13.143 72.1474 13.757 70.5325 13.757C69.0455 13.757 68.3128 13.0822 68.0557 12.1777H65.5705C65.8181 14.2453 67.555 15.8495 70.5325 15.8495C73.3301 15.8495 75.1496 14.3711 75.1496 12.1877C75.1496 10.2544 73.8759 9.27645 71.829 9.07174ZM76.751 15.5765H79.1391V0.56543H76.751V15.5765ZM61.003 5.88771H60.6619V4.61387H58.2737V15.5765H60.6619V9.84503C60.6619 7.88905 61.5657 6.75182 63.3457 6.75182H64.8575V4.34094H63.9825C62.3309 4.34094 61.629 4.96386 61.003 5.88771Z" fill="white"/>
</svg>
