<svg width="979" height="570" viewBox="0 0 979 570" fill="none" xmlns="http://www.w3.org/2000/svg">
<g opacity="0.08">
<path d="M805.542 298.238L803.162 306.218L790.249 310.107L786.385 306.062L784.509 306.522L788.013 318.584L793.258 319.108L800.256 321.47V323.833L803.46 323.309L808.129 317.545V312.828L810.757 308.112L813.673 308.636L810.169 302.081L809.633 297.861L805.542 298.238Z" fill="white"/>
<path d="M878.792 320.202L878.41 342.671L882.038 342.496L886.809 337.523L890.818 337.697L893.394 339.757L894.25 346.1L902.453 349.962L904.555 349.272V346.955L897.97 342.064L894.724 335.371L897.3 334.259L895.393 330.572L891.581 330.49L890.622 326.546L880.513 320.46L878.792 320.202Z" fill="white"/>
<path d="M141.687 207.25L146.664 221.234L144.346 222.392L144.603 225.168L148.983 228.175V233.737L154.393 238.37L152.075 224.709L148.983 215.671L149.756 209.42L152.332 209.65L153.363 211.737L152.332 217.06L165.729 240.448V248.787L176.55 260.131L188.401 264.995L193.296 262.448L200.252 267.541L204.374 263.836L202.571 259.663L208.496 258.045L210.299 258.973L212.103 257.355H214.937L220.089 249.246L217.513 247.159L207.466 249.246L205.147 255.268L199.221 256.197L192.265 253.65L189.174 244.852L191.513 233.755L186.731 231.098L184.454 220.443L182.547 219.717L179.064 222.87L175.066 220.967L173.499 213.86L157.66 212.38L149.478 206.892L141.687 207.25Z" fill="white"/>
<path d="M533.576 132.074L527.805 131.891L524.146 133.886L524.095 135.366L526.465 137.361L533.833 138.473L533.576 132.074Z" fill="white"/>
<path d="M488.346 209.144L484.141 207.885L466.643 210.818L462.83 213.401L465.159 224.13L458.203 224.378L454.019 230.381L444.054 232.514L444.085 236.881L476.907 259.268L482.503 259.69L501.165 246.682L499.3 244.585L495.796 244.163L493.694 241.018V228.009L492.293 226.75L492.53 223.394L488.799 220.039L488.335 216.472L489.964 215.423L489.263 211.645L488.346 209.144Z" fill="white"/>
<path d="M461.975 213.548H450.072L447.743 218.163L442.374 220.471L437.943 231.172L429.307 235.787L417.178 253.613L429.08 253.402L429.544 248.162H432.574V241.027H443.075L443.312 231.797L453.349 229.701L457.554 223.615L464.087 223.403L461.975 213.548Z" fill="white"/>
<path d="M417.26 254.349L419.507 256.969L419.043 268.295L422.31 266.199L424.639 265.776L427.906 266.825L431.636 271.44L435.14 269.344L452.174 269.132L447.97 243.749L452.484 243.73L444.075 237.984L444.085 241.717L433.44 241.726L433.388 248.851L430.327 248.842L429.936 254.101L417.26 254.349Z" fill="white"/>
<path d="M422.64 266.908L418.579 269.537L417.652 271.008L417.363 272.479L418.858 273.435L423.845 273.371L427.05 272.598L427.411 274.005L427.122 275.862L430.183 277.204L430.822 277.848L434.882 277.977L435.026 276.377L431.317 272.405L427.184 267.413L424.618 266.457L422.64 266.908Z" fill="white"/>
<path d="M419.311 274.28L419.177 275.301L426.308 275.209L426.669 274.262L426.514 273.306L424.464 274.05L419.311 274.28Z" fill="white"/>
<path d="M419.208 276.009L420.486 278.776L421.197 277.066L429.863 277.875L426.112 276.156L419.208 276.009Z" fill="white"/>
<path d="M421.073 279.971L422.516 282.517L426.566 279.41L426.607 278.454L421.836 277.838L421.073 279.971Z" fill="white"/>
<path d="M422.949 283.106L426.082 287.409L430.162 284.246L434.346 284.08L437.829 288.208L440.787 289.946L441.9 288.015L442.889 287.519L442.817 283.271L440.849 278.233L434.81 278.831L427.339 278.298L427.298 280.008L422.949 283.106Z" fill="white"/>
<path d="M426.566 287.878L432.388 292.898L436.541 288.402L433.944 284.771L430.369 285.092L426.566 287.878Z" fill="white"/>
<path d="M432.996 293.449L444.311 300.197L444.044 295.086L440.622 291.491L437.283 288.853L432.996 293.449Z" fill="white"/>
<path d="M445.259 300.4L449.67 297.614L455.153 296.759L460.748 297.835L457.894 293.982L457.059 291.629L457.894 284.669L452.896 284.881L450.628 282.95L445.867 283.061L443.6 283.382L443.837 288.089L442.642 288.521L441.209 290.875L444.899 294.727L445.259 300.4Z" fill="white"/>
<path d="M432.265 271.982L435.439 270.042L453.081 269.95L449 244.631L453.658 244.512L476.196 259.856L479.226 260.242L478.082 268.774L463.912 269.923L452.978 277.204L450.989 282.187L443.394 282.472L441.457 277.498L435.634 277.866L435.861 276.239L432.265 271.982Z" fill="white"/>
<path d="M464.345 270.548L468.096 270.281L474.248 278.041L468.539 281.884L464.407 280.937L458.852 281.001L457.956 283.906L453.298 284.108L452.02 282.555L453.669 277.829L464.345 270.548Z" fill="white"/>
<path d="M474.959 277.646L477.587 277.59L479.957 274.419L483.935 273.784L488.171 276.092L497.208 276.322L504.195 273.784L506.823 271.771L507.019 269.123L511.893 264.738L513.182 255.057L509.977 249.063L501.774 247.279L482.791 260.481L480.102 260.251L478.947 269.417L469.26 270.282L474.959 277.646Z" fill="white"/>
<path d="M457.904 291.482L459.058 293.899L462.067 298.11L463.737 298.055L468.292 295.747L467.972 282.61L464.448 281.69L459.512 281.81L457.904 291.482Z" fill="white"/>
<path d="M469.116 295.342L471.878 293.899L471.816 284.384L470.023 281.791L468.869 282.655L469.116 295.342Z" fill="white"/>
<path d="M472.713 293.725H474.897L475.021 288.19L477.783 284.614L477.659 278.39L475.155 278.335L470.858 281.332L472.651 284.384L472.713 293.725Z" fill="white"/>
<path d="M475.66 293.615L479.7 293.789L484.574 298.634L486.944 299.213L488.799 298.404L491.623 298.055L492.581 294.543L496.425 292.291L500.589 292.116L508.214 279.604L508.091 276.781L504.566 274.363L497.518 277.131L488.088 277.011L483.595 274.474L480.39 275.108L478.721 277.701L478.597 285.019L475.907 288.42L475.66 293.615Z" fill="white"/>
<path d="M489.407 208.997L495.106 206.947L496.982 208.032L497.054 209.356L496.178 210.376L496.312 212.188L497.188 212.61V215.865L496.178 217.373L496.312 218.338L500.135 219.542L497.054 223.817L495.848 223.753L495.642 227.191L494.302 227.375L493.158 226.474L493.426 222.981L489.675 219.726L489.201 216.895L491.015 215.626L489.407 208.997Z" fill="white"/>
<path d="M494.704 228.027L496.312 227.788L496.786 224.479H497.59L500.877 219.661L508.987 221.766L511.203 224.837L519.179 228.092L523.332 226.529L522.93 224.966L521.116 223.403L521.323 222.318L524.27 220.093H530.103L532.318 222.741L537.007 223.348L537.615 257.263L534.132 257.143L513.089 247.38L510.811 248.529L502.165 246.598L499.816 243.831L496.394 243.408L494.653 240.641L494.704 228.027Z" fill="white"/>
<path d="M537.863 223.459L540.614 223.523L545.973 224.847L548.518 224.911L551.672 222.558H553.145L555.825 223.881H559.215L559.823 223.845L561.967 229.342L562.575 231.117L563.141 233.774L562.131 234.436L560.39 233.654L558.38 227.807L556.567 227.688L556.433 229.673L557.638 233.112L567.294 243.776L567.5 248.355L564.687 251.251L538.264 250.984L537.863 223.459Z" fill="white"/>
<path d="M507.833 272.129L507.967 269.417L512.852 265.179L514.161 254.771L510.904 249.219L513.182 248.18L535.235 258.43L535.101 268.488L531.216 271.439V276.625L533.761 281.019H529.268L521.828 287.583L521.632 289.569L516.139 289.505L516.067 290.406L512.934 290.038L510.791 286.425L509.183 285.717L509.389 284.614L511.409 283.235V276.781L508.616 276.395L505.247 274.161L507.833 272.129Z" fill="white"/>
<path d="M565.845 285.312L562.812 280.768L562.494 277.462L561.766 277.586L561.568 278.604L557.593 283.784L554.421 282.434L551.257 284.799L544.712 284.463L541.815 282.398L537.659 284.296L537.502 285.56L536.234 286.241L548.93 297.898L555.846 298.248L556.854 299.618L566.749 299.774L566.83 297.797L567.675 296.427L570.974 296.05L566.862 290.728H563.833L563.06 286.948L565.491 285.993L565.845 285.312Z" fill="white"/>
<path d="M568.85 248.786L565.048 252.207L538.46 251.995L538.748 258.035L536.214 257.971L536.029 268.847L532.184 271.799L532.029 276.34L534.803 281.222L537.842 282.822L537.796 283.203L541.938 281.31L545.098 283.562L550.909 283.86L554.266 281.351L557.241 282.616L560.59 278.25L560.872 276.801L563.424 276.369L563.821 280.479L566.373 284.303L572.56 272.433V265.216L577.054 260.49L568.85 248.786Z" fill="white"/>
<path d="M492.406 298.129L495.725 300.85L495.488 305.061L513.687 304.684L515.171 303.194L509.956 298.184L509.183 296.373L512.501 290.829L510.245 287.152L508.348 286.241V284.375L510.543 283.097L510.667 277.287L508.926 277.112L508.895 280.165L501.248 292.898L496.57 293.109L493.365 295.076L492.406 298.129Z" fill="white"/>
<path d="M573.704 270.934L573.447 265.519L577.528 261.271L578.63 262.025L580.64 268.02L590.286 274.427L588.534 276.349L581.474 270.934H573.704Z" fill="white"/>
<path d="M588.925 277.222L588.338 280.312L592.419 280.256L592.48 275.715L590.986 274.896L588.925 277.222Z" fill="white"/>
<path d="M566.264 286.618L573.766 271.725L581.217 271.761L587.823 276.882L587.359 281.102H592.481L593.006 283.639L601.292 288.062L606.403 288.291L596.685 297.604L583.34 301.273H580.032L574.137 296.786L571.808 295.913L567.295 289.983L564.316 290.02L563.966 287.298L566.264 286.618Z" fill="white"/>
<path d="M593.315 280.44L597.52 282.996L598.767 282.941L609.206 279.741L610.391 283.152L609.556 286.03L607.299 287.629L601.662 287.307L593.593 282.885L593.315 280.44Z" fill="white"/>
<path d="M617.924 275.484L620.119 277.672L623.087 276.073L624.159 275.751L622.798 274.574L620.191 275.264L617.924 275.484Z" fill="white"/>
<path d="M610.041 279.53L614.544 277.985L616.141 278.84L615.966 282.407L611.813 292.962L589.337 314.438L586.73 312.838L586.555 303.773L589.935 300.307L597.108 298.331L607.629 288.42L610.381 286.232L611.154 283.033L610.041 279.53Z" fill="white"/>
<path d="M510.791 297.917L515.593 302.55L517.489 300.362L520.509 300.473L521.158 298.34L524.126 296.685L530.288 300.473L533.844 297.328L547.642 297.871L534.843 286.085L536.564 285.129L536.801 283.051L533.895 281.828H529.629L522.755 287.905L522.518 290.406L517.067 290.249L516.891 291.316L513.336 290.994L510.131 296.427L510.791 297.917Z" fill="white"/>
<path d="M485.11 309.961L486.295 309.428L487.181 310.071L486.295 311.294L485.223 310.917L485.11 309.961Z" fill="white"/>
<path d="M487.49 306.605L489.273 306.338L489.871 307.349L488.985 308.204L488.099 308.094L487.49 306.605Z" fill="white"/>
<path d="M491.396 301.006L490.922 302.817L492.344 303.507L493.705 302.597L493.231 300.73L491.396 301.006Z" fill="white"/>
<path d="M501.238 305.805L501.114 308.094L495.302 307.984L491.747 314.116L500.104 322.271L502.175 320.726L502.114 319.127L500.691 318.538V317.417L503.896 315.606L506.741 317.527L509.884 317.582L509.822 307.938L504.845 307.727L504.783 305.704L501.238 305.805Z" fill="white"/>
<path d="M495.673 305.86L495.611 307.138L500.289 307.35L500.228 305.906L495.673 305.86Z" fill="white"/>
<path d="M505.989 305.704L505.927 307.037L510.853 307.148L511.028 318.557L506.524 318.446L503.917 316.635L501.897 317.647L501.805 318.152L502.845 318.603L503.144 320.947L500.362 323.08L500.96 324.202L504.041 322.069H505.525L505.999 323.347L507.957 324.091L514.243 319.347L514.119 315.881L515.428 313.059L519.458 310.393L520.54 301.374L517.675 301.383L514.356 305.438L505.989 305.704Z" fill="white"/>
<path d="M501.403 324.744L503.196 326.822L505.515 324.863L504.835 322.832L504.257 322.795L501.403 324.744Z" fill="white"/>
<path d="M504.319 327.023L514.944 326.858L517.097 329.588L517.015 331.602L517.808 332.245H523.085L524.6 329.588H526.753L527.629 330.379L530.587 330.305L531.463 339.572L536.574 339.72V340.437L550.311 345.962L550.95 347.038H553.825L553.506 343.158L548.312 340.933L548.632 337.991L550.868 333.321L555.979 333.174L551.589 320.174L551.672 314.649L558.617 304.959L558.7 303.598L557.659 303.092L557.7 300.463L556.433 300.362L555.155 298.909L534.183 298.064L530.34 301.401L524.043 297.705L521.827 298.919L520.22 310.99L516.242 313.729L515.047 316.157L515.263 319.751L508.091 324.982L506.184 324.21L506.442 325.212L504.319 327.023Z" fill="white"/>
<path d="M554.238 312.488L557.134 314.869L557.01 317.416L552.517 317.499V314.686L554.238 312.488Z" fill="white"/>
<path d="M552.579 318.29L556.979 318.207L555.835 321.645L554.722 322.51H553.362L552.393 320.184L552.579 318.29Z" fill="white"/>
<path d="M554.732 311.744L557.855 314.355L559.813 313.242L565.11 312.47L566.017 312.553L566.357 310.76L569.345 305.152L566.831 300.481L558.679 300.527L558.628 302.449L559.72 303.387L559.555 305.308L554.732 311.744Z" fill="white"/>
<path d="M567.645 300.187L570.386 304.959L567.099 311.109L566.666 312.976L583.082 322.031L588.173 314.897L585.597 313.031L585.545 303.635L588.771 300.491L583.629 302.017L579.743 302.063L573.663 297.484L571.747 296.749L568.191 297.043L567.563 297.981L567.645 300.187Z" fill="white"/>
<path d="M567.377 341.466L585.38 339.499L581.33 332.512L581.114 325.819L582.422 322.62L565.295 313.021L559.926 313.812L558.061 315.044L557.896 317.848L556.69 321.737L555.433 323.07L553.63 323.217L557.082 333.891L562.719 336.254L566.604 336.355L567.377 341.466Z" fill="white"/>
<path d="M530.257 353.676L533.524 357.721L538.584 357.997L540.377 358.879L545.674 358.934L550.239 353.225L562.997 348.132L564.11 343.645L562.626 337.219L555.969 333.836L551.527 334.112L549.312 338.488L549.374 340.483L554.609 342.754L554.918 347.691L550.414 347.911L549.302 346.247L536.791 341.485L536.42 345.144L530.505 345.31L530.257 353.676Z" fill="white"/>
<path d="M503.536 327.943L507.05 339.647L506.967 343.343L501.825 348.27L501.052 356.278L520.838 356.434L527.269 358.512L532.576 357.896L529.484 354.439L529.495 344.565L535.575 344.336V340.483L530.639 340.3L529.649 331.18L527.568 331.207L526.444 330.306L525.218 330.361L523.59 333.175H517.324L515.871 331.869L516.304 330.021L514.593 327.787L503.536 327.943Z" fill="white"/>
<path d="M563.863 348.803L567.068 351.791L567.006 355.615L567.624 357.224L571.88 353.124L571.386 347.911L569.108 346.357L567.078 337.21L563.564 337.1L565.161 343.691L563.863 348.803Z" fill="white"/>
<path d="M557.69 379.951L560.462 382.001L566.996 378.453L568.047 373.185V364.488L578.527 356.839L580.32 356.894L586.668 351.46L585.679 340.263L568.851 342.157L569.345 345.54L572.241 347.535L572.921 353.63L567.253 358.567L565.893 355.8L566.14 352.141L562.873 348.978L554.856 352.306L562.317 355.689L562.564 365.554L557.628 372.091L557.69 379.951Z" fill="white"/>
<path d="M540.676 360.663L549.92 369.976L557.01 371.585L561.76 364.938L561.389 356.131L553.681 352.582L550.785 353.75L546.467 359.624L540.49 359.569L540.676 360.663Z" fill="white"/>
<path d="M511.708 387.931L515.16 388.152L517.19 389.981L522.003 390.036L523.178 377.846V369.866L526.259 369.314L527.434 360.948L535.266 360.727L538.038 358.677L533.349 358.512L527.001 359.284L520.158 357.068H500.928L501.423 361.941L507.833 370.362L506.72 374.683L506.782 376.954L511.708 387.931Z" fill="white"/>
<path d="M524.033 378.066L526.249 378.673L525.939 384.327L528.217 384.603L533.452 380.392L539.738 380.999L541.408 377.229L549.363 370.748L539.81 360.938L539.687 359.33L538.636 359.054L535.74 361.435L528.217 361.6L527.166 369.966L524.208 370.573L524.033 378.066Z" fill="white"/>
<path d="M557.381 380.613L554.794 380.999L553.681 383.711L555.66 385.32H558.061L560.091 382.719L557.381 380.613Z" fill="white"/>
<path d="M543.51 391.084L546.653 388.924L548.137 388.979L549.93 390.974L549.745 392.969L546.725 393.962V394.734L543.397 394.569L542.593 392.408L543.51 391.084Z" fill="white"/>
<path d="M550.466 371.079L542.325 377.79L540.387 381.937L533.936 381.22L528.567 385.476L525.002 385.164L525.29 379.28L524.023 378.884L523.136 390.919L516.809 390.864L514.903 388.859L512.11 388.832L514.655 395.35L519.2 399.184L515.954 402.558L518.056 406.787L522.92 408.442L526.795 405.5L537.894 405.555L538.687 404.672L543.613 403.9L560.276 389.098L560.215 384.437L558.432 386.497H555.763L552.517 384.07L554.165 380.411L556.999 379.896L556.742 372.375L550.466 371.079ZM546.56 388.087L548.116 388.032L550.641 390.478L550.569 393.309L547.611 394.642L547.426 395.58L542.912 395.626L541.5 392.592L542.789 390.367L546.56 388.087Z" fill="white"/>
<path d="M330.933 46.0319L329.531 48.0269L332.056 50.2793L330.933 52.5317L334.581 56.7791L339.064 55.5288L344.948 55.0324L351.677 61.5322L356.16 72.2795L352.522 79.0275L357.562 78.2737L360.365 79.7722L360.643 83.0267L354.48 83.2749L357.84 86.272L362.044 87.0259L352.801 98.0214L351.677 104.769L353.635 110.267L352.234 113.522L354.759 120.518L359.52 125.271L360.921 125.023L364.002 124.269L364.281 128.268L366.239 130.769L369.876 130.521L372.679 121.272L381.089 112.023L393.702 107.528L401.544 98.7753L405.182 100.274H412.746L418.909 94.7761L426.473 92.0272L427.318 87.7798L422.557 84.0288L418.352 82.7785L416.106 77.529L421.434 74.7801L429.843 78.7793L432.646 76.0304L428.163 73.778L437.695 62.2769L436.016 57.2756L431.533 57.0274L433.213 52.5317L438.819 50.2793L450.309 41.2788L446.95 38.0335L434.058 39.0356L427.328 45.039L431.255 37.2888L426.772 36.2867L424.247 40.2859L420.609 37.537L410.52 38.5391L413.323 34.5399L429.853 34.0435L425.649 29.0422L407.717 26.0451L400.432 27.0472L400.71 30.3017L393.146 28.0493L393.424 25.7969L388.096 26.799L386.973 29.2996L392.579 31.0464L386.695 34.7974L382.49 30.5499L376.606 29.0514L375.761 33.0506H369.876L367.63 28.8032L358.386 27.5528L353.347 29.8053L353.068 32.8024L346.628 32.0485L342.701 33.547L342.98 37.0498V38.7966L335.694 40.0469L332.334 38.0519L330.088 41.2972L333.447 44.5517L340.455 43.7978L341.011 45.802L335.683 48.0545L330.933 46.0319Z" fill="white"/>
<path d="M353.357 85.0312L355.037 87.2837L354.192 90.0325H352.512L350.266 87.7801L350.822 86.0333L353.357 85.0312Z" fill="white"/>
<path d="M423.412 78.7793L428.173 80.0296L427.895 83.5324L422.856 81.2799L421.733 80.0296L423.412 78.7793Z" fill="white"/>
<path d="M784.406 393.466L784.045 416.799L780.026 419.428L779.665 421.727L785.148 425.009L798.679 422.71H805.624L808.18 419.419L823.535 416.79L834.5 419.75L833.768 423.694L835.231 427.638L843.64 426.323L844.001 428.291L838.519 431.904L840.343 433.219L844.362 431.904L843.269 442.752L850.947 448.011L855.337 446.696L857.532 448.664L870.331 447.018L882.399 429.596L886.789 428.613L895.558 414.151L897.753 401.666L892.271 395.424L894.466 394.109L890.076 381.946L885.325 378.986L886.057 362.557L881.667 359.597L880.575 350.394H878.379L871.063 372.082L867.044 372.412L857.903 364.193L863.025 352.03L853.523 350.385L842.919 353.014L839.992 360.571L835.242 361.555L834.881 356.296L815.507 366.814L815.868 370.758L812.941 374.371H805.624L789.899 380.282L784.406 393.466Z" fill="white"/>
<path d="M850.947 456.239L849.123 462.813L849.484 467.409L854.966 467.078L861.18 458.538L850.947 456.239Z" fill="white"/>
<path d="M940.891 443.092L941.984 453.94L940.52 458.868L935.038 462.481L935.399 466.756V471.353L936.862 472.998L951.856 461.497V458.868H948.198L943.076 443.423L940.891 443.092Z" fill="white"/>
<path d="M929.926 466.757L932.853 471.685L924.805 478.589L924.073 482.202L918.591 482.855L909.45 490.412L901.041 486.799L900.309 484.169L915.664 478.258L929.926 466.757Z" fill="white"/>
<path d="M934.316 386.561L933.956 388.206L938.706 394.118L941.262 395.101L941.623 392.803L934.316 386.561Z" fill="white"/>
<path d="M744.535 291.959L744.246 294.055L751.244 304.545H753.284L767.866 326.306L773.699 326.83L776.615 319.227L771.947 316.607L771.071 312.415L744.535 291.959Z" fill="white"/>
<path d="M787.467 306.071L790.579 309.28L802.512 305.593L804.872 297.466L810.19 297.126L815.054 293.982L808.747 289.881L807.304 287.629L804.192 292.75L805.336 295.692L803.44 298.146L799.864 297.328L791.197 303.001L791.424 306.283L787.467 306.071Z" fill="white"/>
<path d="M803.574 293.504L800.606 296.713L803.038 297.393L804.408 295.683L803.574 293.504Z" fill="white"/>
<path d="M813.631 320.956L815.96 323.502L814.445 327.327V328.053H817.887L819.103 318.492L820.216 318.767L822.236 327.501L824.163 327.961L825.987 324.228L824.163 318.584L822.648 316.129L827.409 313.031L826.296 311.661L821.742 314.299H820.526L818.3 311.385L819.011 310.107L822.762 308.471L828.43 310.015L830.151 309.923L834.407 306.375L832.686 304.83L828.739 307.561H826.204L822.36 305.924L819.629 306.016L816.589 310.383L814.662 317.94L813.631 320.956Z" fill="white"/>
<path d="M839.044 303.847L837.117 308.03L840.157 311.578H841.167L842.486 309.216L843.197 308.398L841.878 307.12L839.951 306.485L839.044 303.847Z" fill="white"/>
<path d="M845.021 317.591L840.868 318.409L839.652 319.595L840.662 321.139L843.393 320.229L845.114 319.319L847.649 321.139L848.762 320.321L846.742 318.133L845.021 317.591Z" fill="white"/>
<path d="M776.162 329.423L773.328 331.151L773.936 332.604L782.953 334.424L787.508 335.15L789.435 336.971L794.598 337.339L797.03 339.159L799.256 338.699L801.286 337.063L797.535 335.518L794.299 333.063L785.89 331.243L776.162 329.423Z" fill="white"/>
<path d="M805.634 337.339L803.408 338.433L804.728 339.711L807.963 338.617L805.634 337.339Z" fill="white"/>
<path d="M809.478 336.521L809.88 338.25L812.209 338.792L813.116 337.79L812.106 336.42L809.478 336.521Z" fill="white"/>
<path d="M815.054 341.071L812.22 341.439L814.755 343.351H816.775L815.054 341.071Z" fill="white"/>
<path d="M815.858 338.065L815.25 339.159L819.805 339.794L823.35 337.973L821.33 337.431L818.094 338.249L816.878 337.339L815.858 338.065Z" fill="white"/>
<path d="M830.749 338.709L825.483 342.625L825.988 343.628L828.214 343.26L830.841 341.072L836.004 340.437L834.994 338.893L830.749 338.709Z" fill="white"/>
<path d="M907.358 320.854L906.451 322.004L911.408 325.92L912.088 328.219L913.438 328.081L913.593 325.718L912.088 324.504L907.358 320.854Z" fill="white"/>
<path d="M909.841 326.398L908.862 326.601L908.265 328.963L906.389 330.048L900.752 330.931L900.979 332.825L906.915 332.558L910.676 330.462L910.449 326.812L909.841 326.398Z" fill="white"/>
<path d="M916.53 330.517L917.807 333.689L920.064 335.647L920.744 335.105L920.518 333.008L917.962 330.241L916.53 330.517Z" fill="white"/>
<path d="M922.764 335.243L922.919 337.339L924.351 338.553L925.701 337.808L924.496 335.574L922.764 335.243Z" fill="white"/>
<path d="M924.568 340.446L923.362 341.595L924.64 343.692L926.145 344.096L926.073 342.68L924.568 340.446Z" fill="white"/>
<path d="M927.505 339.232L928.556 341.531L930.586 343.691L931.709 342.073L930.205 339.775L927.505 339.232Z" fill="white"/>
<path d="M932.771 342.681L933.368 345.521L934.801 347.277L936.007 345.053L932.771 342.681Z" fill="white"/>
<path d="M934.419 349.033L933.894 349.842L935.625 351.874L936.831 351.938L936.078 349.3L934.419 349.033Z" fill="white"/>
<path d="M930.586 353.078L928.783 353.823L930.359 355.781L931.709 355.101L930.586 353.078Z" fill="white"/>
<path d="M948.981 365.187L947.703 366.713L948.239 368.432L948.878 368.818L950.042 367.476L948.981 365.187Z" fill="white"/>
<path d="M949.62 369.866L949.723 371.107L951.104 371.493L952.062 371.015L951.104 369.673L949.62 369.866Z" fill="white"/>
<path d="M951.64 380.953L951.001 381.817L951.959 382.773L953.556 382.295L951.64 380.953Z" fill="white"/>
<path d="M977.578 379.041L976.3 380.567L976.197 382.286L977.681 383.629L977.578 379.041Z" fill="white"/>
<path d="M813.467 273.536L812.58 275.044L812.086 276.901L807.16 282.481L807.459 283.631L809.53 283.364L815.93 276.984L813.467 273.536Z" fill="white"/>
<path d="M821.443 271.412L821.34 276.018L823.215 277.7L823.906 280.973L825.781 281.332L826.668 279.291L825.194 278.316L824.802 272.561L821.443 271.412Z" fill="white"/>
<path d="M826.771 273.187L826.668 277.259L827.75 278.85L829.625 276.901L829.131 273.361L826.771 273.187Z" fill="white"/>
<path d="M827.946 269.638L829.821 271.853L830.707 273.977H832.387L832.088 270.345L830.213 269.196L827.946 269.638Z" fill="white"/>
<path d="M831.594 277.967L831.985 280.624L828.533 283.106L825.678 283.373L822.628 286.296L822.731 287.629L825.586 286.829L827.554 285.68L829.234 289.486L832.191 291.343L833.376 290.985L834.458 289.836L832.098 287.712L833.479 286.737L835.056 287.887L836.138 286.296L835.056 284.347L834.86 280.008L831.594 277.967Z" fill="white"/>
<path d="M815.538 250.956L812.879 252.638L812.581 257.952L816.723 265.123L818.104 266.098L819.877 265.031L822.927 265.473L823.514 267.863L825.781 268.038L826.864 266.714L825.483 265.031L823.803 263.616L820.258 263.266L818.382 260.517L820.546 257.594L820.742 255.029L819.269 251.756L815.538 250.956Z" fill="white"/>
<path d="M816.919 266.806L817.702 269.288L819.083 270.088L820.072 268.939L818.496 266.99L816.919 266.806Z" fill="white"/>
<path d="M783.025 248.382L780.562 248.998L778.789 250.947L780.263 253.512L782.427 253.687L784.89 251.737L785.478 249.172L783.025 248.382Z" fill="white"/>
<path d="M811.498 228.285L807.85 230.767L807.654 235.548L810.808 238.821L811.591 238.205L811.498 228.285Z" fill="white"/>
<path d="M827.75 198.967L826.07 200.475L826.761 202.598L828.234 202.69L829.223 207.296L830.409 208.445L832.48 206.763L833.366 203.747L830.8 200.475L827.75 198.967Z" fill="white"/>
<path d="M836.818 195.961L833.964 198.351L833.86 201.1L834.551 201.9L838.395 198.976L838.096 196.053L836.818 195.961Z" fill="white"/>
<path d="M832.871 190.288L827.842 195.427L828.729 196.668L831.192 196.935L835.819 193.745L839.075 193.212L842.033 196.31L844.3 195.602L845.186 192.586L849.422 192.494L853.564 188.063L851.4 180.708L850.411 176.81L852.575 175.22L847.649 168.582L846.371 168.674L843.712 171.331V173.547L844.898 174.788L845.289 180.635L842.239 184L840.466 183.025L839.085 185.774L838.787 188.339L839.869 189.847L839.178 190.996L836.911 189.313H835.334L833.953 190.021L832.871 190.288Z" fill="white"/>
<path d="M841.353 150.26L839.776 151.501L840.569 154.158L841.95 155.399L841.847 159.472L840.075 160.088L838.694 162.837L842.734 167.792L845.392 166.992L845.887 165.751L843.032 163.452L844.805 161.412L846.68 161.678L848.154 163.094L848.257 160.17L852.297 157.247L854.564 156.714L852.688 153.882L851.802 152.641L850.329 153.523L849.051 154.939L846.289 154.406L843.434 152.724L841.353 150.26Z" fill="white"/>
<path d="M856.223 147.511L853.461 150.968L853.657 152.65L855.038 152.117L858.284 148.485L856.223 147.511Z" fill="white"/>
<path d="M859.871 142.464L858.882 144.854L858.985 146.444L860.664 145.47L862.241 142.638V141.581L859.871 142.464Z" fill="white"/>
<path d="M865.683 121.383L864.406 122.799L864.509 125.014L865.694 124.922L867.662 121.824L865.683 121.383Z" fill="white"/>
<path d="M863.323 126.788V130.686L864.704 131.127L865.694 129.711V126.705L863.323 126.788Z" fill="white"/>
<path d="M823.02 112.704L822.927 118.377L830.903 129.363L833.758 138.924L838.787 147.428L840.755 148.044L842.435 146.803L843.218 144.762L836.025 137.766L836.221 134.134L837.797 133.518L838.189 131.395L824.102 113.596L823.02 112.704Z" fill="white"/>
<path d="M878.596 95.0801L876.627 95.2548L877.813 96.7625L880.276 98.2702L880.966 97.5623L878.596 95.0801Z" fill="white"/>
<path d="M882.429 96.1465L882.728 97.6542L885.778 98.4541L886.077 97.3876L882.429 96.1465Z" fill="white"/>
<path d="M899.176 101.929L900.464 103.988L902.607 103.859L903.04 102.444L899.176 101.929Z" fill="white"/>
<path d="M920.786 105.147L922.507 107.978L923.795 106.691V104.761L920.786 105.147Z" fill="white"/>
<path d="M935.522 96.1367L933.09 98.9683L933.657 100.255L936.666 98.5822L936.955 96.909L935.522 96.1367Z" fill="white"/>
<path d="M947.682 87.2656L945.539 89.5824L947.827 90.3547L947.682 87.2656Z" fill="white"/>
<path d="M950.692 83.4043L949.259 85.4636L949.403 87.523L951.403 86.7507L950.692 83.4043Z" fill="white"/>
<path d="M908.192 35.2939L905.76 36.7097L905.183 38.5117L906.327 39.6701L908.904 38.8978L911.48 39.6701L912.912 40.0562L912.768 35.8088L908.192 35.2939Z" fill="white"/>
<path d="M71.2815 49.0479L74.8471 54.9961L77.1349 54.5364V52.477L71.2815 49.0479Z" fill="white"/>
<path d="M80.8859 3.05176L76.8772 6.29708L78.0829 8.6966L80.2264 7.37273L81.4321 8.57708L85.4306 7.2624L85.2966 5.22144L80.8859 3.05176Z" fill="white"/>
<path d="M51.1759 101.368L51.0007 104.135L53.2267 103.676V102.444L51.1759 101.368Z" fill="white"/>
<path d="M47.7546 102.6L43.3027 104.604L43.9932 106.755L45.7039 105.523L49.1252 104.135L47.7546 102.6Z" fill="white"/>
<path d="M29.2567 105.211L26.1754 104.595L25.6602 105.827L26.0002 108.134L29.2567 105.211Z" fill="white"/>
<path d="M22.7438 105.064L19.8274 103.988L18.7969 105.68L20.6827 107.371L22.7438 105.064Z" fill="white"/>
<path d="M12.6445 102.6L11.2739 100.908L9.90332 101.368V103.675L11.4491 104.595L12.6445 102.6Z" fill="white"/>
<path d="M1.51489 91.6689L3.22557 92.7446L2.7103 93.9765H1.51489V91.6689Z" fill="white"/>
<path d="M641.771 459.328L641.616 463.272L647.738 464.541L649.149 461.296L646.954 461.856L644.131 462.417L643.347 459.457L641.771 459.328Z" fill="white"/>
<path d="M631.723 366.813L630.156 368.643L630.466 370.62L633.763 368.22L631.723 366.813Z" fill="white"/>
<path d="M625.921 369.921L623.572 370.059L623.417 371.888L624.983 372.173L627.333 371.19L625.921 369.921Z" fill="white"/>
<path d="M610.381 342.846L608.186 347.498L604.424 353.418L597.839 353.841L595.016 356.801L595.49 365.829L591.409 370.059L591.883 377.248L595.335 380.769L599.416 380.346L603.497 377.662L602.559 373.433L611.968 358.907L610.082 357.077L611.968 353.556L614.008 354.117L614.637 352.71L612.751 345.521L611.648 342.561L610.381 342.846Z" fill="white"/>
<path d="M595.325 341.292L595.799 342.699L597.839 342.984L598.622 341.154L595.325 341.292Z" fill="white"/>
<path d="M598.303 344.114L599.086 345.668H600.343L600.972 343.691L598.303 344.114Z" fill="white"/>
<path d="M620.737 329.441L620.109 330.572L621.83 331.841L623.087 330.572L620.737 329.441Z" fill="white"/>
<path d="M629.528 320.983L627.642 322.114L629.054 324.091H630.94L629.528 320.983Z" fill="white"/>
<path d="M630.311 325.921L629.054 327.19L629.992 328.458L631.713 328.743L631.867 326.059L630.311 325.921Z" fill="white"/>
<path d="M676.438 294.893L676.747 297.292L678.468 297.853L678.777 295.738L676.438 294.893Z" fill="white"/>
<path d="M678.633 299.967L678.478 302.927L679.735 303.488L680.838 301.511L678.633 299.967Z" fill="white"/>
<path d="M678.952 305.75L677.849 306.734L679.107 307.717L680.673 306.734L678.952 305.75Z" fill="white"/>
<path d="M384.016 199.519L382.614 200.778L385.128 202.038L385.407 200.282L384.016 199.519Z" fill="white"/>
<path d="M391.569 198.765L389.889 199.767L391.291 200.769L393.527 200.263L391.569 198.765Z" fill="white"/>
<path d="M392.682 202.285L391.847 204.299L392.96 205.558L394.362 204.556L392.682 202.285Z" fill="white"/>
<path d="M399.391 206.303L398.834 207.562L399.669 208.316L401.905 207.057L399.391 206.303Z" fill="white"/>
<path d="M420.64 217.354L419.527 218.613L420.64 219.873L422.32 219.119L420.64 217.354Z" fill="white"/>
<path d="M428.307 233.268L426.504 234.196L427.339 234.95L428.307 233.268Z" fill="white"/>
<path d="M422.042 233.442L419.805 233.948L420.918 235.456H422.598L422.042 233.442Z" fill="white"/>
<path d="M416.724 231.935L415.323 233.194L417.281 234.702L418.394 232.44L416.724 231.935Z" fill="white"/>
<path d="M399.391 267.109L397.433 268.111L398.834 269.114L400.514 268.36L399.391 267.109Z" fill="white"/>
<path d="M404.203 269.132L402.925 270.143L403.832 271.642L406.017 270.768L404.203 269.132Z" fill="white"/>
<path d="M401.411 271.973L399.772 272.846L401.534 274.951L402.925 274.299L401.411 271.973Z" fill="white"/>
<path d="M285.044 260.518L283.498 261.088L284.044 262.31L285.858 261.253L285.497 260.922L285.044 260.518Z" fill="white"/>
<path d="M287.589 261.906L286.682 263.625L287.774 264.931L289.135 263.874L287.589 261.906Z" fill="white"/>
<path d="M290.681 266.641L289.588 267.542L290.402 269.012L291.948 268.608L290.681 266.641Z" fill="white"/>
<path d="M290.588 270.317L289.856 271.706L291.041 272.846L292.587 272.11L290.588 270.317Z" fill="white"/>
<path d="M290.681 273.83L289.413 274.648L290.413 276.285L292.051 275.467L290.681 273.83Z" fill="white"/>
<path d="M289.135 277.011L287.95 278.068L288.403 278.721H289.856L290.31 277.654L289.135 277.011Z" fill="white"/>
<path d="M290.856 280.201L289.763 281.102L288.578 281.268V282.573L290.763 284.366L291.67 283.06L292.216 281.589L292.031 280.367L290.856 280.201Z" fill="white"/>
<path d="M279.324 258.394L276.604 257.576L274.419 258.799L275.511 259.939L279.232 260.426L279.324 258.394Z" fill="white"/>
<path d="M258.528 253.172L256.807 254.744L258.775 255.461L259.064 257.658L254.705 257.999L255.148 260.113L256.416 260.196L257.147 259.221L262.238 259.368L263.155 260.94L264.33 259.709L267.762 258.881L270.781 259.451L271.131 257.824L265.69 254.652L262.166 253.475L258.528 253.172Z" fill="white"/>
<path d="M271.142 257.824L265.69 254.643L263.114 253.861L262.248 259.377L263.155 260.931L264.34 259.708L267.793 258.89L270.791 259.46L271.142 257.824Z" fill="white"/>
<path d="M258.518 253.172L262.063 253.503L261.64 257.383L261.29 259.424L257.157 259.221L256.426 260.205L255.158 260.122L254.705 257.999L259.064 257.677L258.796 255.47L256.797 254.735L258.518 253.172Z" fill="white"/>
<path d="M317.35 467.198L314.64 466.932L311.94 468.55L313.898 470.444L317.35 467.198Z" fill="white"/>
<path d="M320.051 465.984L319.154 468.549L316.598 470.572L316.753 471.243L321.112 469.754L322.915 467.731L320.051 465.984Z" fill="white"/>
<path d="M418.765 107.85L416.745 106.829L414.024 108.364L411.685 110.295L411.747 111.371L414.776 111.711L414.591 113.642L413.519 114.607L413.777 115.232L416.807 115.407V118.532L421.166 119.213L423.752 120.518L426.658 120.629L431.646 118.413L435.5 113.871L435.562 110.801L433.223 109.036L431.265 107.555L430.379 108.125L429.049 109.661L427.534 109.486L426.019 108.006L424.061 108.171L421.217 110.277L419.507 111.922L418.558 111.187L418.497 109.367L419.445 108.797L418.765 107.85Z" fill="white"/>
<path d="M503.165 49.6082L501.464 48.082L497.693 49.7185H490.768L489.675 53.3224L493.56 56.3838L495.261 56.1632L497.693 52.449L499.754 53.7636L498.29 56.3838L497.559 60.2083L499.259 62.6078L502.907 57.1469L507.648 52.0077L505.824 50.5919L503.165 49.6082Z" fill="white"/>
<path d="M505.226 43.0533L502.186 45.5631L504.01 48.073H507.287L508.627 49.7094L512.635 51.5665L517.252 49.167L520.416 46.7675L519.324 44.8L516.16 43.1636L513.851 45.0207L512.275 43.2739L511.059 43.3842L509.482 46.4457L507.174 44.368L506.926 42.9521L505.226 43.0533Z" fill="white"/>
<path d="M512.151 54.3066L509.719 56.2741L507.658 57.6899L508.627 59.216L510.574 59.7584L513.738 58.4437L515.201 56.8073L513.862 54.8399L512.151 54.3066Z" fill="white"/>
<path d="M564.543 35.6621L566.315 36.2965L565.069 38.2087V40.9208L562.41 42.355H559.576L557.979 40.599L558.154 38.6868L559.401 37.2526H561.884L564.543 35.6621Z" fill="white"/>
<path d="M571.282 33.9063V35.8185L573.055 37.0965L575.539 36.9402L577.672 35.1842V33.9063H575.724L574.127 34.3844L572.88 33.1064L571.282 33.9063Z" fill="white"/>
<path d="M581.402 34.0713L582.649 36.4616L585.133 36.6179L586.905 35.9836L586.019 33.7495L583.711 33.2715L581.402 34.0713Z" fill="white"/>
<path d="M591.512 30.8813L589.564 30.5596L587.792 32.1592L588.678 33.5934L589.214 35.8275L591.522 34.237L592.058 32.481L591.512 30.8813Z" fill="white"/>
<path d="M602.332 47.7881L601.797 50.0221L597.716 53.2123L589.018 54.9682L581.918 65.4948L580.671 68.5287L587.771 70.1284L588.833 66.3039L590.966 60.4016L596.469 57.8458L601.086 54.6557L604.455 53.3778H606.228V49.0752L602.332 47.7881Z" fill="white"/>
<path d="M579.444 71.0752L584.236 71.5533L585.833 76.4994L589.914 80.3239L588.492 82.8797H586.009L583.7 80.4894L578.558 80.3331L576.425 77.7773V76.0213L579.619 75.2215L579.444 71.0752Z" fill="white"/>
<path d="M654.333 16.6861L652.024 15.4082H649.365L648.829 16.8424L645.996 18.2766L643.862 18.9109L643.512 20.8232L648.479 21.145L654.333 16.6861Z" fill="white"/>
<path d="M659.825 17.1641L658.578 19.5544L656.095 19.3981L652.189 21.9539L651.128 25.1441H653.611L655.033 23.0663L658.403 25.3004L661.598 24.0224L663.906 22.2665L663.02 19.5544L661.773 17.6421L659.825 17.1641Z" fill="white"/>
<path d="M664.978 18.9199L666.225 23.388L668.173 27.5343L670.306 24.1878L674.387 23.388V20.9977L671.728 19.2417L664.978 18.9199Z" fill="white"/>
<path d="M762.342 11.7682L765.114 13.846L767.083 13.1197L767.66 10.2053L763.62 7.71387L760.961 9.27677L754.49 9.8008V12.4026L747.667 12.5037V16.7603L755.644 22.0558L757.725 20.7043L757.262 16.9626L762.352 15.8226L761.312 14.0574L759.467 12.3934L762.342 11.7682Z" fill="white"/>
<path d="M769.741 9.27658L771.586 12.3932L778.758 11.6669L780.727 9.37771L780.263 7.4011L778.295 6.6748L776.45 7.92513L771.132 8.964L769.741 9.27658Z" fill="white"/>
<path d="M769.278 21.43L765.691 20.6025L763.62 22.5792L762.693 25.2821L767.546 24.8683L771.246 23.2043L769.278 21.43Z" fill="white"/>
<path d="M862.221 3.45633L859.212 2.62891L855.749 3.76891L854.018 6.0581L856.213 8.65987L861.994 6.37068L863.148 5.23068L862.221 3.45633Z" fill="white"/>
<path d="M701.315 283.207L701.572 285.707L701.83 287.528L700.315 287.758L701.078 291.849L703.355 292.989L706.89 291.168L705.88 286.857L706.137 285.266L702.85 282.545L701.315 283.207Z" fill="white"/>
<path d="M227.592 245.394V246.562L233.074 246.654L235.661 245.311L236.063 246.295L241.442 247.463L246.224 251.315L245.131 252.657L245.327 254.183L249.315 255.075L253.303 253.466L255.097 251.857L252.51 250.69L239.165 243.702L234.486 243.252L227.592 245.394Z" fill="white"/>
<path d="M246.924 238.233L245.626 237.874L245.523 240.108L247.12 241.542L248.213 240.108L246.924 238.233Z" fill="white"/>
<path d="M249.511 241.726L247.718 242.617L249.408 244.769L250.304 243.693L249.511 241.726Z" fill="white"/>
<path d="M255.292 243.335L253.396 243.243L253.592 244.319L254.983 246.112L256.178 244.944L255.292 243.335Z" fill="white"/>
<path d="M254.396 241.192L251.304 240.025L250.707 237.248L251.902 236.798L253.097 238.949L254.293 239.758L254.396 241.192Z" fill="white"/>
<path d="M251.407 235.548L249.81 235.19L249.511 233.397L247.821 232.864L248.913 231.88L250.902 232.505L252.397 233.314L251.407 235.548Z" fill="white"/>
<path d="M246.224 257.042L242.637 257.851V258.743L244.729 259.818H246.924L248.316 258.384L246.224 257.042Z" fill="white"/>
<path d="M857.326 311.974L853.028 312.406L850.267 314.208L851.41 316.267L856.089 317.039V317.812L853.131 319.954L854.564 324.413L855.996 324.495L857.233 320.119H859.521L860.479 324.403L871.64 332.641L871.928 339.076L875.741 342.763L877.462 342.68L877.844 319.954L871.361 315.927L865.25 319.613L863.055 320.818L859.428 318.758L859.335 312.24L857.326 311.974Z" fill="white"/>
<path d="M95.9525 41.2698L87.3064 43.0993L89.0892 51.7872L98.4979 54.0764L99.0029 55.906L85.0186 59.7948L77.1351 71.4522L79.9278 83.7992L84.5034 86.5389L88.069 83.5693L89.0892 85.3989L84.761 89.968L67.9737 96.8264L57.2872 99.1156L57.0295 102.545L81.7003 96.1461L91.8716 93.6271L101.28 83.3395L111.709 77.1706L106.371 85.169L112.225 85.8585L122.149 81.9697L123.931 88.3684L130.795 89.7382L137.916 95.9071L138.421 100.476L137.4 101.616L138.668 105.956H140.451L140.708 98.6376H142.738L143.243 116.694L148.334 112.805L144.769 94.0592H139.43L133.577 87.4306L162.318 43.9911L133.835 24.1055L102.043 29.594L100.775 38.2819L107.639 41.941L105.093 47.8892L95.9525 41.2698Z" fill="white"/>
<path d="M200.922 310.907L200.283 313.435L199.098 314.502L199.912 315.807L202.004 315.072L203.003 313.518L202.364 311.882L200.922 310.907Z" fill="white"/>
<path d="M209.949 32.9961L210.176 36.692L201.952 44.295L204.013 50.4547L209.949 49.0205L213.381 44.4973L222.058 41.6197L229.137 41.206L223.655 35.8645L220.914 37.7124L218.853 37.0965L217.709 34.8349L215.194 32.5732L209.949 32.9961Z" fill="white"/>
<path d="M220.687 22.1101L218.863 24.9876L227.777 27.8652L230.972 23.5534L232.343 26.431H234.63L238.969 22.1193L233.713 20.8873L231.652 19.4531L228.911 21.917L220.687 22.1101Z" fill="white"/>
<path d="M236.228 27.8652L229.148 30.5314V32.5815L238.289 35.6614L236.228 37.7115L237.598 40.3776L243.307 38.116H248.11L250.397 41.3981L254.282 37.9046L253.365 34.6133L250.171 35.643L249.717 31.5335L251.315 29.0696H249.717L247.203 30.5038L246.059 31.322L246.749 34.1996L244.925 35.4315L242.184 35.2293L241.494 31.5335L236.228 27.8652Z" fill="white"/>
<path d="M245.595 21.4941L244.905 23.5443L249.243 25.3922L252.438 23.7466L252.211 22.5146L245.595 21.4941Z" fill="white"/>
<path d="M249.016 18.001L245.822 19.0307L246.048 20.4648L253.128 20.0511L252.902 18.6169L249.016 18.001Z" fill="white"/>
<path d="M264.33 21.4941L263.877 22.9283L262.733 24.3625V26.4126L267.071 25.7967L271.636 29.2902H273.234V25.7967L268.668 21.2734L264.33 21.4941Z" fill="white"/>
<path d="M275.985 25.6041L277.809 27.452L276.212 29.9159L277.356 32.582L282.385 30.1182V28.2703L279.417 25.1904L275.985 25.6041Z" fill="white"/>
<path d="M282.611 20.8787L282.838 24.1608H289.011L290.608 25.3928L290.381 26.827L284.899 27.4429L288.784 32.1684L294.04 32.9866L301.346 30.1091L290.835 15.9326L287.64 17.7805L287.867 20.2444L284.209 19.0125L282.611 20.8787Z" fill="white"/>
<path d="M229.375 44.0918L220.698 46.142L215.669 50.0492L216.122 54.361L225.263 56.8249L223.202 60.9344L216.575 57.2386L214.751 60.3184L219.09 62.9845L218.863 67.2963L225.49 68.942L233.486 68.5283L234.857 66.2666L240.793 72.2241L244.905 70.9921L245.595 66.8826L248.563 68.7305L249.016 64.621L245.358 62.5708L245.585 49.6355L242.39 47.3739L238.969 51.4834L229.375 44.0918Z" fill="white"/>
<path d="M257.25 53.1293L254.282 51.8974L252.685 53.7453L255.88 58.2685L256.106 62.5803L262.959 58.8845V53.543L265.474 51.2814L262.959 49.6357H258.848L257.25 53.1293Z" fill="white"/>
<path d="M271.874 51.2812L267.071 54.7748L268.215 59.0866H271.183L272.554 56.825L274.615 58.6729L276.676 58.4706L282.158 54.3611L271.874 51.2812Z" fill="white"/>
<path d="M271.41 44.4971L270.266 46.5472L275.295 48.1929L276.665 46.345L271.41 44.4971Z" fill="white"/>
<path d="M268.442 36.6914L263.413 37.3074L260.445 39.7712L265.927 39.9735L264.33 43.6693L265.474 45.315L267.071 45.1127L270.956 39.569L268.442 36.6914Z" fill="white"/>
<path d="M277.129 35.2568L274.388 36.0751L274.841 39.3572L279.407 42.0233L279.633 44.0734L278.263 45.3054L278.953 49.4149L296.544 54.5449L301.347 55.9791L306.149 52.2833L300.44 48.1738L295.184 49.4057L287.878 48.7897L285.136 46.3259L284.446 39.5502L279.881 37.5001L277.129 35.2568Z" fill="white"/>
<path d="M291.515 56.6227L286.486 56.209L280.551 58.2591L277.356 62.1572L278.273 72.8401L288.094 73.2538L297.462 77.3633L304.088 84.139L309.117 83.9367L307.746 90.2987L303.181 97.0743L298.152 99.1245L294.494 98.5085L292.67 97.0743L289.928 100.356L291.072 103.639L294.957 103.841L299.76 101.791L303.871 111.242L314.156 117.199L321.236 109.191L315.3 100.568L318.732 97.0743L323.534 104.264L332.211 97.488L330.614 94.4082L324.678 96.0538L320.566 85.9869L324.451 80.2409L316.681 72.8493L312.342 75.5154L308.231 67.5079L299.553 68.5375L297.266 58.8843L290.186 63.1961L289.496 68.5375H285.61L286.064 63.8121L291.515 56.6227Z" fill="white"/>
<path d="M301.8 60.3184L299.976 61.964L301.573 64.2256L309.117 65.0438L304.315 60.5206L301.8 60.3184Z" fill="white"/>
<path d="M294.494 37.1056V38.9535L289.465 39.9832L290.835 42.0333L296.544 44.0835L302.944 44.6994L307.509 47.577L312.074 45.3154L308.88 42.4378H312.991L315.506 39.974L321.679 39.1557V37.9238L318.247 35.8736L318.701 33.612L328.295 35.0462L342.465 30.1185L337.209 28.6843L338.579 27.0386H349.544L351.368 25.393L329.202 18.4059L323.946 16.7603L318.237 20.4561L311.837 15.7306L308.406 15.5283L307.715 19.4356L303.377 15.942L298.348 17.3762L299.265 19.6378L306.808 21.072L306.355 24.3541L310.467 26.6157L320.525 24.3541L320.751 27.434L312.528 30.9275L307.499 27.434L302.934 27.8477L307.499 33.6028L305.211 34.6325L301.779 31.9664L299.265 33.4006L301.553 37.2986H305.438L304.521 40.9944L301.326 40.5807L297.214 36.6735L294.494 37.1056Z" fill="white"/>
<path d="M274.13 93.6367L269.771 98.5277L269.503 103.915L273.316 101.957H277.943L281.21 104.651L284.209 102.444L274.13 93.6367Z" fill="white"/>
<path d="M327.213 157.256L316.32 166.56L317.412 168.766L330.747 173.17L332.654 170.237L331.562 165.346L327.202 165.833L324.75 163.388L328.831 159.72L327.213 157.256Z" fill="white"/>
<path d="M163.05 44.7363L165.101 47.5036L166.131 51.1994L171.263 52.3486L174.86 48.8918L177.941 50.28L186.67 50.9696L192.832 48.662L193.863 56.2742H197.459V53.0473L201.056 53.2771L210.042 62.7373L215.947 65.9642L212.866 70.3495L214.154 71.4987L225.685 73.5765L225.943 78.1916L229.024 78.6513L229.797 71.7286L234.671 70.5794L238.268 75.4244L245.966 78.6513L249.82 79.3408L252.386 76.5736L252.644 72.1883L257.261 69.6508L258.796 73.3466L254.684 79.8097L255.2 83.0366L257.508 79.8097L262.125 76.1139L262.382 71.2689L259.816 67.5731L260.589 64.576L266.752 61.8087L269.575 63.6566L270.091 79.8097L274.45 76.3529L277.016 77.7412L273.419 83.2757L278.036 84.195L284.714 74.9647L290.361 80.2694L288.053 89.7295L282.405 92.4968L277.016 90.1892L267.267 92.0371L268.298 95.0342L265.732 98.73L257.776 100.348L248.79 106.581L240.834 116.041L239.804 119.039L245.193 120.886L247.244 125.502L254.684 132.195L266.494 136.81L263.928 147.419L263.67 150.416L266.752 152.264L270.864 147.419L271.379 138.189L277.799 137.959L280.88 132.654L281.396 124.582L289.609 110.277L299.873 113.504L305.263 120.197L302.954 126.89L307.066 128.968L317.072 122.964L319.896 139.347L329.14 149.267L329.397 154.342L319.133 156.649L314.259 161.265L303.995 159.187L298.863 158.957L289.877 165.19L295.266 164.041L301.944 162.892L303.232 164.28L301.439 169.355L301.697 173.97L304.778 175.818L307.859 175.128L309.405 173.051H311.456L308.117 178.585L301.697 178.815L298.873 182.511H295.277L294.246 179.744L299.378 175.128L293.216 176.976L292.937 169.134L291.165 168.215L285.775 170.293L285.26 174.218H272.935L262.413 180.681L248.295 184.837L246.76 182.989L253.87 173.52L249.831 170.054L247.265 165.659L242.04 162.101L236.434 161.687L226.386 155.408L153.518 144.725L152.312 140.322L145.634 134.787V130.172L146.665 126.016L146.149 123.709L143.583 121.401L143.068 117.705L149.746 113.55L145.634 93.7104L139.987 93.4805L134.855 87.4771L163.05 44.7363Z" fill="white"/>
<path d="M153.301 145.57L152.27 149.266L148.674 147.188H146.881L145.85 151.114L133.268 176.268L136.606 198.185L140.718 200.033L141.491 206.036H149.962L158.175 211.571L174.344 212.959L176.137 220.341L178.703 221.96L182.3 218.733L185.124 219.882L187.69 230.491L192.049 233.029L195.645 227.025L206.682 219.873L213.865 222.87L220.028 223.329L220.285 219.873L233.115 220.102L235.681 222.64L236.197 228.404L234.661 231.631L236.454 237.166H240.308L244.163 231.861L242.627 229.324L241.092 223.789L243.4 217.556L253.922 209.484L261.877 207.406L260.847 200.713L271.884 190.095L282.921 188.477L281.127 182.951L291.907 177.417V170.034L290.876 169.575L287.022 170.724L286.507 175.247L273.697 175.385L263.66 181.333L247.903 185.93L245.389 183.181L252.541 173.528L249.006 170.522L246.605 166.44L241.627 162.873L236.217 162.468L225.994 156.244L153.301 145.57Z" fill="white"/>
<path d="M137.915 118.055L136.164 121.052L136.772 123.175L137.915 123.81L137.648 124.674L136.421 124.987L136.772 128.14L138.091 129.326L139.142 128.305L137.823 125.235L138.606 122.789L140.533 120.5L139.131 118.376L137.915 118.055Z" fill="white"/>
<path d="M143.707 136.019L142.13 136.57L145.026 139.567L145.727 143.116L148.622 145.874L151.075 145.479V141.856L148.097 140.202L143.707 136.019Z" fill="white"/>
<path d="M200.829 268.01L206.94 272L213.103 265.169L212.052 263.753L209.949 263.689V259.69L208.373 258.835L203.601 260.104L205.425 263.855L200.829 268.01Z" fill="white"/>
<path d="M213.886 265.492L223.408 265.17L226.231 268.167L224.469 267.808L221.079 267.937L216.648 271.651L214.751 275.411L213.504 274.823L213.494 270.704L210.753 269.068L213.886 265.492Z" fill="white"/>
<path d="M207.806 272.378L212.649 274.529L212.577 271.118L210.093 269.767L207.806 272.378Z" fill="white"/>
<path d="M224.387 268.553L226.644 268.957L226.716 273.085L224.088 279.778L217.008 279.153L215.432 275.926L217.534 272.009L221.522 268.7L224.387 268.553Z" fill="white"/>
<path d="M224.016 280.385L225.448 282.886L226.613 284.265L225.046 288.411L222.058 286.536L217.173 282.546V279.907L224.016 280.385Z" fill="white"/>
<path d="M227.324 284.642L225.819 288.834L230.786 289.983L233.868 290.526L234.393 287.28L237.701 285.791L240.638 287.142L241.792 288.788L243.194 288.641L244.297 285.653L240.628 284.302L237.846 282.95L235.063 284.642L231.755 286.131L228.375 284.918L227.324 284.642Z" fill="white"/>
<path d="M261.476 275.604L259.353 275.411L245.317 285.735L243.833 289.367L241.916 289.56L242.771 297.586L237.876 308.296L243.194 312.314L250.006 312.7L254.684 318.823L261.486 319.016L261.269 323.604H263.815L266.577 315.192L264.021 312.323L264.66 306.973L269.977 306.586L269.338 294.157L257.426 290.718L254.664 284.025L261.476 275.604Z" fill="white"/>
<path d="M258.106 281.249L258.559 283.63L261.908 284.577L262.671 280.191L266.206 276.928L269.74 280.624L277.871 282.6L284.755 281.313L289.444 286.471L292.979 288.447L289.104 293.715L290.402 297.705L288.187 300.151L285.889 301.87L280.911 299.636L279.767 300.665V303.846L283.405 305.391L280.726 307.974L278.046 310.558L274.512 310.3L270.956 306.816L270.204 293.706L258.064 290.01L255.859 284.246L258.106 281.249Z" fill="white"/>
<path d="M293.752 288.797L301.192 294.809L298.234 297.862L297.997 299.673L301.882 303.249L301.79 306.688L295.029 308.986L290.979 304.104L291.845 298.239L290.114 293.872L293.752 288.797Z" fill="white"/>
<path d="M302.078 295.242L304.181 296.961L307.437 295.159L310.405 295.242L310.024 296.272L308.777 298.588L308.581 304.353L302.655 306.504L302.944 302.808L299.121 299.627L299.316 297.991L302.078 295.242Z" fill="white"/>
<path d="M311.353 295.849L317.382 299.204L314.228 304.794L313.084 306.081L309.735 304.362L309.828 298.34L311.353 295.849Z" fill="white"/>
<path d="M237.227 308.766L232.353 311.469L232.002 315.477L231.023 316.792L234.094 319.421L232.765 320.717L233.074 324.027L238.567 325.195L246.883 316.415L246.862 313.353L242.874 313.123L237.227 308.766Z" fill="white"/>
<path d="M231.899 321.333L229.9 323.135L230.034 326.012L247.491 354.402L265.618 364.827L268.421 360.635L269.091 351.414L267.628 345.668L262.692 338.24L259.755 339.076L258.425 340.391L252.561 334.397L254.025 327.327L260.826 323.374L260.29 319.66L253.365 319.421L249.769 314.033L247.769 313.436L247.903 316.672L238.979 326.132L232.312 324.698L231.899 321.333Z" fill="white"/>
<path d="M266.607 342.726L275.089 339.426L277.892 339.665L279.757 346.615L292.68 350.449L294.813 356.323L300.141 356.921L302.408 361.95L300.811 366.501L292.144 367.098L288.949 374.407L282.148 374.288L280.015 373.929L276.088 377.331L274.151 377.165L267.483 363.384L269.328 360.92L269.977 351.175L268.328 345.374L266.607 342.726Z" fill="white"/>
<path d="M300.666 367.291L302.933 369.497L302.666 374.168L309.199 373.809L314.135 379.445L313.733 384.474L310.539 388.786L304.005 389.025L303.737 386.625L305.603 382.672L299.203 379.077H293.875L289.877 375.243L292.783 367.833L300.666 367.291Z" fill="white"/>
<path d="M309.529 397.097L307.416 399.11L308.292 409.94L314.929 411.659L323.369 404.111L309.529 397.097Z" fill="white"/>
<path d="M314.795 384.474L316.794 386.147L309.199 396.214L306.53 398.853L307.458 410.354L313.321 416.707L308.395 424.374L304.665 425.808H300.399L301.594 431.793L294.926 433.834L296.524 438.863L292.525 450.245L297.461 453.84L294.792 459.705L290.258 466.058L292.659 470.489L286.796 471.326L281.993 466.058L281.189 449.647L273.729 421.773L275.985 412.027L271.183 399.57L274.378 383.399L277.315 380.282L276.593 377.919L280.365 374.849L288.774 375.363L293.473 379.841L298.904 379.923L304.469 382.957L302.831 386.377L303.222 389.834L311.106 389.503L314.795 384.474Z" fill="white"/>
<path d="M293.741 472.641L289.341 481.264L296.936 481.981L297.07 476.235L293.741 472.641Z" fill="white"/>
<path d="M297.74 476.952L298.008 482.22L302.542 481.862L306.406 479.582L299.873 478.386L297.74 476.952Z" fill="white"/>
<path d="M292.247 471.288L288.939 474.552L288.537 478.386L282.138 475.15L275.336 466.407L273.337 463.29L276.14 460.054L275.872 455.981L272.677 454.786L270.142 453.113L270.678 450.833L274.007 449.996L274.677 436.822L269.483 434.183L266.092 365.609L266.968 364.248L273.605 377.9L275.728 377.937L276.418 380.116L273.595 383.168L270.348 399.597L274.965 412.248L272.832 421.827L280.355 449.996L281.148 466.471L286.538 472.033L292.247 471.288Z" fill="white"/>
<path d="M270.286 436.822L268.957 438.615L269.627 441.732L270.956 441.851L271.626 437.898L270.286 436.822Z" fill="white"/>
<path d="M323.833 403.458L330.273 392.408L330.511 383.122L342.526 376.209H349.256L354.542 368.22L355.501 352.885L353.337 348.784L366.074 338.414L366.558 326.968L349.256 319.411L328.357 313.582L318.505 312.718L321.153 307.754L320.432 300.197L318.278 299.562L315.094 305.207L313.424 307.073L309.137 305.382L294.72 309.914L289.918 304.517L290.691 298.882L286.157 303.001L281.148 300.592L280.643 301.226L280.654 303.184L284.972 305.253L278.49 311.348L274.398 311.312L270.256 307.551L265.567 307.68L264.99 312.148L267.679 315.062L264.505 324.137L260.795 324.394L254.89 327.722L253.448 334.259L258.569 339.15L259.507 338.203L263.104 337.338L266.175 341.954L274.965 338.589L278.376 338.763L280.726 346.183L293.267 349.731L295.431 355.652L300.77 356.222L303.315 361.876L301.594 366.905L303.84 369.534L303.511 373.451L309.529 372.945L315.042 379.16L314.609 383.527L317.876 385.991L310.044 396.572L323.833 403.458Z" fill="white"/>
<path d="M210.804 259.626L210.753 262.982H211.619L214.566 258.072H212.567L210.804 259.626Z" fill="white"/>
<path d="M842.94 67.0484L844.753 72.6381L848.381 73.5667L852.008 68.4459L849.937 64.9523L850.71 61.9276H856.151L854.853 64.2536L855.368 72.6381L847.598 89.8668L848.371 93.5902L848.113 99.8786L862.612 118.735L865.457 119.433L865.714 104.071L868.559 101.745L865.446 95.6955L868.033 93.1305L862.334 86.3825L859.222 86.6123L858.192 75.4421L866.219 73.5759L866.735 70.3122L870.877 69.3836L873.206 71.2499L876.051 61.0083L880.966 53.5615L884.851 51.6952L888.221 51.9251V48.4315L882.78 47.503L875.267 41.9133L878.895 38.1899L875.783 31.9015L878.369 29.5755L881.481 33.2989L889.252 35.8639L897.795 36.5626L898.836 33.3081L894.435 29.3549L899.351 23.3055L888.211 19.812L885.367 24.9328L881.739 20.7405L861.283 14.4521L841.858 17.4768L839.013 18.8742V20.2717L843.156 22.138L842.641 26.5601L835.128 23.7652L818.557 29.5847L815.713 24.2341H804.316L799.132 29.1251L780.747 25.4017L763.919 28.4263L761.848 33.0783L764.434 33.777L764.177 37.2705L747.863 38.8978L748.904 43.5497L733.879 41.2238L737.507 35.1744L722.224 34.4757L723.522 40.7641L718.607 42.8602L714.464 39.3667L697.635 41.9317L691.164 47.2823L690.906 50.5368L686.763 50.7667L686.248 47.0433L699.46 36.8017V29.8146L690.916 27.7184L679.776 30.973L675.118 26.7807H673.047L670.46 31.4326L672.532 33.5288L657.764 40.7457L645.079 49.3601L637.308 58.903V62.8562L645.594 65.8809L641.451 68.6757L632.65 65.8809L629.023 68.6757L623.582 63.086L622.541 65.1821L628.497 81.942L630.054 82.4109L634.196 80.5446L636.268 81.942V84.9667L632.383 83.5692L630.054 85.1965L631.61 88.2212L630.311 96.1368L622.283 96.8355L621.768 94.2705L626.426 91.7055L627.467 84.7184L622.283 78.6691L620.47 68.1976L612.184 67.0301L611.411 70.7534L612.967 72.6197L609.598 75.1847L610.896 82.1718L615.812 84.0381L616.853 89.1589L611.927 86.3641L599.241 84.268L597.685 87.9913L587.586 91.2459L586.029 88.9199L572.818 95.4381L572.56 99.8602L567.377 100.559L568.933 97.3044V94.0499L563.749 92.4226L560.38 93.5902L563.224 98.4812L565.295 101.736V104.301L561.41 103.602L560.637 102.903L556.752 106.627L558.824 109.881L550.023 109.651L552.867 112.915L552.094 114.312H547.436L544.066 112.216L543.294 106.397L537.852 104.531V102.205L549.25 104.301L555.464 104.77L558.051 101.276L555.722 97.5526L539.151 91.7331L533.431 93.0018L531.473 94.5004L532.081 97.948L534.513 98.3249L533.947 103.749L541.449 119.47L536.028 127.137L535.657 128.866L538.409 130.594L535.925 132.056L534.276 132.084L534.586 138.841L536.863 141.718L536.894 144.513L539.81 144.752L544.273 146.269L548.992 152.061L549.044 153.587L547.508 155.932L551.033 155.757L554.464 156.64L559.102 162.496L570.52 163.424L570.025 170.393L566.089 173.399L566.903 174.576L563.018 178.3L561.987 181.793L564.316 184.818L571.829 187.144L574.941 185.516L594.882 192.265L595.655 190.398L591.512 186.905V182.483L588.925 181.784L589.441 178.061L593.583 173.638L586.153 168.674L586.668 161.77L594.614 157.108L603.94 157.577L605.496 160.142L615.08 160.611L622.077 157.118L618.45 153.624L619.223 147.106L637.35 139.19L651.293 144.798L655.951 141.075L669.677 152.714L680.034 151.785L683.662 155.04L693.503 155.968L699.975 148.053L708.26 151.316L712.661 152.015L717.061 148.522L713.176 146.196L716.546 141.544L726.13 144.339L728.201 148.062L732.344 148.292L734.93 146.665L741.928 146.435L742.7 148.062L750.728 148.531L756.169 143.41L767.309 144.578L770.679 143.41L771.71 137.82L768.34 131.072L771.71 128.507H782.324L792.423 139.218L805.367 145.736H809.252L809.767 142.941L814.425 140.376L814.94 155.509L810.798 155.739V159.462L813.127 162.027L812.694 165.355L814.415 165.989L815.456 163.663L817.012 164.132L818.042 165.061L822.7 164.132L827.358 152.024L827.873 136.892L821.917 124.784L814.404 116.638L810.777 117.107V119.672L801.976 116.648L805.346 110.129L808.19 92.9007L820.103 89.6462L825.802 86.3917H832.016L830.46 88.258L832.016 90.5839L837.457 85.4631L840.57 85.693L840.054 82.6683L835.128 81.7397L838.498 70.7994L842.94 67.0484Z" fill="white"/>
<path d="M690.865 156.355L687.299 164.354L682.384 164.124L677.2 174.246L681.6 179.247L672.532 190.417L667.874 189.719L664.762 193.212L665.535 195.308L669.162 195.538L670.976 199.262L674.603 199.96L685.743 212.767V219.285L691.184 222.31L697.141 221.381L704.653 225.334L713.722 227.66L718.122 227.191L723.048 226.723L733.405 220.673L736.775 221.142L738.063 223.873L740.918 224.636L744.803 229.757L742.216 234.877L743.772 238.371L748.173 239.768L748.945 243.961L754.129 244.429L754.902 242.333L762.414 238.84L767.072 239.07L772.514 244.42L776.141 243.023L778.47 243.253L779.511 245.818L781.325 246.047L783.911 242.793L794.268 239.299L803.594 229.288L806.706 219.745L806.449 213.456L802.564 212.758L804.893 210.432L804.377 206.708L794.536 197.864V193.442L797.38 190.187L800.224 189.02L800.482 186.455H793.227L791.929 189.948L788.559 189.25L784.416 185.297L787.003 179.247L790.63 175.754L794 175.983L793.485 181.334L795.299 182.731L799.699 178.778L801.255 178.548L800.74 175.524L804.882 171.102L807.995 171.331L809.808 166.211L811.931 165.209L812.148 162.018L810.087 160.088L809.911 155.05L813.879 154.82L813.621 141.829L810.839 143.319L809.798 146.647L805.15 146.638L791.681 139.88L781.953 129.418L772.081 129.326L769.566 131.275L772.761 137.803L771.648 143.926L767.67 145.396L765.434 145.24L765.269 151.299L767.598 151.768L771.741 150.14L777.182 152.466V154.792L773.297 155.022L770.185 161.071L767.34 161.301L757.241 173.17L746.627 177.362L739.372 177.831L734.456 174.807L727.459 178.07L719.946 175.974L718.133 171.552L705.447 170.853L698.718 161.081H695.873L693.586 156.548L690.865 156.355Z" fill="white"/>
<path d="M694.369 156.446L700.366 149.349L707.57 152.318L712.465 153.486L718.462 148.577L714.392 145.901L717.071 142.527L725.068 145.046L727.84 149.101L732.849 149.22L735.466 147.483L740.856 147.29L742.031 149.073L750.986 149.478L756.654 144.32L764.496 145.056L764.043 152.079L767.474 152.778L771.689 151.068L776.151 153.036L776.048 154.028L772.812 154.111L769.443 160.418L766.825 160.648L756.643 172.517L746.245 176.608L739.743 177.058L734.343 173.951L727.438 177.242L720.637 175.358L718.71 170.954L705.828 170.145L699.233 160.17L696.028 159.986L694.369 156.446Z" fill="white"/>
<path d="M802.038 178.603L803.934 179.311L804.511 185.231L808.273 185.424L811.818 181.719L810.592 180.745L810.736 176.773L813.992 173.261L812.333 170.595L813.415 169.492L814.013 166.734L812.127 165.971L810.519 166.697L808.53 172.084L805.315 171.836L801.595 175.753L802.038 178.603Z" fill="white"/>
<path d="M812.405 182.216L818.774 186.849L819.856 191.336L819.639 193.745L816.527 196.87L813.848 196.999L810.808 191.143L809.654 188.348L810.88 187.502L810.591 186.335L809.076 185.728L812.405 182.216Z" fill="white"/>
<path d="M594.294 173.409L598.519 171.8L603.239 171.653L603.569 178.088H600.807L598.695 181.159L601.456 185.25L605.527 187.3L605.898 189.645L607.392 189.203L608.773 187.742L611.051 188.183L612.194 190.233H615.121V187.604L613.328 182.924L612.514 179.127L617.718 177.077L624.715 178.098L629.105 182.042L639.029 181.168L644.563 188.183L651.066 188.477L652.859 185.848L655.136 185.406L655.466 182.483L658.877 182.336L660.67 184.239L662.463 180.442L677.911 182.345L680.508 179.274L676.118 174.448L681.971 163.048L686.691 163.342L689.948 156.327L683.445 155.739L679.704 152.521L669.399 153.588L656.126 142.142L651.447 145.847L637.257 140.101L619.851 147.704L619.367 153.109L623.437 157.348L615.502 161.347L605.208 161.145L603.054 158.322L594.985 157.927L587.338 162.312L587.173 168.306L594.294 173.409Z" fill="white"/>
<path d="M611.978 190.849L611.339 193.267H607.062V196.54L611.659 199.242L610.236 202.947V204.657L612.143 204.942L614.678 201.955L620.387 200.815L632.589 204.942L632.743 207.93L639.555 208.5L647.16 201.375L646.212 199.095L641.142 198.102L626.88 189.838L626.241 186.85H620.851L618.47 190.84H616.09L611.978 190.849Z" fill="white"/>
<path d="M648.118 201.394L651.293 201.541V196.696L648.283 195.133L653.354 189.433H655.415L657.476 191.575L662.865 189.728L655.415 187.448L655.126 186.069L653.354 186.455L651.612 189.158L644.099 188.937L638.586 181.977L628.899 182.832L624.282 178.75L617.893 177.785L613.256 179.468L615.946 187.448L615.976 190.132L617.934 190.169L620.336 186.087L626.725 186.16L627.673 189.295L641.369 197.404L646.665 198.489L648.118 201.394Z" fill="white"/>
<path d="M649.427 194.756L653.663 190.067H655.26L655.817 191.115L653.859 192.384V193.432L655.147 194.26L661.34 194.591L663.36 193.818L664.277 193.984L664.896 195.749L668.575 196.08L670.419 199.555L669.863 200.603L669.131 200.658L668.399 199.334L666.802 199.224L664.04 199.555L663.855 201.872L661.093 201.706L661.217 198.783L659.197 197.018L656.126 199.279L656.188 200.769L653.488 201.596H651.89L652.014 196.466L649.427 194.756Z" fill="white"/>
<path d="M656.25 183.145L655.93 185.471L656.188 186.905L665.153 189.589L657.28 192.421L656.383 191.759L654.683 192.734L654.766 193.267L655.672 193.635L661.196 193.763L663.999 193.009L667.596 188.964L672.099 189.663L677.53 182.952L662.999 181.187L660.99 185.535L658.455 183.108L656.25 183.145Z" fill="white"/>
<path d="M632.867 208.739L634.505 220.194L638.586 220.994L638.967 223.054L636.041 225.232L641.492 229.158L652.086 225.756L652.931 221.73L659.599 218.016L662.154 209.41L664.061 207.581L662.082 204.51L668.533 200.952L667.709 199.923L664.731 200.088L664.463 202.534L660.464 202.497L660.392 199.233L659.104 197.863L656.94 199.619L657.002 201.228L653.735 202.331L647.706 201.991L639.874 209.309L632.867 208.739Z" fill="white"/>
<path d="M642.152 229.691L644.831 233.24L644.573 235.07L641.008 236.329L640.75 239.308H644.831L646.233 238.278H654.003L661.01 243.776L661.907 241.137H667.132L667.255 237.819L661.907 233.24L663.051 230.721L668.533 230.381L675.922 216.637L671.841 213.777L670.316 208.969L680.25 208.169L674.387 200.723L671.264 199.969L669.986 201.348L669.028 201.412L663.164 204.731L665.081 207.599L662.917 209.659L660.238 218.475L653.611 222.254L652.715 226.382L642.152 229.691Z" fill="white"/>
<path d="M691.463 287.768L696.182 285.708L698.986 276.662L698.862 265.556L714.917 250.093V246.424L718.225 245.275L718.102 241.037L714.536 234.85L716.577 231.531L721.039 235.199L726.768 235.429V237.488L724.986 239.207L725.367 240.127L728.428 240.237L729.067 243.326H729.963L732.261 239.658L733.405 230.041L737.228 227.633L737.352 224.314L735.827 221.675L733.405 221.565L723.924 227.155L724.522 230.749L717.865 230.731L715.515 228.166L714.237 228.313L714.67 231.88L700.274 230.961L691.349 227.412L690.875 223.045L684.929 219.754L684.857 212.978L680.776 208.813L671.398 209.613L672.418 213.254L677.015 216.573L669.069 231.08L663.752 231.439L662.876 233.186L668.111 237.507L667.853 241.873L662.505 241.8L661.928 243.97L666.369 243.795L666.493 245.514L663.309 247.003L665.349 250.442L669.296 251.591L671.718 249.991L672.862 247.132L674.263 246.562L675.922 248.052L675.417 251.72L674.273 253.439L674.531 256.418L691.463 287.768Z" fill="white"/>
<path d="M691.679 222.999L692.153 226.925L700.48 230.29L713.825 231.172L713.32 228.295L704.406 226.106L696.842 222.089L691.679 222.999Z" fill="white"/>
<path d="M716.628 228.074L718.225 230.023L723.625 230.06L723.079 227.394L716.628 228.074Z" fill="white"/>
<path d="M716.803 232.698L715.453 234.877L718.957 240.816L719.06 245.45L719.699 246.691L723.811 246.755L726.14 244.76L727.83 245.67L728.17 248.493L729.52 247.739L729.602 244.135L728.469 244.016L727.758 240.954L724.893 240.862L724.182 239.161L725.934 237.074L725.965 236.045H720.874L716.803 232.698Z" fill="white"/>
<path d="M751.707 279.163L748.853 275.081L750.924 272.488L748.966 269.28L747.121 268.967L746.771 263.58L744.009 258.808L743.205 259.948L741.361 262.743L739.052 263.056L737.898 261.704L737.321 258.073L735.59 255.167L728.541 249.238L730.272 248.217L730.592 243.924L733.168 240.062L734.281 230.455L738.011 228.184L738.135 224.682L740.371 225.344L743.896 229.894L741.278 234.896L743.04 238.821L747.399 240.347L748.193 244.622L754.046 245.431L752.428 247.923L745.05 250.515L744.246 254.763L749.667 260.978L749.893 264.297L748.626 265.437L748.739 266.476L752.779 271.762L752.892 277.25L751.707 279.163Z" fill="white"/>
<path d="M752.315 248.658L755.654 252.492V257.153L756.808 257.668L762.115 255.388L763.156 255.7L769.494 262.228L769.267 266.687L767.196 266.374L765.351 265.335L763.97 265.436L761.549 269.059L762.012 271.026L763.97 271.955L763.857 274.134L762.476 274.759L757.746 271.854V269.261L755.788 269.16L754.984 270.3L754.572 281.902L757.633 286.885L763.053 291.546L762.826 292.898L759.941 292.796L757.293 289.275H754.52L751.058 286.784L750.017 284.191L751.511 282.012L752.027 280.045L753.655 277.471L753.583 271.55L749.605 266.42L749.44 265.795L750.728 264.637L750.429 260.564L745.132 254.579L745.751 251.131L752.315 248.658Z" fill="white"/>
<path d="M755.077 290.011L757.148 294.157L757.612 299.544L760.384 303.378L767.072 307L769.607 307.212L769.144 303.479L766.949 298.717L763.733 292.622L763.465 293.688L759.591 293.532L756.808 289.965L755.077 290.011Z" fill="white"/>
<path d="M763.084 275.32L767.299 279.337L775.141 274.152L775.831 265.97L771.781 268.461L769.679 267.413L766.825 267.073L765.227 266.071L764.454 266.108L762.363 269.169L762.703 270.585L764.825 271.642L764.568 274.52L763.084 275.32Z" fill="white"/>
<path d="M757.921 241.726L755.427 242.856L753.356 248.244L756.818 252.179L756.241 256.527L756.818 256.739L762.579 254.247L770.308 261.951L770.123 266.806L771.802 267.615L775.955 264.608L775.615 262.227L763.63 252.068L763.744 250.515L765.238 249.586L764.197 246.994L759.24 246.267L757.921 241.726Z" fill="white"/>
<path d="M767.804 279.898L769.03 281.617L769.257 283.585L772.483 283.897L776.399 279.236L780.088 278.307L782.046 273.545L781.129 265.878L777.326 261.217L773.317 258.357L768.216 250.543L771.875 245.082L766.64 239.722L762.445 239.557L758.674 241.368L759.797 245.698L764.826 246.489L766.176 249.826L764.403 250.855L764.517 251.683L776.316 261.98L776.78 265.004L776.069 274.566L767.804 279.898Z" fill="white"/>
<path d="M572.416 187.695L575.786 191.621L579.99 193.349L582.577 193.34L587.019 192.264L588.132 190.711L574.992 186.325L572.416 187.695Z" fill="white"/>
<path d="M587.111 192.964L592.058 198.719L590.605 200.236L587.101 199.694L582.752 196.218L582.989 193.938L587.111 192.964Z" fill="white"/>
<path d="M588.853 190.969L587.812 192.55L592.666 198.232L594.356 197.744L597.139 200.346L598.344 195.786L601.364 196.218L601.24 194.913L596.273 191.033L595.325 193.313L588.853 190.969Z" fill="white"/>
<path d="M587.039 200.374L585.782 201.541L585.906 203.389L587.472 205.347L593.027 210.772L592.182 212.941H591.213L590.729 215.111L593.872 218.696L596.767 218.917L602.569 226.079L605.826 226.299L608.361 227.927L608.485 231.181L618.512 236.394H622.252L624.55 234.656L627.446 234.546L629.136 238.021L639.967 239.363L640.287 235.815L643.873 234.656L644.038 233.388L641.183 229.912L634.825 225.352L638.164 222.64L637.927 221.445L633.743 220.866L631.97 208.271L631.764 205.375L620.418 201.504L615.389 202.516L612.576 205.596L610.082 205.448L609.36 205.991L603.806 205.669L596.798 201.109L594.191 198.562L592.996 198.82L590.842 201.017L587.039 200.374Z" fill="white"/>
<path d="M575.755 192.32L573.457 194.489L565.007 194.269L559.936 191.557L554.99 191.446L549.312 195.032L543.994 195.252L543.51 197.965H537.471L535.06 199.923V201.008L536.513 202.092V203.288L535.905 204.703L536.513 205.899L538.45 205.034L540.387 206.882L539.903 208.188L539.182 209.061L540.264 210.146L545.581 211.12L549.322 209.705V207.645L551.136 207.967L555.485 210.247L560.194 209.594L562.245 207.857L563.574 208.289V210.247H565.388L566.954 207.535L580.722 206.23L586.73 205.577L585.143 203.72L585.112 201.21L586.318 199.923L581.928 196.779L582.165 194.066H579.754L575.755 192.32Z" fill="white"/>
<path d="M589.451 265.905L590.935 269.84V273.683L594.5 276.57L619.624 267.44L619.861 264.93L615.832 258.477L605.723 261.354L599.921 266.447L593.191 262.899L589.451 265.905Z" fill="white"/>
<path d="M616.646 258.192L624.262 254.275L625.612 248.529L623.942 247.674L624.633 241.515L626.086 240.761L627.642 242.94L636.906 247.261V249.66L625.684 264.397L620.521 264.554L616.646 258.192Z" fill="white"/>
<path d="M612.143 243.574L613.039 246.773L623.2 247.573L623.911 241.009L625.869 240.053L626.405 237.653L623.2 238.453L619.635 243.261L612.143 243.574Z" fill="white"/>
<path d="M610.721 238.131L610.185 241.817L611.772 242.893L613.215 242.774L613.751 238.131L612.504 237.331L610.721 238.131Z" fill="white"/>
<path d="M601.096 227.237L598.777 226.115L597.169 227.559L597.345 230.445L601.086 231.723L601.096 227.237Z" fill="white"/>
<path d="M601.828 232.817L609.052 241.799L611.381 243.454L612.421 247.481L623.541 248.262L624.798 248.851L623.551 253.815L616.245 257.658L605.558 260.545L599.859 265.509L593.089 261.988L588.987 265.188L583.278 256.867L579.362 255.268L577.94 253.346V249.182L563.688 233.81L563.152 231.089H567.253L572.241 227.246L572.416 225.324L570.994 224.046L573.849 221.969L579.908 222.291L590.244 229.976L596.345 229.728L596.737 231.07L601.828 232.817Z" fill="white"/>
<path d="M563.358 210.652L562.997 212.987L565.903 214.072L565.779 220.544L568.686 220.489L571.592 218.531L572.684 218.365L579.279 213.686L580.609 206.892L567.428 208.087L566.037 210.808L563.358 210.652Z" fill="white"/>
<path d="M581.536 206.883L579.929 213.971L573.271 218.917L573.694 221.252L580.197 221.647L590.553 229.168L596.345 229.021L596.499 227.283L598.622 225.251L601.59 226.75L601.982 226.419L596.242 219.606L593.521 219.459L589.904 215.313L590.625 212.261L591.728 212.132L592.109 210.781L587.183 206.156L581.536 206.883Z" fill="white"/>
<path d="M565.656 221.362L563.121 229.25L563.008 230.454H566.996L571.458 226.942L571.571 225.609L569.747 223.945L573.014 221.527L572.54 219.284L571.643 219.468L568.923 221.206L565.656 221.362Z" fill="white"/>
<path d="M562.874 213.695L562.935 215.488L562.09 218.209L564.996 218.43L565.182 214.569L562.874 213.695Z" fill="white"/>
<path d="M561.967 218.861L560.338 223.486L562.451 229.029L564.873 220.93V219.192L561.967 218.861Z" fill="white"/>
<path d="M559.792 211.305L561.06 212.123L557.133 215.442L555.258 215.387L553.867 214.513L554.052 212.886L556.896 212.721L559.792 211.305Z" fill="white"/>
<path d="M531.195 93.9025L533.277 92.5419L533.091 91.0158L531.772 90.3354L531.958 88.4691H533.091V87.4487L528.176 86.2627L520.807 86.943L520.055 89.8298L518.355 89.3241L517.221 87.6233L513.625 87.7888L513.243 91.0158L511.543 91.6961L510.595 89.9953L503.031 95.4287L504.546 96.9548L501.712 98.1408L495.281 109.522L493.014 110.883L493.2 111.903L495.467 112.924L494.9 115.13L491.118 114.956L489.984 113.77L487.532 116.316L486.017 117.337L485.636 119.718L484.316 120.398L480.916 121.079L479.215 125.841L480.349 133.655L481.668 137.223L483.183 138.583L486.584 138.418L491.499 134.17L493.385 131.283L493.952 135.531L497.167 130.438L497.353 116.16L499.97 114.689L500.753 106.81L508.688 96.6146L512.47 95.4287L514.171 93.5624L519.839 94.7483L522.673 96.2745L523.621 92.027L528.351 89.4804L531.195 93.9025Z" fill="white"/>
<path d="M459.738 137.058L457.853 139.604L458.605 140.625H462.954V142.326L461.82 143.686L462.572 147.253L465.025 151.501L466.911 155.408L469.93 156.428L471.25 158.469L471.064 160.336L469.178 161.356L468.993 162.202L470.312 162.882L469.178 164.243L466.53 165.263L461.429 164.758L453.483 167.985L450.835 166.799L458.399 162.891L457.451 162.386L453.483 162.046L455.936 158.819L456.317 156.097L459.532 155.757L458.966 150.489L455.184 150.324L454.05 149.138L454.235 145.231L451.968 145.396L454.235 138.602L458.399 135.881L459.738 137.058Z" fill="white"/>
<path d="M451.803 148.448L448.403 148.788L448.217 151.51L450.484 152.87L452.937 152.365L453.885 150.839L451.803 148.448Z" fill="white"/>
<path d="M452.927 153.119L451.989 158.635L443.672 161.356H441.024L439.138 160.17V159.15L443.302 156.769L442.168 154.728L442.353 151.841L445.95 152.007L447.599 148.55L447.382 151.62L450.175 153.597L452.927 153.119Z" fill="white"/>
<path d="M512.913 96.1465L514.933 97.8105H518.715L520.797 101.378L521.364 107.491L516.263 110.718V113.945L512.666 118.367L510.584 118.533L507.751 122.78L507.936 126.862L512.852 130.089L512.47 131.955L510.584 134.502L507.751 136.708L507.936 144.017L503.587 145.378L502.072 148.265H499.991L498.857 143.171L494.127 136.699L498.012 130.898L498.28 116.565L500.959 115.251L501.609 107.05L509.245 97.2957L512.913 96.1465Z" fill="white"/>
<path d="M522.261 107.51L524.394 108.346L525.713 110.553L524.394 112.079L517.778 118.533L516.644 121.934L518.159 126.862L523.26 130.264L530.062 127.377L535.544 126.696L540.645 119.388L536.863 111.398L533.267 103.749L533.833 98.8216L531.566 98.4815L530.979 94.8868L527.928 90.4463L524.548 92.5332L523.219 97.3782L519.633 95.4568L514.645 94.3719L513.532 95.5303L515.449 97.0748L518.942 97.0197L521.756 101.074L522.261 107.51Z" fill="white"/>
<path d="M533.885 139.163L526.826 138.143L526.98 141.664L533.524 145.231L536.203 144.532L536.049 141.848L533.885 139.163Z" fill="white"/>
<path d="M522.229 135.733L520.632 135.688L519.705 136.524L520.374 137.407L521.972 137.499L522.796 136.432L522.229 135.733Z" fill="white"/>
<path d="M522.075 139.485L520.529 139.347L517.747 142.316V143.704L518.674 144.026L520.477 144.072L523.466 141.893L523.878 141.149L522.075 139.485Z" fill="white"/>
<path d="M526.403 142.225L524.188 142.179L521.148 144.771H518.571L518.726 148.017L517.18 150.563L522.745 150.609L524.342 150.425L525.94 152.145L529.598 152.007L533.102 148.026L532.896 145.663L526.403 142.225Z" fill="white"/>
<path d="M526.249 152.88L527.794 155.151L527.176 156.962L527.279 158.396L527.846 160.115L531.04 158.497L535.008 158.589L537.79 159.609H544.85L546.911 155.206L548.147 153.542V152.429L543.716 146.867L539.8 145.479L536.605 145.157L533.823 145.948L533.926 148.449L530.061 152.806L526.249 152.88Z" fill="white"/>
<path d="M527.073 160.666L527.949 162.101L528.155 163.627L527.434 165.107L525.785 167.938L524.394 168.499L522.59 167.801L521.508 167.847L518.88 168.729L515.892 167.938L511.048 164.877L506.308 162.606L504.401 160.014L504.041 153.9L507.751 151.022L512.594 149.588L514.398 149.404L513.676 150.701L514.14 151.206L522.291 151.344L524.043 151.298L526.929 155.242L526.207 156.86L526.517 158.763L527.073 160.666Z" fill="white"/>
<path d="M462.047 188.468H448.918L446.269 187.401L444.992 187.484L443.446 190.353L443.992 193.304L449.011 193.717L449.65 195.602L447.465 206.588L447.558 208.556L451.113 210.275L455.214 210.523L463.417 208.721L467.426 204.216L467.519 199.629L474.63 193.892L474.99 191.355L468.519 191.272L462.047 188.468Z" fill="white"/>
<path d="M444.085 194.204L443.446 202.157L441.622 203.627L441.807 204.528L443.085 206.413L442.261 208.712L443.631 209.125L446.826 208.794L446.64 206.496L448.732 195.841L448.279 194.37L444.085 194.204Z" fill="white"/>
<path d="M475.176 199.693L473.537 200.19L473.898 201.504H476.268L477.268 200.521L475.176 199.693Z" fill="white"/>
<path d="M492.138 196.172L489.407 197.404L489.768 202.157L491.953 202.488L493.591 201.09V196.586L492.138 196.172Z" fill="white"/>
<path d="M492.416 190.27L490.407 192.071L490.221 193.708L491.86 194.609L492.499 194.526L492.86 192.145L492.416 190.27Z" fill="white"/>
<path d="M474.454 164.289L472.177 164.786L467.622 169.208L466.251 169.29L464.427 168.141L463.242 168.389L462.335 170.927L455.678 171.092L455.863 172.407L460.418 175.11L465.705 178.879L465.612 183.384L462.789 187.806L468.9 190.426L475.103 190.592L477.02 188.624L480.936 188.707L482.029 189.608L485.945 189.36L487.954 187.062L485.398 184.359L485.213 182.639L485.759 180.755L484.481 179.118L482.297 179.688L482.018 178.217L486.851 173.464V170.596L483.657 168.959L482.018 168.711L474.454 164.289Z" fill="white"/>
<path d="M484.44 154.7L479.772 156.75L480.761 157.55L480.864 159.6L479.875 159.426L478.783 157.909L476.175 161.595L480.184 162.34L481.678 163.747L482.472 163.765L482.997 160.584L485.522 159.637L484.44 154.7Z" fill="white"/>
<path d="M475.701 162.284L475.042 163.755L482.132 167.929L484.172 168.361L484.244 166.385L482.461 164.601H481.369L479.875 163.084L475.701 162.284Z" fill="white"/>
<path d="M485.522 154.342L489.201 153.808V151.492L492.282 151.041L493.972 152.558L495.755 152.733L498.538 151.657L501.021 152.282L503.206 153.974L503.505 160.308L505.69 162.901L502.814 163.259L498.043 165.935L498.445 166.826L502.711 170.393L502.412 172.177L498.445 173.961L494.766 174.052L493.869 175.744H491.984L491.087 173.961L487.81 173.243L487.707 170.302L484.924 168.61L485.223 166.468L483.337 164.151L483.832 161.117L486.408 160.042L485.522 154.342Z" fill="white"/>
<path d="M491.324 139.282L487.047 143.502L486.893 146.251L488.84 150.783L491.891 150.269L491.51 146.564L493.612 144.467L493.571 142.822L492.087 139.393L491.324 139.282Z" fill="white"/>
<path d="M496.137 146.766L495.178 146.729L493.921 147.759L494.075 149.368L497.054 149.442L497.208 147.621L496.137 146.766Z" fill="white"/>
<path d="M513.707 138.06L511.533 139.595L512.625 141.847L514.552 140.174L513.707 138.06Z" fill="white"/>
<path d="M487.346 174.107L482.853 178.373L482.946 178.805L484.79 178.29L486.45 180.35L489.253 179.467L491.19 180.81L491.984 180.405L494.374 177.059L493.766 176.544L491.406 176.489L490.263 174.402L487.346 174.107Z" fill="white"/>
<path d="M503.34 169.962H506.401H507.905L510.348 171.515L514.872 168.16L510.481 165.365L506.133 163.489L503.154 163.967L499.115 166.284L503.34 169.962Z" fill="white"/>
<path d="M510.976 172.039L511.687 172.6L511.78 173.556L519.643 173.4L525.455 171.165L525.362 168.895L524.25 169.336L522.652 168.573L521.673 168.536L519.097 169.455L515.593 168.702L510.976 172.039Z" fill="white"/>
<path d="M495.302 174.788L494.632 176.029L495.209 176.911L497.61 176.47H499.651L501.866 178.143L506.576 177.38L510.038 175.542L510.925 174.3L510.791 172.701L507.679 170.623L503.505 170.66L503.155 172.774L498.764 174.687L495.302 174.788Z" fill="white"/>
<path d="M511.904 174.309L510.708 175.983L510.801 178.538L512.707 179.412L518.571 179.568L526.743 173.427L526.784 172.066L525.898 171.671L519.993 174.061L511.904 174.309Z" fill="white"/>
<path d="M509.904 176.507L507.287 177.904L502.402 178.86L503.381 181.379L506.802 181.416L509.956 179.063L509.904 176.507Z" fill="white"/>
<path d="M510.749 179.421L507.112 182.096H503.422L502.979 184.413L504.669 184.808L505.514 183.687L506.844 184.726L507.905 188.035L515.191 191.069L515.912 190.334L508.523 183.53L509.276 182.289L516.294 182.05L517.005 180.055L512.429 180.175L510.749 179.421Z" fill="white"/>
<path d="M509.904 182.897L509.523 183.458L516.438 189.82L518.973 186.492L518.88 185.177L516.664 182.777L509.904 182.897Z" fill="white"/>
<path d="M486.687 181.094L486.048 182.538L486.223 184.11L488.686 186.675L492.561 186.555L501.114 195.418L506.452 196.797L509.606 199.454L510.358 205.513L512.048 204.63L513.511 201.33L513.151 198.958L515.655 198.755L516.016 197.413L508.956 194.398L502.258 188.523L499.589 185.011L498.94 181.674L502.351 180.947L501.475 178.75L499.383 177.178L497.579 177.104L495.065 177.72L492.695 180.681L491.262 181.527L489.047 180.313L486.687 181.094Z" fill="white"/>
<path d="M507.472 205.034L505.978 204.317L500.877 205.034L501.052 206.266L505.638 208.326L506.328 208.997L507.534 209.153L507.472 205.034Z" fill="white"/>
<path d="M507.648 211.884L505.927 212.196L505.989 213.897L507.534 214.357L508.225 213.842L507.648 211.884Z" fill="white"/>
<path d="M531.309 159.187L528.32 160.685L529.062 163.517L526.3 168.711L526.321 171L527.619 171.736L535.946 172.104L538.275 170.384L540.769 171.129L544.345 175.386L541.727 179.578L544.839 180.387L548.91 176.204L551.239 176.581L553.403 177.923L551.497 180.166L554.073 183.752H556.814L558.226 181.361L561.132 180.837L561.215 178.898L555.815 178.153L555.979 176.066H561.215L566.862 172.03L569.356 170.09L569.768 163.967L558.638 163.076L554.073 157.33L550.92 156.364L547.096 156.511L545.375 160.308L537.543 160.4L534.998 159.352L531.309 159.187Z" fill="white"/>
<path d="M536.646 172.572L539.841 176.957L539.573 179.44L540.717 179.486L543.427 175.395L540.171 171.791L538.326 171.11L536.646 172.572Z" fill="white"/>
<path d="M527.815 172.471L527.547 173.831L521.58 178.263L526.568 184.79L529.763 186.785H535.513L537.409 185.369L539.955 185.075L541.851 186.096L545.21 182.685L544.561 180.975L541.15 180.193L538.821 180.092L538.934 177.169L535.843 172.829L527.815 172.471Z" fill="white"/>
<path d="M520.315 190.535L520.269 189.675L518.908 187.971L516.706 190.749L517.139 191.916L518.932 192.21L520.315 190.535Z" fill="white"/>
<path d="M520.983 178.851L518.87 180.267H517.839L517.139 182.216L519.633 184.799L519.798 186.85L519.446 187.294L521.132 189.407L521.191 190.527L522.404 191.576L526.361 190.501L526.031 185.48L520.983 178.851Z" fill="white"/>
<path d="M527.052 186.069L527.217 190.647L528.949 193.865L535.451 193.966L538.378 192.118L541.253 191.097L540.552 188.174L541.202 186.611L539.738 185.931L537.729 186.078L536.152 187.494L529.536 187.54L527.052 186.069Z" fill="white"/>
<path d="M519.406 192.844V197.082L520.766 199.371L521.745 199.27L523.425 196.54L522.446 195.317L522.065 192.292L520.766 191.217L519.406 192.844Z" fill="white"/>
<path d="M526.517 191.235L523.044 192.256L523.209 194.885L524.023 195.814L528.145 194.104L526.517 191.235Z" fill="white"/>
<path d="M522.178 200.052L522.065 201.274L526.836 203.416L529.113 204.198L527.918 205.319L525.259 205.558L524.878 206.634L525.795 208.482L528.773 209.898L530.072 209.999L530.237 206.827L532.184 204.731L526.867 199.123L527.568 197.22L528.815 197.174L530.711 198.535L531.906 198.001L532.288 196.098L537.873 196.144L538.089 193.221L535.76 194.682L528.928 194.535L524.486 196.586L522.178 200.052Z" fill="white"/>
<path d="M538.986 192.789L538.821 196.053L542.016 195.179L543.479 194.306L543.046 192.89L541.531 191.814L538.986 192.789Z" fill="white"/>
<path d="M532.535 211.994L534.214 212.04L534.915 212.969H537.358L538.986 212.435L539.532 213.024L538.45 214.292L533.679 214.44L532.813 213.419L531.896 212.932L532.535 211.994Z" fill="white"/>
</g>
</svg>
