<svg width="100" height="20" viewBox="0 0 100 20" fill="none" xmlns="http://www.w3.org/2000/svg">
<g clip-path="url(#clip0)">
<path fill-rule="evenodd" clip-rule="evenodd" d="M4.46822 -0.09375C5.38751 -0.09375 6.09465 0.619586 6.09465 1.54692V18.453C6.09465 19.309 5.38751 20.0936 4.46822 20.0936C3.54894 20.0936 2.8418 19.309 2.8418 18.453V1.54692C2.8418 0.619586 3.54894 -0.09375 4.46822 -0.09375Z" fill="white"/>
<path fill-rule="evenodd" clip-rule="evenodd" d="M10.9743 -0.09375C11.8936 -0.09375 12.6008 0.619586 12.6008 1.54692V18.453C12.6008 19.309 11.8936 20.0936 10.9743 20.0936C10.1258 20.0936 9.3479 19.309 9.3479 18.453V1.54692C9.3479 0.619586 10.1258 -0.09375 10.9743 -0.09375Z" fill="white"/>
<path fill-rule="evenodd" clip-rule="evenodd" d="M94.9122 5.96977V4.68577H95.5486V4.40044H93.9929V4.68577H94.5586V5.96977H94.9122ZM97.0336 4.5431L96.6093 5.6131C96.6093 5.68444 96.6093 5.68444 96.5386 5.6131L96.1851 4.5431C96.1851 4.5431 96.1144 4.5431 96.1144 4.47177C96.0436 4.40043 95.9022 4.3291 95.8315 4.40044C95.6901 4.40044 95.6194 4.47177 95.6194 4.61444V5.96977H95.9022V4.7571C95.9022 4.68577 95.9729 4.7571 95.9729 4.7571L96.3265 5.8271C96.3972 5.96977 96.4679 6.04111 96.6093 6.04111C96.7508 6.04111 96.7508 5.89844 96.8215 5.8271L97.2458 4.7571C97.2458 4.7571 97.2458 4.68577 97.2458 4.7571V5.96977H97.5993V4.61444C97.5993 4.47177 97.4579 4.40044 97.3165 4.3291C97.1751 4.3291 97.1043 4.40043 97.0336 4.5431Z" fill="white"/>
<path fill-rule="evenodd" clip-rule="evenodd" d="M84.0219 17.2404H91.0933C92.9319 17.2404 93.9926 16.099 93.9219 14.2444C93.9219 13.2457 93.639 12.3184 92.7197 11.6764C92.0126 11.2484 91.2347 11.0344 90.4569 10.8204L88.194 10.1784C87.7697 10.0357 87.3455 9.96436 86.9919 9.67903C86.7797 9.46503 86.7797 9.32236 86.7797 9.10836C86.7797 8.60902 86.9919 8.39502 87.5576 8.39502H93.4976V6.04102H87.204C85.6483 6.04102 84.3048 6.46902 83.9512 8.25236C83.8098 9.32236 83.8805 10.4637 84.6583 11.2484C85.2947 11.8904 86.0726 12.1757 86.9212 12.461L88.9719 12.9604C89.4669 13.103 89.9619 13.2457 90.4569 13.4597C90.5983 13.531 90.8105 13.6024 90.8812 13.745C90.9519 13.959 91.0226 14.387 90.8812 14.601C90.7397 14.815 90.5276 14.8864 90.2447 14.8864H84.0219V17.2404Z" fill="white"/>
<path fill-rule="evenodd" clip-rule="evenodd" d="M73.8395 8.39507C74.9003 8.39507 76.1024 8.60907 76.1731 9.89307C76.1731 10.1071 76.2438 10.3211 75.961 10.3211H71.4352C71.4352 9.82174 71.506 9.3224 71.8595 8.96574C72.2838 8.4664 73.0617 8.39507 73.8395 8.39507ZM73.0617 14.8864C72.4253 14.8151 71.8595 14.6724 71.5767 14.0304C71.506 13.6024 71.4352 13.1744 71.4352 12.7464H77.2338C78.0824 12.7464 78.7188 12.3184 79.0017 11.5337C79.2138 11.1057 79.2138 10.6064 79.2138 10.1071C79.1431 8.8944 78.8603 7.75306 77.941 6.9684C76.7388 6.04106 75.2538 5.96973 73.8395 5.96973C72.2838 5.96973 70.7281 6.11239 69.526 7.25373C68.4652 8.4664 68.3945 10.0357 68.3945 11.5337C68.3945 12.3184 68.3945 13.0317 68.536 13.7451C68.6774 14.6011 68.8895 15.3858 69.3845 16.0278C70.021 16.7411 70.7281 17.0264 71.5767 17.1691C72.001 17.2404 72.3545 17.2404 72.7081 17.2404H78.8603V14.8864H73.4152H73.0617Z" fill="white"/>
<path fill-rule="evenodd" clip-rule="evenodd" d="M38.3403 12.461V14.6724C38.3403 14.8864 38.1281 14.8864 37.916 14.8864H34.6631C34.0267 14.8864 33.8853 14.2444 33.8853 13.6737C33.8853 13.103 33.956 12.5324 34.7339 12.461H38.3403ZM31.6931 6.04102V8.46636H37.2089C37.4917 8.46636 37.7746 8.53769 38.0574 8.75169C38.2696 9.03702 38.3403 9.32236 38.3403 9.60769V10.107H34.0267C33.3903 10.107 32.8953 10.1784 32.3296 10.4637C31.1981 11.177 30.9153 12.3184 30.9153 13.6024C30.9153 14.8864 31.1274 16.313 32.3296 17.0264C32.8953 17.2404 33.3903 17.3117 34.0267 17.3117H39.0474C40.4617 17.3117 41.2396 16.6697 41.2396 15.243V9.67903C41.2396 8.89436 41.0981 8.18102 40.7446 7.46769C40.1081 6.46902 39.1181 6.11235 37.9867 6.04102H31.6931Z" fill="white"/>
<path fill-rule="evenodd" clip-rule="evenodd" d="M20.7319 9.60788V5.89853C20.7319 5.75586 20.7319 5.54186 20.8027 5.47053C20.9441 5.32786 21.0855 5.32786 21.2269 5.32786H25.4698C26.4598 5.32786 27.0962 5.6132 27.2377 6.61187C27.3791 7.25387 27.3791 7.9672 27.2377 8.60921C26.9548 9.53654 26.2477 9.60788 25.4698 9.60788H20.7319ZM20.7319 17.3119V12.3186H26.9548C27.8741 12.3186 28.7227 12.1046 29.4298 11.4625C30.1369 10.7492 30.4198 9.75054 30.5612 8.75187C30.6319 7.89587 30.6319 6.96854 30.5612 6.11253C30.4905 5.47053 30.3491 4.82853 29.9955 4.18653C29.2177 2.97385 28.0155 2.68852 26.6719 2.61719H26.5305H19.8834C19.1762 2.61719 18.4691 2.83119 17.9741 3.40186C17.5498 3.90119 17.5498 4.40053 17.5498 5.04253V17.3119H20.7319Z" fill="white"/>
<path fill-rule="evenodd" clip-rule="evenodd" d="M43.3615 7.18235C42.5129 8.10969 42.3008 9.17969 42.3008 10.321V17.2404H45.2001V10.963C45.2708 10.3924 45.2708 9.75036 45.5536 9.25103C46.0486 8.53769 46.7558 8.39502 47.4629 8.39502H49.3015V6.04102H46.8972C45.5536 6.04102 44.3515 6.25502 43.3615 7.18235Z" fill="white"/>
<path fill-rule="evenodd" clip-rule="evenodd" d="M82.961 17.2406H80.0618V2.5459H82.961V17.2406Z" fill="white"/>
<path fill-rule="evenodd" clip-rule="evenodd" d="M67.5454 17.2406H64.5754V2.61719H67.5454V17.2406Z" fill="white"/>
<path fill-rule="evenodd" clip-rule="evenodd" d="M63.5148 17.2406H60.6155V2.61719H63.5148V17.2406Z" fill="white"/>
<path fill-rule="evenodd" clip-rule="evenodd" d="M56.5854 12.461V14.601C56.5854 14.8864 56.444 14.8864 56.2318 14.8864H52.979C52.2718 14.815 52.2011 14.2444 52.2011 13.6737C52.2011 13.0317 52.2718 12.461 53.0497 12.461H56.5854ZM49.9383 6.04102V8.39502H55.454C55.8076 8.39502 56.0904 8.46636 56.3026 8.75169C56.5854 8.96569 56.5854 9.25103 56.5854 9.60769V10.0357H52.3425C51.7061 10.0357 51.1404 10.107 50.6454 10.4637C49.4433 11.177 49.2311 12.247 49.1604 13.531C49.2311 14.815 49.3725 16.2417 50.6454 16.9551C51.1404 17.2404 51.7061 17.2404 52.3425 17.2404H57.3633C58.7776 17.2404 59.5554 16.5984 59.5554 15.1717V9.67903C59.4847 8.89436 59.414 8.10969 58.9897 7.39635C58.424 6.39768 57.3633 6.04102 56.3026 6.04102H49.9383Z" fill="white"/>
</g>
<defs>
<clipPath id="clip0">
<rect width="99" height="19" fill="white" transform="translate(0.721191 0.5)"/>
</clipPath>
</defs>
</svg>
