<svg width="509" height="535" viewBox="0 0 509 535" fill="none" xmlns="http://www.w3.org/2000/svg">
<circle opacity="0.05" cx="260.5" cy="247.852" r="247.852" fill="#40A8E7"/>
<g filter="url(#filter0_d)">
<circle cx="266.944" cy="248.348" r="196.795" fill="white"/>
</g>
<path fill-rule="evenodd" clip-rule="evenodd" d="M266.944 445.143C375.631 445.143 463.739 357.035 463.739 248.348C463.739 139.662 375.631 51.5537 266.944 51.5537C158.257 51.5537 70.1494 139.662 70.1494 248.348C70.1494 357.035 158.257 445.143 266.944 445.143ZM266.5 358.001C326.975 358.001 376 308.752 376 248.001C376 187.249 326.975 138.001 266.5 138.001C206.025 138.001 157 187.249 157 248.001C157 308.752 206.025 358.001 266.5 358.001Z" fill="#EDF9FD"/>
<g opacity="0.1" filter="url(#filter1_f)">
<path d="M410.112 192.661L432.294 126.637C432.88 124.892 430.979 123.359 429.398 124.303L421.701 128.896C361.092 50.9136 250.218 29.3775 164.083 82.2411C98.0016 122.797 64.3707 196.162 71.2964 268.47L157.118 249.457C157.2 212.675 175.783 176.788 209.434 156.135C254.348 128.571 311.305 137.228 346.213 173.946L338.576 178.504C336.995 179.447 337.441 181.848 339.255 182.161L407.895 193.984C408.859 194.15 409.8 193.588 410.112 192.661Z" fill="#2755A3"/>
</g>
<path d="M409.116 189.831L431.299 123.807C431.885 122.062 429.984 120.529 428.403 121.473L420.706 126.066C360.096 48.0835 249.223 26.5474 163.088 79.411C97.0064 119.967 63.3755 193.332 70.3012 265.64L156.123 246.627C156.205 209.845 174.788 173.958 208.439 153.305C253.352 125.741 310.31 134.398 345.218 171.116L337.581 175.674C336 176.617 336.446 179.018 338.26 179.33L406.9 191.154C407.864 191.32 408.805 190.758 409.116 189.831Z" fill="#40A8E7"/>
<path d="M409.116 189.831L431.299 123.807C431.885 122.062 429.984 120.529 428.403 121.473L420.706 126.066C360.096 48.0835 249.223 26.5474 163.088 79.411C97.0064 119.967 63.3755 193.332 70.3012 265.64L156.123 246.627C156.205 209.845 174.788 173.958 208.439 153.305C253.352 125.741 310.31 134.398 345.218 171.116L337.581 175.674C336 176.617 336.446 179.018 338.26 179.33L406.9 191.154C407.864 191.32 408.805 190.758 409.116 189.831Z" fill="url(#paint0_radial)"/>
<path d="M409.116 189.831L431.299 123.807C431.885 122.062 429.984 120.529 428.403 121.473L420.706 126.066C360.096 48.0835 249.223 26.5474 163.088 79.411C97.0064 119.967 63.3755 193.332 70.3012 265.64L156.123 246.627C156.205 209.845 174.788 173.958 208.439 153.305C253.352 125.741 310.31 134.398 345.218 171.116L337.581 175.674C336 176.617 336.446 179.018 338.26 179.33L406.9 191.154C407.864 191.32 408.805 190.758 409.116 189.831Z" fill="#EDF9FD"/>
<path opacity="0.15" d="M345.725 170.609L336.952 175.804C335.504 176.662 335.905 178.858 337.562 179.149L406.757 191.311C407.638 191.466 408.5 190.955 408.788 190.109L431.389 123.588C431.931 121.994 430.197 120.587 428.749 121.444L420.355 126.415M421.363 126.016C395.955 97.3268 378.597 84.3529 342.76 66.0407M345.636 171.102C327.849 154.648 316.488 147.11 290.532 140.588" stroke="url(#paint1_linear)" stroke-width="1.98282"/>
<mask id="mask0" mask-type="alpha" maskUnits="userSpaceOnUse" x="59" y="38" width="388" height="197">
<path d="M122.581 188.549L59.99 220.096L95.4999 125.001L201.5 38.001L370 57.501L446.5 125.001L421 206.001L343 192.501L296 157.501L215 163.501L159 234.501L126.36 189.467C125.497 188.275 123.896 187.886 122.581 188.549Z" fill="#C4C4C4"/>
</mask>
<g mask="url(#mask0)">
<g filter="url(#filter2_ii)">
<path d="M409.116 189.831L431.299 123.807C431.885 122.062 429.984 120.529 428.403 121.473L420.706 126.066C360.096 48.0835 249.223 26.5474 163.088 79.411C97.0064 119.967 63.3755 193.332 70.3012 265.64L156.123 246.627C156.205 209.845 174.788 173.958 208.439 153.305C253.352 125.741 310.31 134.398 345.218 171.116L337.581 175.674C336 176.617 336.446 179.018 338.26 179.33L406.9 191.154C407.864 191.32 408.805 190.758 409.116 189.831Z" fill="#40A8E7"/>
<path d="M409.116 189.831L431.299 123.807C431.885 122.062 429.984 120.529 428.403 121.473L420.706 126.066C360.096 48.0835 249.223 26.5474 163.088 79.411C97.0064 119.967 63.3755 193.332 70.3012 265.64L156.123 246.627C156.205 209.845 174.788 173.958 208.439 153.305C253.352 125.741 310.31 134.398 345.218 171.116L337.581 175.674C336 176.617 336.446 179.018 338.26 179.33L406.9 191.154C407.864 191.32 408.805 190.758 409.116 189.831Z" fill="url(#paint2_radial)"/>
</g>
<mask id="mask1" mask-type="alpha" maskUnits="userSpaceOnUse" x="69" y="50" width="363" height="216">
<path fill-rule="evenodd" clip-rule="evenodd" d="M409.116 189.831L431.299 123.806C431.885 122.061 429.984 120.529 428.403 121.472L420.706 126.066C360.097 48.083 249.223 26.5469 163.088 79.4106C97.0064 119.966 63.3755 193.331 70.3012 265.639L156.123 246.626C156.205 209.844 174.788 173.957 208.439 153.305C253.352 125.74 310.31 134.397 345.218 171.116L337.581 175.673C336 176.617 336.446 179.017 338.26 179.33L406.9 191.153C407.864 191.319 408.805 190.758 409.116 189.831Z" fill="#40A8E7"/>
<path fill-rule="evenodd" clip-rule="evenodd" d="M409.116 189.831L431.299 123.806C431.885 122.061 429.984 120.529 428.403 121.472L420.706 126.066C360.097 48.083 249.223 26.5469 163.088 79.4106C97.0064 119.966 63.3755 193.331 70.3012 265.639L156.123 246.626C156.205 209.844 174.788 173.957 208.439 153.305C253.352 125.74 310.31 134.397 345.218 171.116L337.581 175.673C336 176.617 336.446 179.017 338.26 179.33L406.9 191.153C407.864 191.319 408.805 190.758 409.116 189.831Z" fill="url(#paint3_radial)"/>
</mask>
<g mask="url(#mask1)">
<rect x="-21.8977" y="87.583" width="554.371" height="219.346" transform="rotate(17.072 -21.8977 87.583)" fill="url(#paint4_linear)"/>
<rect x="260.718" y="-9.16504" width="435.22" height="219.346" transform="rotate(75.8025 260.718 -9.16504)" fill="url(#paint5_linear)"/>
</g>
</g>
<g opacity="0.1" filter="url(#filter3_f)">
<path d="M124.06 186.589L61.986 218.182C60.3454 219.017 60.6292 221.442 62.4183 221.876L71.1296 223.988C59.7776 322.099 123.837 415.122 222.343 437.712C297.915 455.043 373.302 426.229 418.999 369.765L344.424 323.231C318.605 349.429 280.207 362.031 241.723 353.205C190.359 341.426 155.765 295.356 156.564 244.699L165.207 246.794C166.996 247.228 168.359 245.202 167.283 243.708L126.568 187.197C125.996 186.403 124.931 186.145 124.06 186.589Z" fill="#2755A3"/>
</g>
<path d="M122.788 189.305L60.7143 220.899C59.0737 221.734 59.3575 224.159 61.1465 224.593L69.8579 226.705C58.5059 324.816 122.565 417.839 221.071 440.429C296.643 457.76 372.03 428.946 417.727 372.482L343.152 325.948C317.333 352.146 278.935 364.747 240.451 355.922C189.087 344.142 154.493 298.073 155.292 247.416L163.935 249.511C165.724 249.945 167.087 247.919 166.011 246.425L125.296 189.913C124.724 189.12 123.66 188.862 122.788 189.305Z" fill="#40A8E7"/>
<path d="M122.788 189.305L60.7143 220.899C59.0737 221.734 59.3575 224.159 61.1465 224.593L69.8579 226.705C58.5059 324.816 122.565 417.839 221.071 440.429C296.643 457.76 372.03 428.946 417.727 372.482L343.152 325.948C317.333 352.146 278.935 364.747 240.451 355.922C189.087 344.142 154.493 298.073 155.292 247.416L163.935 249.511C165.724 249.945 167.087 247.919 166.011 246.425L125.296 189.913C124.724 189.12 123.66 188.862 122.788 189.305Z" fill="url(#paint6_radial)"/>
<path d="M122.788 189.305L60.7143 220.899C59.0737 221.734 59.3575 224.159 61.1465 224.593L69.8579 226.705C58.5059 324.816 122.565 417.839 221.071 440.429C296.643 457.76 372.03 428.946 417.727 372.482L343.152 325.948C317.333 352.146 278.935 364.747 240.451 355.922C189.087 344.142 154.493 298.073 155.292 247.416L163.935 249.511C165.724 249.945 167.087 247.919 166.011 246.425L125.296 189.913C124.724 189.12 123.66 188.862 122.788 189.305Z" fill="#EDF9FD"/>
<path opacity="0.15" d="M154.575 247.422L164.475 249.858C166.109 250.26 167.362 248.412 166.383 247.043L125.508 189.901C124.988 189.174 124.015 188.934 123.217 189.337L60.4962 220.991C58.9935 221.75 59.2455 223.968 60.8799 224.37L70.3527 226.701M69.3539 226.279C67.3976 264.553 70.7012 285.97 83.4573 324.14M154.984 247.133C156.157 271.334 158.986 284.672 172.946 307.505" stroke="url(#paint7_linear)" stroke-width="1.98282"/>
<mask id="mask2" mask-type="alpha" maskUnits="userSpaceOnUse" x="148" y="113" width="413" height="413">
<path d="M409.659 189.877L431.61 123.312L473.743 215.663L460.308 352.135L327.372 457.494L225.549 463.858L186.305 388.551L251.005 342.942L308.988 334.457L362.021 272.939L351.414 183.136L406.337 191.9C407.791 192.132 409.198 191.275 409.659 189.877Z" fill="#C4C4C4"/>
</mask>
<g mask="url(#mask2)">
<g opacity="0.1" filter="url(#filter4_f)">
<path d="M273.707 402.534L328.634 445.363C330.085 446.495 332.162 445.21 331.796 443.405L330.016 434.62C423.689 403.313 480.787 305.862 459.491 207.068C453.306 178.377 441.144 152.513 424.591 130.501L349.445 175.501C361.656 189.186 370.595 206.127 374.736 225.337C385.841 276.852 358.779 327.712 312.56 348.462L310.794 339.746C310.428 337.941 308.015 337.566 307.118 339.174L273.194 400.005C272.718 400.859 272.935 401.933 273.707 402.534Z" fill="#2755A3"/>
</g>
<g filter="url(#filter5_ii)">
<path d="M273.707 402.534L328.634 445.363C330.086 446.495 332.162 445.21 331.796 443.405L330.016 434.62C423.689 403.313 480.787 305.862 459.491 207.068C453.306 178.377 441.144 152.513 424.592 130.501L349.446 175.501C361.656 189.186 370.596 206.127 374.736 225.337C385.841 276.852 358.779 327.712 312.56 348.462L310.794 339.746C310.428 337.941 308.015 337.566 307.119 339.174L273.194 400.005C272.718 400.859 272.936 401.933 273.707 402.534Z" fill="#EDF9FD"/>
</g>
<path opacity="0.15" d="M312.87 349.109L310.879 339.11C310.55 337.459 308.345 337.108 307.521 338.576L273.093 399.818C272.655 400.597 272.851 401.58 273.554 402.132L328.81 445.521C330.134 446.561 332.037 445.392 331.708 443.741L329.804 434.174M329.845 435.257C365.339 420.805 383.336 408.734 412.5 381.001M312.434 348.861C333.856 337.54 344.737 329.324 359.5 307.001" stroke="url(#paint8_linear)" stroke-width="1.98282"/>
</g>
<circle opacity="0.1" cx="113.22" cy="254.848" r="30.7911" fill="#40A8E7"/>
<g filter="url(#filter6_ii)">
<rect x="92.9294" y="234.702" width="40.7304" height="40.7304" rx="20.3652" fill="#40A8E7"/>
<path d="M113.182 263.983C111.602 263.983 110.274 263.738 109.199 263.25C108.14 262.761 107.35 262.158 106.829 261.441C106.323 260.708 106.055 259.975 106.022 259.242C106.022 259.095 106.071 258.973 106.169 258.875C106.283 258.777 106.413 258.728 106.56 258.728H109.761C109.94 258.728 110.087 258.761 110.201 258.826C110.315 258.891 110.421 259.014 110.519 259.193C110.845 260.04 111.732 260.464 113.182 260.464C114.013 260.464 114.657 260.276 115.113 259.901C115.586 259.51 115.822 258.981 115.822 258.313C115.822 257.01 114.975 256.358 113.28 256.358H110.568C110.405 256.358 110.258 256.301 110.128 256.187C110.014 256.057 109.957 255.91 109.957 255.747V254.378C109.957 254.02 110.087 253.743 110.348 253.548L114.355 250.151H107.562C107.399 250.151 107.252 250.094 107.122 249.98C107.008 249.849 106.951 249.703 106.951 249.54V247.242C106.951 247.063 107.008 246.917 107.122 246.803C107.252 246.689 107.399 246.632 107.562 246.632H118.803C118.982 246.632 119.129 246.689 119.243 246.803C119.373 246.917 119.439 247.063 119.439 247.242V249.32C119.439 249.629 119.308 249.898 119.048 250.126L115.333 253.572L115.504 253.621C117.003 253.816 118.184 254.321 119.048 255.136C119.927 255.934 120.367 257.083 120.367 258.582C120.367 259.673 120.058 260.626 119.439 261.441C118.82 262.256 117.964 262.883 116.873 263.323C115.781 263.763 114.551 263.983 113.182 263.983Z" fill="white"/>
</g>
<circle opacity="0.1" cx="341.493" cy="381.882" r="30.7911" fill="#40A8E7"/>
<g filter="url(#filter7_ii)">
<rect x="321.287" y="361.675" width="40.7304" height="40.7304" rx="20.3652" fill="#40A8E7"/>
<path d="M335.342 390.711C335.163 390.711 335.008 390.654 334.878 390.54C334.764 390.426 334.707 390.279 334.707 390.1V388.365C334.707 387.876 334.91 387.477 335.318 387.167L337.859 384.675C339.342 383.534 340.466 382.646 341.232 382.011C341.997 381.376 342.576 380.797 342.967 380.276C343.358 379.754 343.553 379.258 343.553 378.785C343.553 377.498 342.918 376.854 341.647 376.854C340.979 376.854 340.466 377.058 340.107 377.465C339.749 377.856 339.513 378.353 339.399 378.956C339.301 379.331 339.024 379.518 338.568 379.518H335.513C335.366 379.518 335.244 379.469 335.146 379.372C335.049 379.274 335 379.152 335 379.005C335.032 377.962 335.318 377.009 335.855 376.146C336.409 375.266 337.183 374.574 338.177 374.069C339.187 373.547 340.344 373.286 341.647 373.286C343.016 373.286 344.189 373.506 345.166 373.946C346.144 374.386 346.885 375.005 347.39 375.804C347.895 376.602 348.148 377.531 348.148 378.59C348.148 379.73 347.789 380.773 347.072 381.718C346.372 382.646 345.296 383.656 343.846 384.748L341.598 387.021H347.879C348.058 387.021 348.205 387.078 348.319 387.192C348.449 387.306 348.514 387.453 348.514 387.632V390.1C348.514 390.279 348.449 390.426 348.319 390.54C348.205 390.654 348.058 390.711 347.879 390.711H335.342Z" fill="white"/>
</g>
<circle opacity="0.1" cx="375.171" cy="142.175" r="30.7911" fill="white"/>
<g filter="url(#filter8_ii)">
<rect x="354.964" y="121.969" width="40.7304" height="40.7304" rx="20.3652" fill="white"/>
<path d="M376.025 151.005C375.862 151.005 375.716 150.948 375.585 150.834C375.471 150.703 375.414 150.557 375.414 150.394V138.761L372.066 141.327C371.952 141.425 371.83 141.474 371.7 141.474C371.52 141.474 371.358 141.376 371.211 141.181L369.769 139.299C369.688 139.169 369.647 139.046 369.647 138.932C369.647 138.704 369.745 138.533 369.94 138.419L375.561 134.069C375.74 133.955 375.936 133.898 376.147 133.898H379.202C379.381 133.898 379.528 133.955 379.642 134.069C379.756 134.183 379.813 134.33 379.813 134.509V150.394C379.813 150.557 379.756 150.703 379.642 150.834C379.528 150.948 379.381 151.005 379.202 151.005H376.025Z" fill="#40A8E7"/>
</g>
<g filter="url(#filter9_ii)">
<path fill-rule="evenodd" clip-rule="evenodd" d="M187.204 247.94C187.204 202.804 223.778 166.23 268.914 166.23C314.051 166.23 350.624 202.804 350.624 247.94C350.624 293.077 314.051 329.65 268.914 329.65C223.816 329.65 187.204 293.077 187.204 247.94Z" fill="#40A8E7"/>
</g>
<path fill-rule="evenodd" clip-rule="evenodd" d="M261.015 254.08L266.729 231.625C266.929 230.882 267.101 229.739 267.472 228.168C267.843 226.625 268.043 225.454 268.215 224.711H270.957C271.043 225.796 271.529 228.082 272.329 231.625L278.071 254.08H261.015ZM286.299 283.307H301.727L282.014 217.311C281.3 214.569 279.557 213.197 276.728 213.197H262.387C261.13 213.197 260.015 213.54 259.015 214.283C257.987 214.997 257.387 216.026 257.187 217.311L237.388 283.307H252.902L257.844 265.594H281.385L286.299 283.307Z" fill="white"/>
<defs>
<filter id="filter0_d" x="50.3212" y="31.7255" width="433.246" height="433.246" filterUnits="userSpaceOnUse" color-interpolation-filters="sRGB">
<feFlood flood-opacity="0" result="BackgroundImageFix"/>
<feColorMatrix in="SourceAlpha" type="matrix" values="0 0 0 0 0 0 0 0 0 0 0 0 0 0 0 0 0 0 127 0"/>
<feOffset/>
<feGaussianBlur stdDeviation="9.91409"/>
<feColorMatrix type="matrix" values="0 0 0 0 0.663437 0 0 0 0 0.788946 0 0 0 0 0.886562 0 0 0 1 0"/>
<feBlend mode="normal" in2="BackgroundImageFix" result="effect1_dropShadow"/>
<feBlend mode="normal" in="SourceGraphic" in2="effect1_dropShadow" result="shape"/>
</filter>
<filter id="filter1_f" x="59.3399" y="40.4727" width="384.618" height="242.297" filterUnits="userSpaceOnUse" color-interpolation-filters="sRGB">
<feFlood flood-opacity="0" result="BackgroundImageFix"/>
<feBlend mode="normal" in="SourceGraphic" in2="BackgroundImageFix" result="shape"/>
<feGaussianBlur stdDeviation="5.43895" result="effect1_foregroundBlur"/>
</filter>
<filter id="filter2_ii" x="69.2225" y="44.8945" width="362.862" height="227.793" filterUnits="userSpaceOnUse" color-interpolation-filters="sRGB">
<feFlood flood-opacity="0" result="BackgroundImageFix"/>
<feBlend mode="normal" in="SourceGraphic" in2="BackgroundImageFix" result="shape"/>
<feColorMatrix in="SourceAlpha" type="matrix" values="0 0 0 0 0 0 0 0 0 0 0 0 0 0 0 0 0 0 127 0" result="hardAlpha"/>
<feOffset dy="3.62597"/>
<feGaussianBlur stdDeviation="1.81298"/>
<feComposite in2="hardAlpha" operator="arithmetic" k2="-1" k3="1"/>
<feColorMatrix type="matrix" values="0 0 0 0 1 0 0 0 0 1 0 0 0 0 1 0 0 0 0.25 0"/>
<feBlend mode="normal" in2="shape" result="effect1_innerShadow"/>
<feColorMatrix in="SourceAlpha" type="matrix" values="0 0 0 0 0 0 0 0 0 0 0 0 0 0 0 0 0 0 127 0" result="hardAlpha"/>
<feOffset dy="-3.62597"/>
<feGaussianBlur stdDeviation="1.81298"/>
<feComposite in2="hardAlpha" operator="arithmetic" k2="-1" k3="1"/>
<feColorMatrix type="matrix" values="0 0 0 0 0 0 0 0 0 0 0 0 0 0 0 0 0 0 0.1 0"/>
<feBlend mode="normal" in2="effect1_innerShadow" result="effect2_innerShadow"/>
</filter>
<filter id="filter3_f" x="0.224398" y="104.517" width="430.415" height="430.415" filterUnits="userSpaceOnUse" color-interpolation-filters="sRGB">
<feFlood flood-opacity="0" result="BackgroundImageFix"/>
<feBlend mode="normal" in="SourceGraphic" in2="BackgroundImageFix" result="shape"/>
<feGaussianBlur stdDeviation="5.43895" result="effect1_foregroundBlur"/>
</filter>
<filter id="filter4_f" x="262.065" y="119.623" width="212.753" height="337.044" filterUnits="userSpaceOnUse" color-interpolation-filters="sRGB">
<feFlood flood-opacity="0" result="BackgroundImageFix"/>
<feBlend mode="normal" in="SourceGraphic" in2="BackgroundImageFix" result="shape"/>
<feGaussianBlur stdDeviation="5.43895" result="effect1_foregroundBlur"/>
</filter>
<filter id="filter5_ii" x="272.943" y="126.875" width="190.997" height="322.54" filterUnits="userSpaceOnUse" color-interpolation-filters="sRGB">
<feFlood flood-opacity="0" result="BackgroundImageFix"/>
<feBlend mode="normal" in="SourceGraphic" in2="BackgroundImageFix" result="shape"/>
<feColorMatrix in="SourceAlpha" type="matrix" values="0 0 0 0 0 0 0 0 0 0 0 0 0 0 0 0 0 0 127 0" result="hardAlpha"/>
<feOffset dy="3.62597"/>
<feGaussianBlur stdDeviation="1.81298"/>
<feComposite in2="hardAlpha" operator="arithmetic" k2="-1" k3="1"/>
<feColorMatrix type="matrix" values="0 0 0 0 1 0 0 0 0 1 0 0 0 0 1 0 0 0 0.25 0"/>
<feBlend mode="normal" in2="shape" result="effect1_innerShadow"/>
<feColorMatrix in="SourceAlpha" type="matrix" values="0 0 0 0 0 0 0 0 0 0 0 0 0 0 0 0 0 0 127 0" result="hardAlpha"/>
<feOffset dy="-3.62597"/>
<feGaussianBlur stdDeviation="1.81298"/>
<feComposite in2="hardAlpha" operator="arithmetic" k2="-1" k3="1"/>
<feColorMatrix type="matrix" values="0 0 0 0 0 0 0 0 0 0 0 0 0 0 0 0 0 0 0.1 0"/>
<feBlend mode="normal" in2="effect1_innerShadow" result="effect2_innerShadow"/>
</filter>
<filter id="filter6_ii" x="91.9112" y="233.684" width="43.7851" height="43.7851" filterUnits="userSpaceOnUse" color-interpolation-filters="sRGB">
<feFlood flood-opacity="0" result="BackgroundImageFix"/>
<feBlend mode="normal" in="SourceGraphic" in2="BackgroundImageFix" result="shape"/>
<feColorMatrix in="SourceAlpha" type="matrix" values="0 0 0 0 0 0 0 0 0 0 0 0 0 0 0 0 0 0 127 0" result="hardAlpha"/>
<feOffset dx="-1.01826" dy="-1.01826"/>
<feGaussianBlur stdDeviation="1.01826"/>
<feComposite in2="hardAlpha" operator="arithmetic" k2="-1" k3="1"/>
<feColorMatrix type="matrix" values="0 0 0 0 0.0358854 0 0 0 0 0.26624 0 0 0 0 0.405781 0 0 0 0.31 0"/>
<feBlend mode="normal" in2="shape" result="effect1_innerShadow"/>
<feColorMatrix in="SourceAlpha" type="matrix" values="0 0 0 0 0 0 0 0 0 0 0 0 0 0 0 0 0 0 127 0" result="hardAlpha"/>
<feOffset dx="2.03652" dy="2.03652"/>
<feGaussianBlur stdDeviation="1.52739"/>
<feComposite in2="hardAlpha" operator="arithmetic" k2="-1" k3="1"/>
<feColorMatrix type="matrix" values="0 0 0 0 1 0 0 0 0 1 0 0 0 0 1 0 0 0 0.42 0"/>
<feBlend mode="normal" in2="effect1_innerShadow" result="effect2_innerShadow"/>
</filter>
<filter id="filter7_ii" x="320.268" y="360.657" width="43.7851" height="43.7851" filterUnits="userSpaceOnUse" color-interpolation-filters="sRGB">
<feFlood flood-opacity="0" result="BackgroundImageFix"/>
<feBlend mode="normal" in="SourceGraphic" in2="BackgroundImageFix" result="shape"/>
<feColorMatrix in="SourceAlpha" type="matrix" values="0 0 0 0 0 0 0 0 0 0 0 0 0 0 0 0 0 0 127 0" result="hardAlpha"/>
<feOffset dx="-1.01826" dy="-1.01826"/>
<feGaussianBlur stdDeviation="1.01826"/>
<feComposite in2="hardAlpha" operator="arithmetic" k2="-1" k3="1"/>
<feColorMatrix type="matrix" values="0 0 0 0 0.0358854 0 0 0 0 0.26624 0 0 0 0 0.405781 0 0 0 0.31 0"/>
<feBlend mode="normal" in2="shape" result="effect1_innerShadow"/>
<feColorMatrix in="SourceAlpha" type="matrix" values="0 0 0 0 0 0 0 0 0 0 0 0 0 0 0 0 0 0 127 0" result="hardAlpha"/>
<feOffset dx="2.03652" dy="2.03652"/>
<feGaussianBlur stdDeviation="1.52739"/>
<feComposite in2="hardAlpha" operator="arithmetic" k2="-1" k3="1"/>
<feColorMatrix type="matrix" values="0 0 0 0 1 0 0 0 0 1 0 0 0 0 1 0 0 0 0.42 0"/>
<feBlend mode="normal" in2="effect1_innerShadow" result="effect2_innerShadow"/>
</filter>
<filter id="filter8_ii" x="353.946" y="120.95" width="43.7851" height="43.7851" filterUnits="userSpaceOnUse" color-interpolation-filters="sRGB">
<feFlood flood-opacity="0" result="BackgroundImageFix"/>
<feBlend mode="normal" in="SourceGraphic" in2="BackgroundImageFix" result="shape"/>
<feColorMatrix in="SourceAlpha" type="matrix" values="0 0 0 0 0 0 0 0 0 0 0 0 0 0 0 0 0 0 127 0" result="hardAlpha"/>
<feOffset dx="-1.01826" dy="-1.01826"/>
<feGaussianBlur stdDeviation="1.01826"/>
<feComposite in2="hardAlpha" operator="arithmetic" k2="-1" k3="1"/>
<feColorMatrix type="matrix" values="0 0 0 0 0.0358854 0 0 0 0 0.26624 0 0 0 0 0.405781 0 0 0 0.31 0"/>
<feBlend mode="normal" in2="shape" result="effect1_innerShadow"/>
<feColorMatrix in="SourceAlpha" type="matrix" values="0 0 0 0 0 0 0 0 0 0 0 0 0 0 0 0 0 0 127 0" result="hardAlpha"/>
<feOffset dx="2.03652" dy="2.03652"/>
<feGaussianBlur stdDeviation="1.52739"/>
<feComposite in2="hardAlpha" operator="arithmetic" k2="-1" k3="1"/>
<feColorMatrix type="matrix" values="0 0 0 0 1 0 0 0 0 1 0 0 0 0 1 0 0 0 0.42 0"/>
<feBlend mode="normal" in2="effect1_innerShadow" result="effect2_innerShadow"/>
</filter>
<filter id="filter9_ii" x="185.01" y="164.037" width="167.808" height="167.808" filterUnits="userSpaceOnUse" color-interpolation-filters="sRGB">
<feFlood flood-opacity="0" result="BackgroundImageFix"/>
<feBlend mode="normal" in="SourceGraphic" in2="BackgroundImageFix" result="shape"/>
<feColorMatrix in="SourceAlpha" type="matrix" values="0 0 0 0 0 0 0 0 0 0 0 0 0 0 0 0 0 0 127 0" result="hardAlpha"/>
<feOffset dx="-2.19392" dy="-2.19392"/>
<feGaussianBlur stdDeviation="2.19392"/>
<feComposite in2="hardAlpha" operator="arithmetic" k2="-1" k3="1"/>
<feColorMatrix type="matrix" values="0 0 0 0 0.0358854 0 0 0 0 0.26624 0 0 0 0 0.405781 0 0 0 0.31 0"/>
<feBlend mode="normal" in2="shape" result="effect1_innerShadow"/>
<feColorMatrix in="SourceAlpha" type="matrix" values="0 0 0 0 0 0 0 0 0 0 0 0 0 0 0 0 0 0 127 0" result="hardAlpha"/>
<feOffset dx="2.19392" dy="2.19392"/>
<feGaussianBlur stdDeviation="2.19392"/>
<feComposite in2="hardAlpha" operator="arithmetic" k2="-1" k3="1"/>
<feColorMatrix type="matrix" values="0 0 0 0 1 0 0 0 0 1 0 0 0 0 1 0 0 0 0.42 0"/>
<feBlend mode="normal" in2="effect1_innerShadow" result="effect2_innerShadow"/>
</filter>
<radialGradient id="paint0_radial" cx="0" cy="0" r="1" gradientUnits="userSpaceOnUse" gradientTransform="translate(458.308 160.862) rotate(167.114) scale(489.965 403.236)">
<stop stop-color="#E41049"/>
<stop offset="0.270833" stop-color="#D350B8"/>
<stop offset="1" stop-color="#00ABE3"/>
</radialGradient>
<linearGradient id="paint1_linear" x1="345.22" y1="169.101" x2="303.263" y2="114.335" gradientUnits="userSpaceOnUse">
<stop stop-color="#005E97"/>
<stop offset="1" stop-color="#005E97" stop-opacity="0"/>
</linearGradient>
<radialGradient id="paint2_radial" cx="0" cy="0" r="1" gradientUnits="userSpaceOnUse" gradientTransform="translate(458.308 160.862) rotate(167.114) scale(489.965 403.236)">
<stop stop-color="#E41049"/>
<stop offset="0.270833" stop-color="#D350B8"/>
<stop offset="1" stop-color="#00ABE3"/>
</radialGradient>
<radialGradient id="paint3_radial" cx="0" cy="0" r="1" gradientUnits="userSpaceOnUse" gradientTransform="translate(458.309 160.862) rotate(167.114) scale(489.965 403.236)">
<stop stop-color="#E41049"/>
<stop offset="0.270833" stop-color="#D350B8"/>
<stop offset="1" stop-color="#00ABE3"/>
</radialGradient>
<linearGradient id="paint4_linear" x1="255.193" y1="87.583" x2="255.173" y2="306.929" gradientUnits="userSpaceOnUse">
<stop stop-color="white" stop-opacity="0.15"/>
<stop offset="1" stop-color="white" stop-opacity="0"/>
</linearGradient>
<linearGradient id="paint5_linear" x1="478.254" y1="-9.16504" x2="478.228" y2="210.181" gradientUnits="userSpaceOnUse">
<stop stop-color="white" stop-opacity="0.15"/>
<stop offset="1" stop-color="white" stop-opacity="0"/>
</linearGradient>
<radialGradient id="paint6_radial" cx="0" cy="0" r="1" gradientUnits="userSpaceOnUse" gradientTransform="translate(67.3863 175.532) rotate(31.5693) scale(489.965 403.236)">
<stop stop-color="#E41049"/>
<stop offset="0.270833" stop-color="#D350B8"/>
<stop offset="1" stop-color="#00ABE3"/>
</radialGradient>
<linearGradient id="paint7_linear" x1="153.879" y1="248.853" x2="145.473" y2="317.329" gradientUnits="userSpaceOnUse">
<stop stop-color="#005E97"/>
<stop offset="1" stop-color="#005E97" stop-opacity="0"/>
</linearGradient>
<linearGradient id="paint8_linear" x1="314.46" y1="349.133" x2="380.043" y2="327.72" gradientUnits="userSpaceOnUse">
<stop stop-color="#005E97"/>
<stop offset="1" stop-color="#005E97" stop-opacity="0"/>
</linearGradient>
</defs>
</svg>
