<svg width="120" height="120" viewBox="0 0 120 120" fill="none" xmlns="http://www.w3.org/2000/svg">
<g opacity="0.5" filter="url(#filter0_f)">
<path fill-rule="evenodd" clip-rule="evenodd" d="M61.4285 101.857C83.5199 101.857 101.428 83.9488 101.428 61.8574C101.428 39.766 83.5199 21.8574 61.4285 21.8574C39.3371 21.8574 21.4285 39.766 21.4285 61.8574C21.4285 83.9488 39.3371 101.857 61.4285 101.857Z" fill="#554CBE"/>
</g>
<path opacity="0.1" fill-rule="evenodd" clip-rule="evenodd" d="M60 120C93.1371 120 120 93.1371 120 60C120 26.8629 93.1371 0 60 0C26.8629 0 0 26.8629 0 60C0 93.1371 26.8629 120 60 120Z" fill="white"/>
<g filter="url(#filter1_ii)">
<path fill-rule="evenodd" clip-rule="evenodd" d="M60 100C82.0914 100 100 82.0914 100 60C100 37.9086 82.0914 20 60 20C37.9086 20 20 37.9086 20 60C20 82.0914 37.9086 100 60 100Z" fill="#40A8E7"/>
</g>
<path d="M85.8685 80.2805H34.1315C32.9543 80.2805 32 79.3262 32 78.149V42.0036C32 40.8264 32.9543 39.8721 34.1315 39.8721H85.8685C87.0457 39.8721 88 40.8264 88 42.0036V78.149C88 79.3262 87.0457 80.2805 85.8685 80.2805Z" fill="url(#paint0_linear)"/>
<path d="M88 48.4999H32V42.0036C32 40.8264 32.9543 39.8721 34.1315 39.8721H85.8685C87.0457 39.8721 88 40.8264 88 42.0036V48.4999Z" fill="url(#paint1_linear)"/>
<path d="M36.4859 45.9141H35.3627C34.7185 45.9141 34.1963 45.3919 34.1963 44.7476V43.6245C34.1963 42.9802 34.7185 42.458 35.3627 42.458H36.4859C37.1301 42.458 37.6524 42.9802 37.6524 43.6245V44.7476C37.6524 45.3919 37.1301 45.9141 36.4859 45.9141Z" fill="url(#paint2_linear)"/>
<path d="M40.8923 45.9141H39.769C39.1248 45.9141 38.6025 45.3919 38.6025 44.7476V43.6245C38.6025 42.9802 39.1248 42.458 39.769 42.458H40.8922C41.5364 42.458 42.0586 42.9802 42.0586 43.6245V44.7476C42.0587 45.3919 41.5365 45.9141 40.8923 45.9141Z" fill="url(#paint3_linear)"/>
<path d="M45.2989 45.9141H44.1757C43.5315 45.9141 43.0093 45.3919 43.0093 44.7476V43.6245C43.0093 42.9802 43.5315 42.458 44.1757 42.458H45.2989C45.9431 42.458 46.4654 42.9802 46.4654 43.6245V44.7476C46.4654 45.3919 45.9431 45.9141 45.2989 45.9141Z" fill="url(#paint4_linear)"/>
<path d="M32 70.4521V78.1493C32 79.3265 32.9543 80.2808 34.1315 80.2808H85.8685C87.0457 80.2808 88 79.3265 88 78.1493V70.4521H32Z" fill="url(#paint5_linear)"/>
<path d="M50.2397 71.2075H38.7766C37.9803 71.2075 37.3347 70.562 37.3347 69.7657V55.9077C37.3347 55.1114 37.9803 54.4658 38.7766 54.4658H50.2397C51.036 54.4658 51.6816 55.1114 51.6816 55.9077V69.7655C51.6817 70.562 51.0362 71.2075 50.2397 71.2075Z" fill="#D8E2E9"/>
<path d="M63.4601 58.6384H55.5983C55.0222 58.6384 54.5552 58.1714 54.5552 57.5952V55.509C54.5552 54.9328 55.0222 54.4658 55.5983 54.4658H63.4601C64.0362 54.4658 64.5032 54.9328 64.5032 55.509V57.5952C64.5032 58.1713 64.0362 58.6384 63.4601 58.6384Z" fill="#D8E2E9"/>
<path d="M81.6216 58.6384H67.8962C67.32 58.6384 66.853 58.1714 66.853 57.5952V55.509C66.853 54.9328 67.32 54.4658 67.8962 54.4658H81.6216C82.1978 54.4658 82.6648 54.9328 82.6648 55.509V57.5952C82.6648 58.1713 82.1978 58.6384 81.6216 58.6384Z" fill="#D8E2E9"/>
<path d="M73.7602 64.9225H81.6219C82.1981 64.9225 82.6651 64.4555 82.6651 63.8794V61.7931C82.6651 61.217 82.1981 60.75 81.6219 60.75H73.7602C73.184 60.75 72.717 61.217 72.717 61.7931V63.8794C72.717 64.4555 73.184 64.9225 73.7602 64.9225Z" fill="#D8E2E9"/>
<path d="M55.5983 64.9225H69.3238C69.8999 64.9225 70.3669 64.4555 70.3669 63.8794V61.7931C70.3669 61.217 69.8999 60.75 69.3238 60.75H55.5983C55.0222 60.75 54.5552 61.217 54.5552 61.7931V63.8794C54.5552 64.4555 55.0222 64.9225 55.5983 64.9225Z" fill="#D8E2E9"/>
<path d="M63.4601 71.2077H55.5983C55.0222 71.2077 54.5552 70.7407 54.5552 70.1646V68.0783C54.5552 67.5022 55.0222 67.0352 55.5983 67.0352H63.4601C64.0362 67.0352 64.5032 67.5022 64.5032 68.0783V70.1646C64.5032 70.7406 64.0362 71.2077 63.4601 71.2077Z" fill="#D8E2E9"/>
<path d="M81.6216 71.2077H67.8962C67.32 71.2077 66.853 70.7407 66.853 70.1646V68.0783C66.853 67.5022 67.32 67.0352 67.8962 67.0352H81.6216C82.1978 67.0352 82.6648 67.5022 82.6648 68.0783V70.1646C82.6648 70.7406 82.1978 71.2077 81.6216 71.2077Z" fill="#D8E2E9"/>
<path d="M87.9999 81.1493V78.6416L71.1831 61.8249C70.992 61.4409 70.5966 61.1765 70.1386 61.1765C69.9711 61.1765 69.8122 61.2124 69.6683 61.2759C69.5927 61.2096 69.5087 61.153 69.4178 61.1078L64.6879 56.3779C64.4967 55.9939 64.1013 55.7295 63.6434 55.7295C62.9986 55.7295 62.4759 56.2522 62.4759 56.8969C62.4759 58.0578 62.1004 59.1141 61.5263 59.8029C61.2922 59.7589 61.054 59.7271 60.8126 59.7063C60.7351 59.637 60.6485 59.5779 60.5545 59.5311L57.4012 56.3779C57.2101 55.9939 56.8147 55.7295 56.3567 55.7295C55.7119 55.7295 55.1892 56.2522 55.1892 56.8969C55.1892 58.2732 55.5506 59.5864 56.2134 60.6493C54.8819 61.4311 53.8299 62.6368 53.2458 64.0836L50.9061 61.825C50.7149 61.441 50.3195 61.1766 49.8615 61.1766C49.2168 61.1766 48.6941 61.6993 48.6941 62.3441C48.6941 63.9659 49.4253 65.4287 50.5917 66.4554L51.9602 67.8407C51.9579 67.8776 51.9557 67.9145 51.9553 67.9519C51.9518 68.2887 51.949 68.6443 51.9477 68.9931C51.1992 69.1447 50.5057 69.3591 49.901 69.6322C47.7681 70.5953 47.4497 71.9173 47.4497 72.6196C47.4497 73.0777 47.7141 73.473 48.0981 73.6642L49.5917 75.1951C49.0232 76.0563 48.694 77.0724 48.694 78.1603C48.694 78.6184 48.9584 79.0137 49.3424 79.2049L53.4183 83.2808H85.8686C87.0456 83.2808 87.9999 82.3265 87.9999 81.1493Z" fill="url(#paint6_linear)" fill-opacity="0.5"/>
<path d="M49.8615 79.3275C49.2168 79.3275 48.6941 78.8048 48.6941 78.16C48.6941 75.0606 51.3618 72.5391 54.6409 72.5391C55.2856 72.5391 55.8083 73.0617 55.8083 73.7065C55.8083 74.3513 55.2856 74.8739 54.6409 74.8739C52.6493 74.8739 51.0291 76.348 51.0291 78.1599C51.029 78.8047 50.5063 79.3275 49.8615 79.3275Z" fill="url(#paint7_linear)"/>
<path d="M54.6409 67.9642C51.3618 67.9642 48.6941 65.4426 48.6941 62.3432C48.6941 61.6984 49.2168 61.1758 49.8615 61.1758C50.5063 61.1758 51.029 61.6984 51.029 62.3432C51.029 64.1552 52.6492 65.6292 54.6407 65.6292C55.2855 65.6292 55.8082 66.1519 55.8082 66.7966C55.8082 67.4414 55.2856 67.9642 54.6409 67.9642Z" fill="url(#paint8_linear)"/>
<path d="M48.6171 73.7865C47.9724 73.7865 47.4497 73.2638 47.4497 72.6191C47.4497 71.9167 47.7681 70.5947 49.901 69.6316C51.1864 69.0511 52.8697 68.7314 54.6408 68.7314C55.2855 68.7314 55.8082 69.2541 55.8082 69.8989C55.8082 70.5436 55.2855 71.0663 54.6408 71.0663C53.2149 71.0663 51.8376 71.319 50.8619 71.7596C50.0558 72.1236 49.7846 72.5022 49.7846 72.6191C49.7846 73.2638 49.2619 73.7865 48.6171 73.7865Z" fill="url(#paint9_linear)"/>
<path d="M70.1388 79.3273C69.494 79.3273 68.9713 78.8047 68.9713 78.1599C68.9713 76.3479 67.3511 74.8739 65.3596 74.8739C64.7148 74.8739 64.1921 74.3513 64.1921 73.7065C64.1921 73.0617 64.7148 72.5391 65.3596 72.5391C68.6386 72.5391 71.3063 75.0606 71.3063 78.16C71.3062 78.8046 70.7836 79.3273 70.1388 79.3273Z" fill="url(#paint10_linear)"/>
<path d="M65.3593 67.9641C64.7146 67.9641 64.1919 67.4414 64.1919 66.7967C64.1919 66.1519 64.7146 65.6292 65.3593 65.6292C67.3508 65.6292 68.9711 64.1551 68.9711 62.3432C68.9711 61.6985 69.4938 61.1758 70.1385 61.1758C70.7833 61.1758 71.306 61.6985 71.306 62.3432C71.3061 65.4424 68.6384 67.9641 65.3593 67.9641Z" fill="url(#paint11_linear)"/>
<path d="M71.383 73.7865C70.7382 73.7865 70.2155 73.2638 70.2155 72.619C70.2155 72.5022 69.9443 72.1236 69.1382 71.7596C68.1626 71.319 66.7852 71.0663 65.3593 71.0663C64.7146 71.0663 64.1919 70.5436 64.1919 69.8989C64.1919 69.2541 64.7146 68.7314 65.3593 68.7314C67.1304 68.7314 68.8138 69.0511 70.0991 69.6316C72.232 70.5947 72.5504 71.9167 72.5504 72.619C72.5505 73.2638 72.0277 73.7865 71.383 73.7865Z" fill="url(#paint12_linear)"/>
<path d="M60.0003 62.9541C58.6687 62.9541 57.3885 62.2607 56.4878 61.0517C55.6505 59.9277 55.1895 58.4519 55.1895 56.8959C55.1895 56.2512 55.7121 55.7285 56.3569 55.7285C57.0017 55.7285 57.5243 56.2512 57.5243 56.8959C57.5243 58.9141 58.6582 60.6192 60.0002 60.6192C61.3422 60.6192 62.476 58.9141 62.476 56.8959C62.476 56.2512 62.9987 55.7285 63.6435 55.7285C64.2882 55.7285 64.8109 56.2512 64.8109 56.8959C64.8109 58.4519 64.3498 59.9277 63.5126 61.0517C62.6121 62.2607 61.3319 62.9541 60.0003 62.9541Z" fill="url(#paint13_linear)"/>
<path d="M67.2612 66.5256C67.1657 62.727 64.0548 59.7008 60.2549 59.6785C60.085 59.6775 59.9152 59.6775 59.7453 59.6785C55.9454 59.7009 52.8346 62.727 52.739 66.5256C52.7084 67.7459 52.7084 68.966 52.739 70.1862C52.8345 73.9848 55.9454 77.0109 59.7453 77.0333C59.9152 77.0343 60.085 77.0343 60.2549 77.0333C64.0548 77.0109 67.1657 73.9848 67.2612 70.1862C67.2918 68.966 67.2918 67.7458 67.2612 66.5256Z" fill="url(#paint14_linear)"/>
<path d="M53.8236 65.8849C52.7678 66.0005 51.9665 66.8901 51.9554 67.952C51.9455 68.9048 51.9418 70.0076 51.9588 70.6848C52.017 73.0023 53.1743 75.0602 54.9055 76.4454C56.9577 78.0874 60.0003 76.6075 60.0003 73.9793V65.5557C57.8507 65.5557 55.7768 65.671 53.8236 65.8849Z" fill="url(#paint15_linear)"/>
<path d="M66.1767 65.8849C67.2325 66.0005 68.0338 66.8901 68.0449 67.952C68.0548 68.9048 68.0585 70.0076 68.0415 70.6848C67.9833 73.0023 66.826 75.0602 65.0948 76.4454C63.0426 78.0874 60 76.6075 60 73.9793V65.5557C62.1496 65.5557 64.2235 65.671 66.1767 65.8849Z" fill="url(#paint16_linear)"/>
<path d="M60.0001 48.4689C66.1915 48.4689 71.2106 43.4498 71.2106 37.2584C71.2106 31.067 66.1915 26.0479 60.0001 26.0479C53.8087 26.0479 48.7896 31.067 48.7896 37.2584C48.7896 43.4498 53.8087 48.4689 60.0001 48.4689Z" fill="url(#paint17_linear)"/>
<path d="M71.1542 38.3875L61.5053 28.7385C61.1846 28.3106 60.6184 28.2666 59.9876 28.2666C58.9663 28.2666 58.3574 28.6263 58.3574 29.5979C58.3574 32.5624 58.7062 36.8226 58.7062 39.7871C58.7062 40.1746 58.6874 40.4491 58.9569 40.6265L65.4096 47.0792C68.5562 45.3423 70.7793 42.1374 71.1542 38.3875Z" fill="url(#paint18_linear)"/>
<path d="M65.3036 47.1371L61.4066 43.2402C61.0566 42.8509 60.5566 42.6963 60.0126 42.6963C58.9164 42.6963 58.1885 43.4741 58.1885 44.5204C58.1885 45.0782 58.3407 45.5976 58.7417 45.9553L61.1921 48.4058C62.6668 48.25 64.0561 47.8083 65.3036 47.1371Z" fill="url(#paint19_linear)"/>
<path d="M61.9059 44.5205C61.9059 45.5419 61.034 46.4388 60.0126 46.4388C58.9164 46.4388 58.0942 45.5419 58.0942 44.5205C58.0942 43.4742 58.9164 42.6022 60.0126 42.6022C61.034 42.6022 61.9059 43.4742 61.9059 44.5205ZM61.4326 39.787C61.4326 40.5593 60.5855 40.8832 59.9876 40.8832C59.1904 40.8832 58.5178 40.5593 58.5178 39.787C58.5178 36.8225 58.169 32.5624 58.169 29.5978C58.169 28.6263 58.9661 28.0781 59.9876 28.0781C60.9592 28.0781 61.7813 28.6262 61.7813 29.5978C61.7814 32.5624 61.4326 36.8225 61.4326 39.787Z" fill="url(#paint20_linear)"/>
<defs>
<filter id="filter0_f" x="11.4285" y="11.8574" width="100" height="100" filterUnits="userSpaceOnUse" color-interpolation-filters="sRGB">
<feFlood flood-opacity="0" result="BackgroundImageFix"/>
<feBlend mode="normal" in="SourceGraphic" in2="BackgroundImageFix" result="shape"/>
<feGaussianBlur stdDeviation="5" result="effect1_foregroundBlur"/>
</filter>
<filter id="filter1_ii" x="19" y="19" width="83" height="83" filterUnits="userSpaceOnUse" color-interpolation-filters="sRGB">
<feFlood flood-opacity="0" result="BackgroundImageFix"/>
<feBlend mode="normal" in="SourceGraphic" in2="BackgroundImageFix" result="shape"/>
<feColorMatrix in="SourceAlpha" type="matrix" values="0 0 0 0 0 0 0 0 0 0 0 0 0 0 0 0 0 0 127 0" result="hardAlpha"/>
<feOffset dx="-1" dy="-1"/>
<feGaussianBlur stdDeviation="1"/>
<feComposite in2="hardAlpha" operator="arithmetic" k2="-1" k3="1"/>
<feColorMatrix type="matrix" values="0 0 0 0 0.0358854 0 0 0 0 0.26624 0 0 0 0 0.405781 0 0 0 0.31 0"/>
<feBlend mode="normal" in2="shape" result="effect1_innerShadow"/>
<feColorMatrix in="SourceAlpha" type="matrix" values="0 0 0 0 0 0 0 0 0 0 0 0 0 0 0 0 0 0 127 0" result="hardAlpha"/>
<feOffset dx="2" dy="2"/>
<feGaussianBlur stdDeviation="1.5"/>
<feComposite in2="hardAlpha" operator="arithmetic" k2="-1" k3="1"/>
<feColorMatrix type="matrix" values="0 0 0 0 1 0 0 0 0 1 0 0 0 0 1 0 0 0 0.42 0"/>
<feBlend mode="normal" in2="effect1_innerShadow" result="effect2_innerShadow"/>
</filter>
<linearGradient id="paint0_linear" x1="44.9466" y1="45.0231" x2="76.439" y2="76.5154" gradientUnits="userSpaceOnUse">
<stop stop-color="white"/>
<stop offset="1" stop-color="#E2E8EC"/>
</linearGradient>
<linearGradient id="paint1_linear" x1="59.6093" y1="39.2443" x2="60.4702" y2="52.4036" gradientUnits="userSpaceOnUse">
<stop stop-color="#D4E0E8"/>
<stop offset="1" stop-color="#D1E1EC"/>
</linearGradient>
<linearGradient id="paint2_linear" x1="35.5403" y1="43.8935" x2="37.1194" y2="45.0966" gradientUnits="userSpaceOnUse">
<stop stop-color="white"/>
<stop offset="1" stop-color="#E2E8EC"/>
</linearGradient>
<linearGradient id="paint3_linear" x1="39.9465" y1="43.8935" x2="41.5256" y2="45.0966" gradientUnits="userSpaceOnUse">
<stop stop-color="white"/>
<stop offset="1" stop-color="#E2E8EC"/>
</linearGradient>
<linearGradient id="paint4_linear" x1="44.3533" y1="43.8935" x2="45.9324" y2="45.0966" gradientUnits="userSpaceOnUse">
<stop stop-color="white"/>
<stop offset="1" stop-color="#E2E8EC"/>
</linearGradient>
<linearGradient id="paint5_linear" x1="60" y1="75.139" x2="60" y2="86.0091" gradientUnits="userSpaceOnUse">
<stop stop-color="#B5DBFF" stop-opacity="0"/>
<stop offset="0.2428" stop-color="#93CEF6" stop-opacity="0.243"/>
<stop offset="0.5763" stop-color="#6ABFEC" stop-opacity="0.576"/>
<stop offset="0.8403" stop-color="#51B5E5" stop-opacity="0.84"/>
<stop offset="1" stop-color="#48B2E3"/>
</linearGradient>
<linearGradient id="paint6_linear" x1="76.3638" y1="86.616" x2="45.94" y2="56.1922" gradientUnits="userSpaceOnUse">
<stop stop-color="#07485E" stop-opacity="0"/>
<stop offset="0.2965" stop-color="#07455A" stop-opacity="0.297"/>
<stop offset="0.5772" stop-color="#063C4F" stop-opacity="0.577"/>
<stop offset="0.8508" stop-color="#042E3C" stop-opacity="0.851"/>
<stop offset="1" stop-color="#03232E"/>
</linearGradient>
<linearGradient id="paint7_linear" x1="48.694" y1="75.9333" x2="55.8083" y2="75.9333" gradientUnits="userSpaceOnUse">
<stop stop-color="#E31448"/>
<stop offset="1" stop-color="#BF378D"/>
</linearGradient>
<linearGradient id="paint8_linear" x1="48.694" y1="64.5701" x2="55.8082" y2="64.5701" gradientUnits="userSpaceOnUse">
<stop stop-color="#E31448"/>
<stop offset="1" stop-color="#BF378D"/>
</linearGradient>
<linearGradient id="paint9_linear" x1="47.4496" y1="71.259" x2="55.8082" y2="71.259" gradientUnits="userSpaceOnUse">
<stop stop-color="#E31448"/>
<stop offset="1" stop-color="#BF378D"/>
</linearGradient>
<linearGradient id="paint10_linear" x1="64.192" y1="75.9333" x2="71.3063" y2="75.9333" gradientUnits="userSpaceOnUse">
<stop stop-color="#E31448"/>
<stop offset="1" stop-color="#BF378D"/>
</linearGradient>
<linearGradient id="paint11_linear" x1="64.1918" y1="64.57" x2="71.306" y2="64.57" gradientUnits="userSpaceOnUse">
<stop stop-color="#E31448"/>
<stop offset="1" stop-color="#BF378D"/>
</linearGradient>
<linearGradient id="paint12_linear" x1="64.1918" y1="71.259" x2="72.5504" y2="71.259" gradientUnits="userSpaceOnUse">
<stop stop-color="#E31448"/>
<stop offset="1" stop-color="#BF378D"/>
</linearGradient>
<linearGradient id="paint13_linear" x1="55.1893" y1="59.3414" x2="64.8109" y2="59.3414" gradientUnits="userSpaceOnUse">
<stop stop-color="#E31448"/>
<stop offset="1" stop-color="#BF378D"/>
</linearGradient>
<linearGradient id="paint14_linear" x1="53.7974" y1="63.3564" x2="65.4331" y2="72.735" gradientUnits="userSpaceOnUse">
<stop stop-color="#FF6392"/>
<stop offset="1" stop-color="#E63963"/>
</linearGradient>
<linearGradient id="paint15_linear" x1="54.5654" y1="68.1489" x2="60.6416" y2="74.225" gradientUnits="userSpaceOnUse">
<stop stop-color="#FF63A5"/>
<stop offset="1" stop-color="#E63963"/>
</linearGradient>
<linearGradient id="paint16_linear" x1="60.9424" y1="68.1148" x2="67.0331" y2="74.2054" gradientUnits="userSpaceOnUse">
<stop stop-color="#FF639B"/>
<stop offset="1" stop-color="#E63977"/>
</linearGradient>
<linearGradient id="paint17_linear" x1="54.7859" y1="32.0442" x2="65.5913" y2="42.8496" gradientUnits="userSpaceOnUse">
<stop stop-color="#47C4ED"/>
<stop offset="1" stop-color="#3E85D6"/>
</linearGradient>
<linearGradient id="paint18_linear" x1="69.4112" y1="45.3916" x2="55.7446" y2="40.2409" gradientUnits="userSpaceOnUse">
<stop stop-color="#3993E6" stop-opacity="0"/>
<stop offset="0.0467" stop-color="#35BAE4" stop-opacity="0.047"/>
<stop offset="0.4669" stop-color="#1884D3" stop-opacity="0.467"/>
<stop offset="0.7991" stop-color="#079AC9" stop-opacity="0.799"/>
<stop offset="1" stop-color="#008AC5"/>
</linearGradient>
<linearGradient id="paint19_linear" x1="64.3345" y1="47.8936" x2="58.4579" y2="43.8361" gradientUnits="userSpaceOnUse">
<stop stop-color="#3993E6" stop-opacity="0"/>
<stop offset="0.0467" stop-color="#35BAE4" stop-opacity="0.047"/>
<stop offset="0.4669" stop-color="#1884D3" stop-opacity="0.467"/>
<stop offset="0.7991" stop-color="#079AC9" stop-opacity="0.799"/>
<stop offset="1" stop-color="#008AC5"/>
</linearGradient>
<linearGradient id="paint20_linear" x1="58.0943" y1="37.2585" x2="61.9059" y2="37.2585" gradientUnits="userSpaceOnUse">
<stop stop-color="white"/>
<stop offset="1" stop-color="#E2E8EC"/>
</linearGradient>
</defs>
</svg>
