<svg width="484" height="504" viewBox="0 0 484 504" fill="none" xmlns="http://www.w3.org/2000/svg">
<g filter="url(#filter0_d)">
<circle cx="266.944" cy="217.348" r="196.795" fill="white"/>
</g>
<path fill-rule="evenodd" clip-rule="evenodd" d="M266.944 414.143C375.631 414.143 463.739 326.035 463.739 217.348C463.739 108.662 375.631 20.5537 266.944 20.5537C158.257 20.5537 70.1494 108.662 70.1494 217.348C70.1494 326.035 158.257 414.143 266.944 414.143ZM266.5 327.001C326.975 327.001 376 277.752 376 217.001C376 156.249 326.975 107.001 266.5 107.001C206.025 107.001 157 156.249 157 217.001C157 277.752 206.025 327.001 266.5 327.001Z" fill="#EDF9FD"/>
<g opacity="0.1" filter="url(#filter1_f)">
<path d="M410.112 161.661L432.294 95.6369C432.88 93.8918 430.979 92.3593 429.398 93.3027L421.701 97.8962C361.092 19.9136 250.218 -1.62252 164.083 51.2411C98.0016 91.7969 64.3707 165.162 71.2964 237.47L157.118 218.457C157.2 181.675 175.783 145.788 209.434 125.135C254.348 97.5706 311.305 106.228 346.213 142.946L338.576 147.504C336.995 148.447 337.441 150.848 339.255 151.161L407.895 162.984C408.859 163.15 409.8 162.588 410.112 161.661Z" fill="#2755A3"/>
</g>
<path d="M409.116 158.831L431.299 92.8068C431.885 91.0618 429.984 89.5293 428.403 90.4726L420.706 95.0662C360.096 17.0835 249.223 -4.4526 163.088 48.411C97.0064 88.9668 63.3755 162.332 70.3012 234.64L156.123 215.627C156.205 178.845 174.788 142.958 208.439 122.305C253.352 94.7406 310.31 103.398 345.218 140.116L337.581 144.674C336 145.617 336.446 148.018 338.26 148.33L406.9 160.154C407.864 160.32 408.805 159.758 409.116 158.831Z" fill="#40A8E7"/>
<path d="M409.116 158.831L431.299 92.8068C431.885 91.0618 429.984 89.5293 428.403 90.4726L420.706 95.0662C360.096 17.0835 249.223 -4.4526 163.088 48.411C97.0064 88.9668 63.3755 162.332 70.3012 234.64L156.123 215.627C156.205 178.845 174.788 142.958 208.439 122.305C253.352 94.7406 310.31 103.398 345.218 140.116L337.581 144.674C336 145.617 336.446 148.018 338.26 148.33L406.9 160.154C407.864 160.32 408.805 159.758 409.116 158.831Z" fill="url(#paint0_radial)"/>
<path d="M409.116 158.831L431.299 92.8068C431.885 91.0618 429.984 89.5293 428.403 90.4726L420.706 95.0662C360.096 17.0835 249.223 -4.4526 163.088 48.411C97.0064 88.9668 63.3755 162.332 70.3012 234.64L156.123 215.627C156.205 178.845 174.788 142.958 208.439 122.305C253.352 94.7406 310.31 103.398 345.218 140.116L337.581 144.674C336 145.617 336.446 148.018 338.26 148.33L406.9 160.154C407.864 160.32 408.805 159.758 409.116 158.831Z" fill="#EDF9FD"/>
<path opacity="0.15" d="M345.725 139.609L336.952 144.804C335.504 145.662 335.905 147.858 337.562 148.149L406.757 160.311C407.638 160.466 408.5 159.955 408.788 159.109L431.389 92.5875C431.931 90.9938 430.197 89.5867 428.749 90.4443L420.355 95.415M421.363 95.0165C395.955 66.3268 378.597 53.3529 342.76 35.0407M345.636 140.102C327.849 123.648 316.488 116.11 290.532 109.588" stroke="url(#paint1_linear)" stroke-width="1.98282"/>
<mask id="mask0" mask-type="alpha" maskUnits="userSpaceOnUse" x="59" y="7" width="388" height="197">
<path d="M122.581 157.549L59.99 189.096L95.4999 94.001L201.5 7.00098L370 26.501L446.5 94.001L421 175.001L343 161.501L296 126.501L215 132.501L159 203.501L126.36 158.467C125.497 157.275 123.896 156.886 122.581 157.549Z" fill="#C4C4C4"/>
</mask>
<g mask="url(#mask0)">
<g filter="url(#filter2_ii)">
<path d="M409.116 158.831L431.299 92.8068C431.885 91.0618 429.984 89.5293 428.403 90.4726L420.706 95.0662C360.096 17.0835 249.223 -4.4526 163.088 48.411C97.0064 88.9668 63.3755 162.332 70.3012 234.64L156.123 215.627C156.205 178.845 174.788 142.958 208.439 122.305C253.352 94.7406 310.31 103.398 345.218 140.116L337.581 144.674C336 145.617 336.446 148.018 338.26 148.33L406.9 160.154C407.864 160.32 408.805 159.758 409.116 158.831Z" fill="#40A8E7"/>
<path d="M409.116 158.831L431.299 92.8068C431.885 91.0618 429.984 89.5293 428.403 90.4726L420.706 95.0662C360.096 17.0835 249.223 -4.4526 163.088 48.411C97.0064 88.9668 63.3755 162.332 70.3012 234.64L156.123 215.627C156.205 178.845 174.788 142.958 208.439 122.305C253.352 94.7406 310.31 103.398 345.218 140.116L337.581 144.674C336 145.617 336.446 148.018 338.26 148.33L406.9 160.154C407.864 160.32 408.805 159.758 409.116 158.831Z" fill="url(#paint2_radial)"/>
</g>
<mask id="mask1" mask-type="alpha" maskUnits="userSpaceOnUse" x="12" y="-59" width="444" height="388">
<path fill-rule="evenodd" clip-rule="evenodd" d="M409.116 158.831L431.299 92.8063C431.885 91.0613 429.984 89.5288 428.403 90.4722L420.706 95.0657C360.097 17.083 249.223 -4.45306 163.088 48.4106C97.0064 88.9664 63.3755 162.331 70.3012 234.639L156.123 215.626C156.205 178.844 174.788 142.957 208.439 122.305C253.352 94.7401 310.31 103.397 345.218 140.116L337.581 144.673C336 145.617 336.446 148.017 338.26 148.33L406.9 160.153C407.864 160.319 408.805 159.758 409.116 158.831Z" fill="#40A8E7"/>
<path fill-rule="evenodd" clip-rule="evenodd" d="M409.116 158.831L431.299 92.8063C431.885 91.0613 429.984 89.5288 428.403 90.4722L420.706 95.0657C360.097 17.083 249.223 -4.45306 163.088 48.4106C97.0064 88.9664 63.3755 162.331 70.3012 234.639L156.123 215.626C156.205 178.844 174.788 142.957 208.439 122.305C253.352 94.7401 310.31 103.397 345.218 140.116L337.581 144.673C336 145.617 336.446 148.017 338.26 148.33L406.9 160.153C407.864 160.319 408.805 159.758 409.116 158.831Z" fill="url(#paint3_radial)"/>
</mask>
<g mask="url(#mask1)">
<rect x="-21.8977" y="56.583" width="554.371" height="219.346" transform="rotate(17.072 -21.8977 56.583)" fill="url(#paint4_linear)"/>
<rect x="260.718" y="-40.165" width="435.22" height="219.346" transform="rotate(75.8025 260.718 -40.165)" fill="url(#paint5_linear)"/>
</g>
</g>
<g opacity="0.1" filter="url(#filter3_f)">
<path d="M124.06 155.589L61.986 187.182C60.3454 188.017 60.6292 190.442 62.4183 190.876L71.1296 192.988C59.7776 291.099 123.837 384.122 222.343 406.712C297.915 424.043 373.302 395.229 418.999 338.765L344.424 292.231C318.605 318.429 280.207 331.031 241.723 322.205C190.359 310.426 155.765 264.356 156.564 213.699L165.207 215.794C166.996 216.228 168.359 214.202 167.283 212.708L126.568 156.197C125.996 155.403 124.931 155.145 124.06 155.589Z" fill="#2755A3"/>
</g>
<path d="M122.788 158.305L60.7143 189.899C59.0737 190.734 59.3575 193.159 61.1465 193.593L69.8579 195.705C58.5059 293.816 122.565 386.839 221.071 409.429C296.643 426.76 372.03 397.946 417.727 341.482L343.152 294.948C317.333 321.146 278.935 333.747 240.451 324.922C189.087 313.142 154.493 267.073 155.292 216.416L163.935 218.511C165.724 218.945 167.087 216.919 166.011 215.425L125.296 158.913C124.724 158.12 123.66 157.862 122.788 158.305Z" fill="#40A8E7"/>
<path d="M122.788 158.305L60.7143 189.899C59.0737 190.734 59.3575 193.159 61.1465 193.593L69.8579 195.705C58.5059 293.816 122.565 386.839 221.071 409.429C296.643 426.76 372.03 397.946 417.727 341.482L343.152 294.948C317.333 321.146 278.935 333.747 240.451 324.922C189.087 313.142 154.493 267.073 155.292 216.416L163.935 218.511C165.724 218.945 167.087 216.919 166.011 215.425L125.296 158.913C124.724 158.12 123.66 157.862 122.788 158.305Z" fill="url(#paint6_radial)"/>
<path d="M122.788 158.305L60.7143 189.899C59.0737 190.734 59.3575 193.159 61.1465 193.593L69.8579 195.705C58.5059 293.816 122.565 386.839 221.071 409.429C296.643 426.76 372.03 397.946 417.727 341.482L343.152 294.948C317.333 321.146 278.935 333.747 240.451 324.922C189.087 313.142 154.493 267.073 155.292 216.416L163.935 218.511C165.724 218.945 167.087 216.919 166.011 215.425L125.296 158.913C124.724 158.12 123.66 157.862 122.788 158.305Z" fill="#EDF9FD"/>
<path opacity="0.15" d="M154.575 216.422L164.475 218.858C166.109 219.26 167.362 217.412 166.383 216.043L125.508 158.901C124.988 158.174 124.015 157.934 123.217 158.337L60.4962 189.991C58.9935 190.75 59.2455 192.968 60.8799 193.37L70.3527 195.701M69.3539 195.279C67.3976 233.553 70.7012 254.97 83.4573 293.14M154.984 216.133C156.157 240.334 158.986 253.672 172.946 276.505" stroke="url(#paint7_linear)" stroke-width="1.98282"/>
<mask id="mask2" mask-type="alpha" maskUnits="userSpaceOnUse" x="148" y="82" width="413" height="413">
<path d="M409.659 158.877L431.61 92.3116L473.743 184.663L460.308 321.135L327.372 426.494L225.549 432.858L186.305 357.551L251.005 311.942L308.988 303.457L362.021 241.939L351.414 152.136L406.337 160.9C407.791 161.132 409.198 160.275 409.659 158.877Z" fill="#C4C4C4"/>
</mask>
<g mask="url(#mask2)">
<g opacity="0.1" filter="url(#filter4_f)">
<path d="M273.707 371.534L328.634 414.363C330.085 415.495 332.162 414.21 331.796 412.405L330.016 403.62C423.689 372.313 480.787 274.862 459.491 176.068C453.306 147.377 441.144 121.513 424.591 99.5006L349.445 144.501C361.656 158.186 370.595 175.127 374.736 194.337C385.841 245.852 358.779 296.712 312.56 317.462L310.794 308.746C310.428 306.941 308.015 306.566 307.118 308.174L273.194 369.005C272.718 369.859 272.935 370.933 273.707 371.534Z" fill="#2755A3"/>
</g>
<g filter="url(#filter5_ii)">
<path d="M273.707 371.534L328.634 414.363C330.086 415.495 332.162 414.21 331.796 412.405L330.016 403.62C423.689 372.313 480.787 274.862 459.491 176.068C453.306 147.377 441.144 121.513 424.592 99.5006L349.446 144.501C361.656 158.186 370.596 175.127 374.736 194.337C385.841 245.852 358.779 296.712 312.56 317.462L310.794 308.746C310.428 306.941 308.015 306.566 307.119 308.174L273.194 369.005C272.718 369.859 272.936 370.933 273.707 371.534Z" fill="#EDF9FD"/>
</g>
<path opacity="0.15" d="M312.87 318.109L310.879 308.11C310.55 306.459 308.345 306.108 307.521 307.576L273.093 368.818C272.655 369.597 272.851 370.58 273.554 371.132L328.81 414.521C330.134 415.561 332.037 414.392 331.708 412.741L329.804 403.174M329.845 404.257C365.339 389.805 383.336 377.734 412.5 350.001M312.434 317.861C333.856 306.54 344.737 298.324 359.5 276.001" stroke="url(#paint8_linear)" stroke-width="1.98282"/>
</g>
<circle opacity="0.1" cx="113.22" cy="223.848" r="30.7911" fill="#40A8E7"/>
<g filter="url(#filter6_ii)">
<rect x="92.9294" y="203.702" width="40.7304" height="40.7304" rx="20.3652" fill="#40A8E7"/>
<path d="M113.182 232.983C111.602 232.983 110.274 232.738 109.199 232.25C108.14 231.761 107.35 231.158 106.829 230.441C106.323 229.708 106.055 228.975 106.022 228.242C106.022 228.095 106.071 227.973 106.169 227.875C106.283 227.777 106.413 227.728 106.56 227.728H109.761C109.94 227.728 110.087 227.761 110.201 227.826C110.315 227.891 110.421 228.014 110.519 228.193C110.845 229.04 111.732 229.464 113.182 229.464C114.013 229.464 114.657 229.276 115.113 228.901C115.586 228.51 115.822 227.981 115.822 227.313C115.822 226.01 114.975 225.358 113.28 225.358H110.568C110.405 225.358 110.258 225.301 110.128 225.187C110.014 225.057 109.957 224.91 109.957 224.747V223.378C109.957 223.02 110.087 222.743 110.348 222.548L114.355 219.151H107.562C107.399 219.151 107.252 219.094 107.122 218.98C107.008 218.849 106.951 218.703 106.951 218.54V216.242C106.951 216.063 107.008 215.917 107.122 215.803C107.252 215.689 107.399 215.632 107.562 215.632H118.803C118.982 215.632 119.129 215.689 119.243 215.803C119.373 215.917 119.439 216.063 119.439 216.242V218.32C119.439 218.629 119.308 218.898 119.048 219.126L115.333 222.572L115.504 222.621C117.003 222.816 118.184 223.321 119.048 224.136C119.927 224.934 120.367 226.083 120.367 227.582C120.367 228.673 120.058 229.626 119.439 230.441C118.82 231.256 117.964 231.883 116.873 232.323C115.781 232.763 114.551 232.983 113.182 232.983Z" fill="white"/>
</g>
<circle opacity="0.1" cx="341.493" cy="350.882" r="30.7911" fill="#40A8E7"/>
<g filter="url(#filter7_ii)">
<rect x="321.287" y="330.675" width="40.7304" height="40.7304" rx="20.3652" fill="#40A8E7"/>
<path d="M335.342 359.711C335.163 359.711 335.008 359.654 334.878 359.54C334.764 359.426 334.707 359.279 334.707 359.1V357.365C334.707 356.876 334.91 356.477 335.318 356.167L337.859 353.675C339.342 352.534 340.466 351.646 341.232 351.011C341.997 350.376 342.576 349.797 342.967 349.276C343.358 348.754 343.553 348.258 343.553 347.785C343.553 346.498 342.918 345.854 341.647 345.854C340.979 345.854 340.466 346.058 340.107 346.465C339.749 346.856 339.513 347.353 339.399 347.956C339.301 348.331 339.024 348.518 338.568 348.518H335.513C335.366 348.518 335.244 348.469 335.146 348.372C335.049 348.274 335 348.152 335 348.005C335.032 346.962 335.318 346.009 335.855 345.146C336.409 344.266 337.183 343.574 338.177 343.069C339.187 342.547 340.344 342.286 341.647 342.286C343.016 342.286 344.189 342.506 345.166 342.946C346.144 343.386 346.885 344.005 347.39 344.804C347.895 345.602 348.148 346.531 348.148 347.59C348.148 348.73 347.789 349.773 347.072 350.718C346.372 351.646 345.296 352.656 343.846 353.748L341.598 356.021H347.879C348.058 356.021 348.205 356.078 348.319 356.192C348.449 356.306 348.514 356.453 348.514 356.632V359.1C348.514 359.279 348.449 359.426 348.319 359.54C348.205 359.654 348.058 359.711 347.879 359.711H335.342Z" fill="white"/>
</g>
<circle opacity="0.1" cx="375.171" cy="111.175" r="30.7911" fill="white"/>
<g filter="url(#filter8_ii)">
<rect x="354.964" y="90.9688" width="40.7304" height="40.7304" rx="20.3652" fill="white"/>
<path d="M376.025 120.005C375.862 120.005 375.716 119.948 375.585 119.834C375.471 119.703 375.414 119.557 375.414 119.394V107.761L372.066 110.327C371.952 110.425 371.83 110.474 371.7 110.474C371.52 110.474 371.358 110.376 371.211 110.181L369.769 108.299C369.688 108.169 369.647 108.046 369.647 107.932C369.647 107.704 369.745 107.533 369.94 107.419L375.561 103.069C375.74 102.955 375.936 102.898 376.147 102.898H379.202C379.381 102.898 379.528 102.955 379.642 103.069C379.756 103.183 379.813 103.33 379.813 103.509V119.394C379.813 119.557 379.756 119.703 379.642 119.834C379.528 119.948 379.381 120.005 379.202 120.005H376.025Z" fill="#40A8E7"/>
</g>
<g filter="url(#filter9_ii)">
<path fill-rule="evenodd" clip-rule="evenodd" d="M187.204 216.94C187.204 171.804 223.778 135.23 268.914 135.23C314.051 135.23 350.624 171.804 350.624 216.94C350.624 262.077 314.051 298.65 268.914 298.65C223.816 298.65 187.204 262.077 187.204 216.94Z" fill="#40A8E7"/>
</g>
<path fill-rule="evenodd" clip-rule="evenodd" d="M261.015 223.08L266.729 200.625C266.929 199.882 267.101 198.739 267.472 197.168C267.843 195.625 268.043 194.454 268.215 193.711H270.957C271.043 194.796 271.529 197.082 272.329 200.625L278.071 223.08H261.015ZM286.299 252.307H301.727L282.014 186.311C281.3 183.569 279.557 182.197 276.728 182.197H262.387C261.13 182.197 260.015 182.54 259.015 183.283C257.987 183.997 257.387 185.026 257.187 186.311L237.388 252.307H252.902L257.844 234.594H281.385L286.299 252.307Z" fill="white"/>
<defs>
<filter id="filter0_d" x="50.3212" y="0.725531" width="433.246" height="433.246" filterUnits="userSpaceOnUse" color-interpolation-filters="sRGB">
<feFlood flood-opacity="0" result="BackgroundImageFix"/>
<feColorMatrix in="SourceAlpha" type="matrix" values="0 0 0 0 0 0 0 0 0 0 0 0 0 0 0 0 0 0 127 0"/>
<feOffset/>
<feGaussianBlur stdDeviation="9.91409"/>
<feColorMatrix type="matrix" values="0 0 0 0 0.663437 0 0 0 0 0.788946 0 0 0 0 0.886562 0 0 0 1 0"/>
<feBlend mode="normal" in2="BackgroundImageFix" result="effect1_dropShadow"/>
<feBlend mode="normal" in="SourceGraphic" in2="effect1_dropShadow" result="shape"/>
</filter>
<filter id="filter1_f" x="59.3399" y="9.47269" width="384.618" height="242.297" filterUnits="userSpaceOnUse" color-interpolation-filters="sRGB">
<feFlood flood-opacity="0" result="BackgroundImageFix"/>
<feBlend mode="normal" in="SourceGraphic" in2="BackgroundImageFix" result="shape"/>
<feGaussianBlur stdDeviation="5.43895" result="effect1_foregroundBlur"/>
</filter>
<filter id="filter2_ii" x="69.2225" y="13.8945" width="362.862" height="227.793" filterUnits="userSpaceOnUse" color-interpolation-filters="sRGB">
<feFlood flood-opacity="0" result="BackgroundImageFix"/>
<feBlend mode="normal" in="SourceGraphic" in2="BackgroundImageFix" result="shape"/>
<feColorMatrix in="SourceAlpha" type="matrix" values="0 0 0 0 0 0 0 0 0 0 0 0 0 0 0 0 0 0 127 0" result="hardAlpha"/>
<feOffset dy="3.62597"/>
<feGaussianBlur stdDeviation="1.81298"/>
<feComposite in2="hardAlpha" operator="arithmetic" k2="-1" k3="1"/>
<feColorMatrix type="matrix" values="0 0 0 0 1 0 0 0 0 1 0 0 0 0 1 0 0 0 0.25 0"/>
<feBlend mode="normal" in2="shape" result="effect1_innerShadow"/>
<feColorMatrix in="SourceAlpha" type="matrix" values="0 0 0 0 0 0 0 0 0 0 0 0 0 0 0 0 0 0 127 0" result="hardAlpha"/>
<feOffset dy="-3.62597"/>
<feGaussianBlur stdDeviation="1.81298"/>
<feComposite in2="hardAlpha" operator="arithmetic" k2="-1" k3="1"/>
<feColorMatrix type="matrix" values="0 0 0 0 0 0 0 0 0 0 0 0 0 0 0 0 0 0 0.1 0"/>
<feBlend mode="normal" in2="effect1_innerShadow" result="effect2_innerShadow"/>
</filter>
<filter id="filter3_f" x="0.224398" y="73.5166" width="430.415" height="430.415" filterUnits="userSpaceOnUse" color-interpolation-filters="sRGB">
<feFlood flood-opacity="0" result="BackgroundImageFix"/>
<feBlend mode="normal" in="SourceGraphic" in2="BackgroundImageFix" result="shape"/>
<feGaussianBlur stdDeviation="5.43895" result="effect1_foregroundBlur"/>
</filter>
<filter id="filter4_f" x="262.065" y="88.6231" width="212.753" height="337.044" filterUnits="userSpaceOnUse" color-interpolation-filters="sRGB">
<feFlood flood-opacity="0" result="BackgroundImageFix"/>
<feBlend mode="normal" in="SourceGraphic" in2="BackgroundImageFix" result="shape"/>
<feGaussianBlur stdDeviation="5.43895" result="effect1_foregroundBlur"/>
</filter>
<filter id="filter5_ii" x="272.943" y="95.875" width="190.997" height="322.54" filterUnits="userSpaceOnUse" color-interpolation-filters="sRGB">
<feFlood flood-opacity="0" result="BackgroundImageFix"/>
<feBlend mode="normal" in="SourceGraphic" in2="BackgroundImageFix" result="shape"/>
<feColorMatrix in="SourceAlpha" type="matrix" values="0 0 0 0 0 0 0 0 0 0 0 0 0 0 0 0 0 0 127 0" result="hardAlpha"/>
<feOffset dy="3.62597"/>
<feGaussianBlur stdDeviation="1.81298"/>
<feComposite in2="hardAlpha" operator="arithmetic" k2="-1" k3="1"/>
<feColorMatrix type="matrix" values="0 0 0 0 1 0 0 0 0 1 0 0 0 0 1 0 0 0 0.25 0"/>
<feBlend mode="normal" in2="shape" result="effect1_innerShadow"/>
<feColorMatrix in="SourceAlpha" type="matrix" values="0 0 0 0 0 0 0 0 0 0 0 0 0 0 0 0 0 0 127 0" result="hardAlpha"/>
<feOffset dy="-3.62597"/>
<feGaussianBlur stdDeviation="1.81298"/>
<feComposite in2="hardAlpha" operator="arithmetic" k2="-1" k3="1"/>
<feColorMatrix type="matrix" values="0 0 0 0 0 0 0 0 0 0 0 0 0 0 0 0 0 0 0.1 0"/>
<feBlend mode="normal" in2="effect1_innerShadow" result="effect2_innerShadow"/>
</filter>
<filter id="filter6_ii" x="91.9112" y="202.684" width="43.7851" height="43.7851" filterUnits="userSpaceOnUse" color-interpolation-filters="sRGB">
<feFlood flood-opacity="0" result="BackgroundImageFix"/>
<feBlend mode="normal" in="SourceGraphic" in2="BackgroundImageFix" result="shape"/>
<feColorMatrix in="SourceAlpha" type="matrix" values="0 0 0 0 0 0 0 0 0 0 0 0 0 0 0 0 0 0 127 0" result="hardAlpha"/>
<feOffset dx="-1.01826" dy="-1.01826"/>
<feGaussianBlur stdDeviation="1.01826"/>
<feComposite in2="hardAlpha" operator="arithmetic" k2="-1" k3="1"/>
<feColorMatrix type="matrix" values="0 0 0 0 0.0358854 0 0 0 0 0.26624 0 0 0 0 0.405781 0 0 0 0.31 0"/>
<feBlend mode="normal" in2="shape" result="effect1_innerShadow"/>
<feColorMatrix in="SourceAlpha" type="matrix" values="0 0 0 0 0 0 0 0 0 0 0 0 0 0 0 0 0 0 127 0" result="hardAlpha"/>
<feOffset dx="2.03652" dy="2.03652"/>
<feGaussianBlur stdDeviation="1.52739"/>
<feComposite in2="hardAlpha" operator="arithmetic" k2="-1" k3="1"/>
<feColorMatrix type="matrix" values="0 0 0 0 1 0 0 0 0 1 0 0 0 0 1 0 0 0 0.42 0"/>
<feBlend mode="normal" in2="effect1_innerShadow" result="effect2_innerShadow"/>
</filter>
<filter id="filter7_ii" x="320.268" y="329.657" width="43.7851" height="43.7851" filterUnits="userSpaceOnUse" color-interpolation-filters="sRGB">
<feFlood flood-opacity="0" result="BackgroundImageFix"/>
<feBlend mode="normal" in="SourceGraphic" in2="BackgroundImageFix" result="shape"/>
<feColorMatrix in="SourceAlpha" type="matrix" values="0 0 0 0 0 0 0 0 0 0 0 0 0 0 0 0 0 0 127 0" result="hardAlpha"/>
<feOffset dx="-1.01826" dy="-1.01826"/>
<feGaussianBlur stdDeviation="1.01826"/>
<feComposite in2="hardAlpha" operator="arithmetic" k2="-1" k3="1"/>
<feColorMatrix type="matrix" values="0 0 0 0 0.0358854 0 0 0 0 0.26624 0 0 0 0 0.405781 0 0 0 0.31 0"/>
<feBlend mode="normal" in2="shape" result="effect1_innerShadow"/>
<feColorMatrix in="SourceAlpha" type="matrix" values="0 0 0 0 0 0 0 0 0 0 0 0 0 0 0 0 0 0 127 0" result="hardAlpha"/>
<feOffset dx="2.03652" dy="2.03652"/>
<feGaussianBlur stdDeviation="1.52739"/>
<feComposite in2="hardAlpha" operator="arithmetic" k2="-1" k3="1"/>
<feColorMatrix type="matrix" values="0 0 0 0 1 0 0 0 0 1 0 0 0 0 1 0 0 0 0.42 0"/>
<feBlend mode="normal" in2="effect1_innerShadow" result="effect2_innerShadow"/>
</filter>
<filter id="filter8_ii" x="353.946" y="89.9505" width="43.7851" height="43.7851" filterUnits="userSpaceOnUse" color-interpolation-filters="sRGB">
<feFlood flood-opacity="0" result="BackgroundImageFix"/>
<feBlend mode="normal" in="SourceGraphic" in2="BackgroundImageFix" result="shape"/>
<feColorMatrix in="SourceAlpha" type="matrix" values="0 0 0 0 0 0 0 0 0 0 0 0 0 0 0 0 0 0 127 0" result="hardAlpha"/>
<feOffset dx="-1.01826" dy="-1.01826"/>
<feGaussianBlur stdDeviation="1.01826"/>
<feComposite in2="hardAlpha" operator="arithmetic" k2="-1" k3="1"/>
<feColorMatrix type="matrix" values="0 0 0 0 0.0358854 0 0 0 0 0.26624 0 0 0 0 0.405781 0 0 0 0.31 0"/>
<feBlend mode="normal" in2="shape" result="effect1_innerShadow"/>
<feColorMatrix in="SourceAlpha" type="matrix" values="0 0 0 0 0 0 0 0 0 0 0 0 0 0 0 0 0 0 127 0" result="hardAlpha"/>
<feOffset dx="2.03652" dy="2.03652"/>
<feGaussianBlur stdDeviation="1.52739"/>
<feComposite in2="hardAlpha" operator="arithmetic" k2="-1" k3="1"/>
<feColorMatrix type="matrix" values="0 0 0 0 1 0 0 0 0 1 0 0 0 0 1 0 0 0 0.42 0"/>
<feBlend mode="normal" in2="effect1_innerShadow" result="effect2_innerShadow"/>
</filter>
<filter id="filter9_ii" x="185.01" y="133.037" width="167.808" height="167.808" filterUnits="userSpaceOnUse" color-interpolation-filters="sRGB">
<feFlood flood-opacity="0" result="BackgroundImageFix"/>
<feBlend mode="normal" in="SourceGraphic" in2="BackgroundImageFix" result="shape"/>
<feColorMatrix in="SourceAlpha" type="matrix" values="0 0 0 0 0 0 0 0 0 0 0 0 0 0 0 0 0 0 127 0" result="hardAlpha"/>
<feOffset dx="-2.19392" dy="-2.19392"/>
<feGaussianBlur stdDeviation="2.19392"/>
<feComposite in2="hardAlpha" operator="arithmetic" k2="-1" k3="1"/>
<feColorMatrix type="matrix" values="0 0 0 0 0.0358854 0 0 0 0 0.26624 0 0 0 0 0.405781 0 0 0 0.31 0"/>
<feBlend mode="normal" in2="shape" result="effect1_innerShadow"/>
<feColorMatrix in="SourceAlpha" type="matrix" values="0 0 0 0 0 0 0 0 0 0 0 0 0 0 0 0 0 0 127 0" result="hardAlpha"/>
<feOffset dx="2.19392" dy="2.19392"/>
<feGaussianBlur stdDeviation="2.19392"/>
<feComposite in2="hardAlpha" operator="arithmetic" k2="-1" k3="1"/>
<feColorMatrix type="matrix" values="0 0 0 0 1 0 0 0 0 1 0 0 0 0 1 0 0 0 0.42 0"/>
<feBlend mode="normal" in2="effect1_innerShadow" result="effect2_innerShadow"/>
</filter>
<radialGradient id="paint0_radial" cx="0" cy="0" r="1" gradientUnits="userSpaceOnUse" gradientTransform="translate(458.308 129.862) rotate(167.114) scale(489.965 403.236)">
<stop stop-color="#E41049"/>
<stop offset="0.270833" stop-color="#D350B8"/>
<stop offset="1" stop-color="#00ABE3"/>
</radialGradient>
<linearGradient id="paint1_linear" x1="345.22" y1="138.101" x2="303.263" y2="83.3351" gradientUnits="userSpaceOnUse">
<stop stop-color="#005E97"/>
<stop offset="1" stop-color="#005E97" stop-opacity="0"/>
</linearGradient>
<radialGradient id="paint2_radial" cx="0" cy="0" r="1" gradientUnits="userSpaceOnUse" gradientTransform="translate(458.308 129.862) rotate(167.114) scale(489.965 403.236)">
<stop stop-color="#E41049"/>
<stop offset="0.270833" stop-color="#D350B8"/>
<stop offset="1" stop-color="#00ABE3"/>
</radialGradient>
<radialGradient id="paint3_radial" cx="0" cy="0" r="1" gradientUnits="userSpaceOnUse" gradientTransform="translate(458.309 129.862) rotate(167.114) scale(489.965 403.236)">
<stop stop-color="#E41049"/>
<stop offset="0.270833" stop-color="#D350B8"/>
<stop offset="1" stop-color="#00ABE3"/>
</radialGradient>
<linearGradient id="paint4_linear" x1="255.193" y1="56.583" x2="255.173" y2="275.929" gradientUnits="userSpaceOnUse">
<stop stop-color="white" stop-opacity="0.15"/>
<stop offset="1" stop-color="white" stop-opacity="0"/>
</linearGradient>
<linearGradient id="paint5_linear" x1="478.254" y1="-40.165" x2="478.228" y2="179.181" gradientUnits="userSpaceOnUse">
<stop stop-color="white" stop-opacity="0.15"/>
<stop offset="1" stop-color="white" stop-opacity="0"/>
</linearGradient>
<radialGradient id="paint6_radial" cx="0" cy="0" r="1" gradientUnits="userSpaceOnUse" gradientTransform="translate(67.3863 144.532) rotate(31.5693) scale(489.965 403.236)">
<stop stop-color="#E41049"/>
<stop offset="0.270833" stop-color="#D350B8"/>
<stop offset="1" stop-color="#00ABE3"/>
</radialGradient>
<linearGradient id="paint7_linear" x1="153.879" y1="217.853" x2="145.473" y2="286.329" gradientUnits="userSpaceOnUse">
<stop stop-color="#005E97"/>
<stop offset="1" stop-color="#005E97" stop-opacity="0"/>
</linearGradient>
<linearGradient id="paint8_linear" x1="314.46" y1="318.133" x2="380.043" y2="296.72" gradientUnits="userSpaceOnUse">
<stop stop-color="#005E97"/>
<stop offset="1" stop-color="#005E97" stop-opacity="0"/>
</linearGradient>
</defs>
</svg>
