<svg width="120" height="120" viewBox="0 0 120 120" fill="none" xmlns="http://www.w3.org/2000/svg">
<g opacity="0.5" filter="url(#filter0_f)">
<path fill-rule="evenodd" clip-rule="evenodd" d="M61.4285 101.857C83.5199 101.857 101.428 83.9488 101.428 61.8574C101.428 39.766 83.5199 21.8574 61.4285 21.8574C39.3371 21.8574 21.4285 39.766 21.4285 61.8574C21.4285 83.9488 39.3371 101.857 61.4285 101.857Z" fill="#554CBE"/>
</g>
<path opacity="0.1" fill-rule="evenodd" clip-rule="evenodd" d="M60 120C93.1371 120 120 93.1371 120 60C120 26.8629 93.1371 0 60 0C26.8629 0 0 26.8629 0 60C0 93.1371 26.8629 120 60 120Z" fill="white"/>
<g filter="url(#filter1_ii)">
<path fill-rule="evenodd" clip-rule="evenodd" d="M60 100C82.0914 100 100 82.0914 100 60C100 37.9086 82.0914 20 60 20C37.9086 20 20 37.9086 20 60C20 82.0914 37.9086 100 60 100Z" fill="#40A8E7"/>
</g>
<path d="M84.4657 80H36.4889C34.562 80 33 78.438 33 76.5111V44.4879C33 42.561 34.562 40.999 36.4889 40.999H84.4656C86.3925 40.999 87.9545 42.561 87.9545 44.4879V76.5112C87.9545 78.438 86.3925 80 84.4657 80Z" fill="url(#paint0_linear)"/>
<path d="M84.4657 80H36.4889C34.562 80 33 78.438 33 76.5111V44.4879C33 42.561 34.562 40.999 36.4889 40.999H84.4656C86.3925 40.999 87.9545 42.561 87.9545 44.4879V76.5112C87.9545 78.438 86.3925 80 84.4657 80Z" fill="url(#paint1_linear)"/>
<path d="M53.2072 67.3054H41.2862C40.1358 67.3054 39.2034 66.3729 39.2034 65.2226V53.3016C39.2034 52.1512 40.136 51.2188 41.2862 51.2188H53.2072C54.3576 51.2188 55.2901 52.1513 55.2901 53.3016V65.2226C55.2902 66.3729 54.3576 67.3054 53.2072 67.3054Z" fill="url(#paint2_linear)" fill-opacity="0.8"/>
<path d="M52.1046 65.8165H42.3892C41.4516 65.8165 40.6917 65.0566 40.6917 64.119V54.4036C40.6917 53.466 41.4516 52.7061 42.3892 52.7061H52.1046C53.0422 52.7061 53.8021 53.466 53.8021 54.4036V64.119C53.8021 65.0566 53.0422 65.8165 52.1046 65.8165Z" fill="url(#paint3_linear)"/>
<path d="M52.1422 56.4412C52.1422 56.1239 52.4002 55.8659 52.7175 55.8659H53.8019V54.7342H52.7175C51.7762 54.7342 51.0105 55.4999 51.0105 56.4412C51.0105 56.748 50.7685 56.9971 50.4658 57.0134C50.1243 56.3133 49.4072 55.8285 48.5773 55.8285H47.8125V52.7061H46.6808V55.8285H45.916C45.0861 55.8285 44.369 56.3132 44.0275 57.0134C43.7248 56.9971 43.4829 56.7479 43.4829 56.4412C43.4829 55.4999 42.7172 54.7342 41.776 54.7342H40.6914V55.8659H41.776C42.0932 55.8659 42.3512 56.1239 42.3512 56.4412C42.3512 57.2992 42.9883 58.0094 43.8139 58.1287V58.6956H40.6915V59.8273H43.814V60.394C42.9885 60.5133 42.3514 61.2234 42.3514 62.0815C42.3514 62.3988 42.0933 62.6568 41.7761 62.6568H40.6915V63.7885H41.7761C42.7173 63.7885 43.4831 63.0228 43.4831 62.0815C43.4831 61.7748 43.7249 61.5256 44.0276 61.5093C44.3691 62.2094 45.0862 62.6942 45.9161 62.6942H46.6809V65.8167H47.8126V62.6941H48.5774C49.4073 62.6941 50.1243 62.2094 50.4659 61.5092C50.7686 61.5255 51.0106 61.7747 51.0106 62.0814C51.0106 63.0226 51.7764 63.7884 52.7176 63.7884H53.802V62.6567H52.7176C52.4003 62.6567 52.1423 62.3987 52.1423 62.0814C52.1423 61.2234 51.5052 60.5131 50.6795 60.3939V59.8271H53.802V58.6955H50.6795V58.1285C51.5051 58.0094 52.1422 57.2992 52.1422 56.4412ZM49.5478 60.592C49.5478 61.1271 49.1125 61.5624 48.5774 61.5624H45.9161C45.381 61.5624 44.9457 61.1271 44.9457 60.592V57.9306C44.9457 57.3955 45.381 56.9602 45.9161 56.9602H48.5774C49.1124 56.9602 49.5478 57.3955 49.5478 57.9306V60.592Z" fill="url(#paint4_linear)"/>
<path d="M66.7635 55.3125H59.0486C58.4832 55.3125 58.0249 54.8541 58.0249 54.2888V52.2415C58.0249 51.6761 58.4832 51.2178 59.0486 51.2178H66.7635C67.3289 51.2178 67.7872 51.6761 67.7872 52.2415V54.2888C67.7871 54.8541 67.3288 55.3125 66.7635 55.3125Z" fill="#9ABDCD"/>
<path d="M80.7275 55.3125H71.1157C70.5504 55.3125 70.092 54.8541 70.092 54.2888V52.2415C70.092 51.6761 70.5504 51.2178 71.1157 51.2178H80.7275C81.2929 51.2178 81.7512 51.6761 81.7512 52.2415V54.2888C81.7512 54.8541 81.2929 55.3125 80.7275 55.3125Z" fill="#9ABDCD"/>
<path d="M76.8701 61.4794H80.7277C81.2931 61.4794 81.7514 61.0211 81.7514 60.4557V58.4085C81.7514 57.8431 81.2931 57.3848 80.7277 57.3848H76.8701C76.3048 57.3848 75.8464 57.8431 75.8464 58.4085V60.4557C75.8464 61.0212 76.3048 61.4794 76.8701 61.4794Z" fill="#9ABDCD"/>
<path d="M59.0474 61.4794H72.5166C73.082 61.4794 73.5403 61.0211 73.5403 60.4557V58.4085C73.5403 57.8431 73.082 57.3848 72.5166 57.3848H59.0474C58.482 57.3848 58.0237 57.8431 58.0237 58.4085V60.4557C58.0237 61.0212 58.482 61.4794 59.0474 61.4794Z" fill="#9ABDCD"/>
<path d="M47.942 75.9453H40.2271C39.6617 75.9453 39.2034 75.4869 39.2034 74.9216V72.8743C39.2034 72.3089 39.6617 71.8506 40.2271 71.8506H47.942C48.5074 71.8506 48.9657 72.3089 48.9657 72.8743V74.9216C48.9657 75.4871 48.5074 75.9453 47.942 75.9453Z" fill="#9ABDCD"/>
<path d="M61.9072 75.9453H52.2954C51.7301 75.9453 51.2717 75.4869 51.2717 74.9216V72.8743C51.2717 72.3089 51.7301 71.8506 52.2954 71.8506H61.9072C62.4726 71.8506 62.9309 72.3089 62.9309 72.8743V74.9216C62.9309 75.4871 62.4726 75.9453 61.9072 75.9453Z" fill="#9ABDCD"/>
<path d="M74.5418 75.9449C76.2864 75.9449 77.7008 74.5306 77.7008 72.7859C77.7008 71.0413 76.2864 69.627 74.5418 69.627C72.7971 69.627 71.3828 71.0413 71.3828 72.7859C71.3828 74.5306 72.7971 75.9449 74.5418 75.9449Z" fill="url(#paint5_linear)"/>
<path d="M78.5923 75.9449C80.337 75.9449 81.7513 74.5306 81.7513 72.7859C81.7513 71.0413 80.337 69.627 78.5923 69.627C76.8477 69.627 75.4333 71.0413 75.4333 72.7859C75.4333 74.5306 76.8477 75.9449 78.5923 75.9449Z" fill="#E31448"/>
<path d="M82 76.5111V57.3309L69.6626 41H53V45.6633C53 46.451 53.1073 47.1501 53.5491 47.589L78.0346 80H79.3644C80.82 80 82 78.438 82 76.5111Z" fill="url(#paint6_linear)"/>
<path d="M33 71.6113V76.5115C33 78.4383 34.562 80.0003 36.4889 80.0003H84.4656C86.3925 80.0003 87.9545 78.4383 87.9545 76.5115V71.6113H33Z" fill="url(#paint7_linear)"/>
<path d="M68.1448 33.7096H65.4029V32.5503C65.4029 29.8989 63.2458 27.7419 60.5945 27.7419C57.9431 27.7419 55.7861 29.899 55.7861 32.5503V33.7096H53.0442V32.5503C53.0442 28.387 56.4312 25 60.5945 25C64.7577 25 68.1448 28.387 68.1448 32.5503V33.7096Z" fill="url(#paint8_linear)"/>
<path d="M60.5944 26.4844C57.1407 26.4844 54.3311 29.2941 54.3311 32.7477V33.7093H55.786V32.5501C55.786 29.8987 57.9431 27.7417 60.5944 27.7417C63.2458 27.7417 65.4028 29.8988 65.4028 32.5501V33.7093H66.8577V32.7476C66.8576 29.2941 64.0479 26.4844 60.5944 26.4844Z" fill="url(#paint9_linear)"/>
<path d="M67.8407 47.5649H53.9167C52.8582 47.5649 52 46.7068 52 45.6482V34.9939C52 33.9353 52.8582 33.0771 53.9167 33.0771H67.8407C68.8992 33.0771 69.7574 33.9353 69.7574 34.9939V45.6483C69.7574 46.7067 68.8992 47.5649 67.8407 47.5649Z" fill="url(#paint10_linear)"/>
<path d="M64.2824 38.9555C64.2824 37.0757 62.7584 35.5518 60.8786 35.5518C58.9988 35.5518 57.4749 37.0757 57.4749 38.9555C57.4749 40.2863 58.2391 41.438 59.3521 41.9977V43.564C59.3521 44.407 60.0355 45.0905 60.8786 45.0905C61.7216 45.0905 62.4051 44.4071 62.4051 43.564V41.9977C63.5182 41.438 64.2824 40.2863 64.2824 38.9555Z" fill="#1C87C3"/>
<path d="M60.8786 44.2055C60.5248 44.2055 60.237 43.9177 60.237 43.5639V41.452L59.7495 41.2069C58.8922 40.7758 58.3596 39.9131 58.3596 38.9554C58.3596 37.5665 59.4896 36.4365 60.8785 36.4365C62.2674 36.4365 63.3974 37.5665 63.3974 38.9554C63.3974 39.9131 62.8647 40.7759 62.0074 41.2069L61.52 41.452V43.5639C61.5202 43.9177 61.2324 44.2055 60.8786 44.2055Z" fill="url(#paint11_linear)"/>
<path d="M52 42.7471V45.6479C52 46.7064 52.8581 47.5646 53.9167 47.5646H67.8407C68.8992 47.5646 69.7574 46.7065 69.7574 45.6479V42.7471H52Z" fill="url(#paint12_linear)"/>
<defs>
<filter id="filter0_f" x="11.4285" y="11.8574" width="100" height="100" filterUnits="userSpaceOnUse" color-interpolation-filters="sRGB">
<feFlood flood-opacity="0" result="BackgroundImageFix"/>
<feBlend mode="normal" in="SourceGraphic" in2="BackgroundImageFix" result="shape"/>
<feGaussianBlur stdDeviation="5" result="effect1_foregroundBlur"/>
</filter>
<filter id="filter1_ii" x="19" y="19" width="83" height="83" filterUnits="userSpaceOnUse" color-interpolation-filters="sRGB">
<feFlood flood-opacity="0" result="BackgroundImageFix"/>
<feBlend mode="normal" in="SourceGraphic" in2="BackgroundImageFix" result="shape"/>
<feColorMatrix in="SourceAlpha" type="matrix" values="0 0 0 0 0 0 0 0 0 0 0 0 0 0 0 0 0 0 127 0" result="hardAlpha"/>
<feOffset dx="-1" dy="-1"/>
<feGaussianBlur stdDeviation="1"/>
<feComposite in2="hardAlpha" operator="arithmetic" k2="-1" k3="1"/>
<feColorMatrix type="matrix" values="0 0 0 0 0.0358854 0 0 0 0 0.26624 0 0 0 0 0.405781 0 0 0 0.31 0"/>
<feBlend mode="normal" in2="shape" result="effect1_innerShadow"/>
<feColorMatrix in="SourceAlpha" type="matrix" values="0 0 0 0 0 0 0 0 0 0 0 0 0 0 0 0 0 0 127 0" result="hardAlpha"/>
<feOffset dx="2" dy="2"/>
<feGaussianBlur stdDeviation="1.5"/>
<feComposite in2="hardAlpha" operator="arithmetic" k2="-1" k3="1"/>
<feColorMatrix type="matrix" values="0 0 0 0 1 0 0 0 0 1 0 0 0 0 1 0 0 0 0.42 0"/>
<feBlend mode="normal" in2="effect1_innerShadow" result="effect2_innerShadow"/>
</filter>
<linearGradient id="paint0_linear" x1="49.4836" y1="43.8078" x2="68.861" y2="73.2284" gradientUnits="userSpaceOnUse">
<stop stop-color="#EAEFF1"/>
<stop offset="1" stop-color="#BED5DE"/>
</linearGradient>
<linearGradient id="paint1_linear" x1="45.7049" y1="45.9706" x2="76.0962" y2="76.8707" gradientUnits="userSpaceOnUse">
<stop stop-color="white"/>
<stop offset="1" stop-color="#E2E8EC"/>
</linearGradient>
<linearGradient id="paint2_linear" x1="39.5737" y1="51.5889" x2="51.3482" y2="63.3636" gradientUnits="userSpaceOnUse">
<stop stop-color="#5D8697"/>
<stop offset="1" stop-color="#7091A4"/>
</linearGradient>
<linearGradient id="paint3_linear" x1="53.291" y1="65.3054" x2="41.0456" y2="53.06" gradientUnits="userSpaceOnUse">
<stop stop-color="#9ABDCD"/>
<stop offset="1" stop-color="#9ABDCD"/>
</linearGradient>
<linearGradient id="paint4_linear" x1="47.2468" y1="68.2478" x2="47.2468" y2="50.5355" gradientUnits="userSpaceOnUse">
<stop stop-color="#447388" stop-opacity="0.31"/>
<stop offset="1" stop-color="#528A9C"/>
</linearGradient>
<linearGradient id="paint5_linear" x1="72.4409" y1="70.685" x2="76.3344" y2="74.5786" gradientUnits="userSpaceOnUse">
<stop stop-color="#FFDA2D"/>
<stop offset="1" stop-color="#FDBF00"/>
</linearGradient>
<linearGradient id="paint6_linear" x1="69.0907" y1="66.1278" x2="61.2431" y2="25.4421" gradientUnits="userSpaceOnUse">
<stop stop-color="#9ABDCD" stop-opacity="0"/>
<stop offset="1" stop-color="#9ABDCD"/>
</linearGradient>
<linearGradient id="paint7_linear" x1="60.4772" y1="73.62" x2="60.4772" y2="80.0537" gradientUnits="userSpaceOnUse">
<stop stop-color="#C7DAE2" stop-opacity="0"/>
<stop offset="1" stop-color="#A8C8D5"/>
</linearGradient>
<linearGradient id="paint8_linear" x1="56.2623" y1="27.2365" x2="63.3269" y2="34.3011" gradientUnits="userSpaceOnUse">
<stop stop-color="#EDF5FF"/>
<stop offset="1" stop-color="#B5DBFF"/>
</linearGradient>
<linearGradient id="paint9_linear" x1="60.5944" y1="32.3176" x2="60.5944" y2="15.3783" gradientUnits="userSpaceOnUse">
<stop stop-color="#B5DBFF" stop-opacity="0"/>
<stop offset="0.2428" stop-color="#93CEF6" stop-opacity="0.243"/>
<stop offset="0.5763" stop-color="#6ABFEC" stop-opacity="0.576"/>
<stop offset="0.8403" stop-color="#51B5E5" stop-opacity="0.84"/>
<stop offset="1" stop-color="#48B2E3"/>
</linearGradient>
<linearGradient id="paint10_linear" x1="56.7491" y1="36.9518" x2="63.589" y2="45.3354" gradientUnits="userSpaceOnUse">
<stop stop-color="#47C4ED"/>
<stop offset="1" stop-color="#3E85D6"/>
</linearGradient>
<linearGradient id="paint11_linear" x1="63.5747" y1="42.629" x2="57.4226" y2="36.4768" gradientUnits="userSpaceOnUse">
<stop stop-color="#0B689D"/>
<stop offset="1" stop-color="#073F5E"/>
</linearGradient>
<linearGradient id="paint12_linear" x1="60.8787" y1="45.2815" x2="60.8787" y2="47.6518" gradientUnits="userSpaceOnUse">
<stop stop-color="#549EF6" stop-opacity="0"/>
<stop offset="1" stop-color="#2466CA"/>
</linearGradient>
</defs>
</svg>
