<svg width="88" height="31" viewBox="0 0 88 31" fill="none" xmlns="http://www.w3.org/2000/svg">
<path d="M0 13.6326L4.56317 13.222C4.74852 13.7549 5.01331 14.1392 5.34871 14.3664C5.6841 14.5935 6.14307 14.707 6.70795 14.707C7.32579 14.707 7.8024 14.576 8.1378 14.3139C8.40259 14.1218 8.53498 13.8772 8.53498 13.5889C8.53498 13.257 8.35846 13.0036 8.01423 12.8289C7.7671 12.6979 7.10513 12.5407 6.03715 12.3572C4.4396 12.0777 3.33632 11.8244 2.70966 11.5885C2.09182 11.3526 1.57107 10.9596 1.13859 10.4005C0.714926 9.84142 0.503096 9.20374 0.503096 8.48744C0.503096 7.70126 0.732579 7.02863 1.19154 6.46083C1.65051 5.89303 2.286 5.47373 3.08919 5.1942C3.89238 4.91467 4.96918 4.7749 6.32842 4.7749C7.75827 4.7749 8.81742 4.87973 9.49704 5.09811C10.1767 5.3165 10.7504 5.64844 11.2005 6.10268C11.6595 6.55692 12.0302 7.1684 12.3391 7.93711L7.95245 8.39135C7.83771 8.00699 7.65236 7.71873 7.3964 7.53528C7.03452 7.29069 6.60203 7.1684 6.09894 7.1684C5.58701 7.1684 5.20749 7.26449 4.978 7.43919C4.73969 7.62264 4.62495 7.84976 4.62495 8.10308C4.62495 8.39135 4.775 8.61847 5.07509 8.76697C5.37518 8.91547 6.02833 9.05524 7.03452 9.1688C8.56146 9.34351 9.70005 9.57936 10.4415 9.8851C11.1829 10.1908 11.7566 10.6276 12.1537 11.1954C12.5509 11.7632 12.7451 12.3834 12.7451 13.0648C12.7451 13.7549 12.5333 14.4188 12.1184 15.0652C11.7036 15.7116 11.0416 16.227 10.1414 16.6113C9.24108 16.9957 8.01423 17.1879 6.46964 17.1879C4.28073 17.1879 2.72731 16.8821 1.79173 16.2619C0.864972 15.6417 0.264787 14.7594 0 13.6238V13.6326Z" fill="#A7333E"/>
<path d="M18.4822 8.62721C18.9235 8.11182 19.4795 7.84976 20.1503 7.84976C20.7858 7.84976 21.3154 8.10308 21.7479 8.60974C22.1804 9.11639 22.3922 9.89384 22.3922 10.9333C22.3922 12.0515 22.1804 12.8639 21.7479 13.3705C21.3242 13.8772 20.777 14.1305 20.115 14.1305C19.453 14.1305 18.9146 13.8772 18.4733 13.3618C18.0408 12.8464 17.8202 12.0602 17.8202 10.9858C17.8202 9.92878 18.0408 9.14259 18.4733 8.62721H18.4822ZM15.4106 15.7465C16.6022 16.7162 18.1644 17.1966 20.0885 17.1966C22.251 17.1966 23.9456 16.6113 25.1636 15.4495C26.3905 14.279 26.9995 12.7852 26.9995 10.9508C26.9995 9.32604 26.5052 7.95458 25.5167 6.84519C24.2898 5.465 22.4716 4.7749 20.0709 4.7749C17.9702 4.7749 16.3021 5.36017 15.0664 6.53945C13.8307 7.71873 13.2129 9.21248 13.2129 11.0207C13.2129 12.9687 13.9455 14.5411 15.4018 15.7465H15.4106Z" fill="#A7333E"/>
<path d="M33.1953 5.04576H35.3842V8.3914H33.1953V16.9258H28.5879V8.3914H26.8491V5.04576H28.5879V4.5129C28.5879 4.03246 28.6409 3.4996 28.7468 2.91433C28.8527 2.3378 29.0469 1.85736 29.3382 1.49047C29.6294 1.12359 30.0354 0.826586 30.565 0.599468C31.0769 0.372349 31.8272 0.258789 32.8157 0.258789H32.9128C33.716 0.258789 34.8811 0.354878 36.3904 0.53832L35.8696 3.28122C35.3136 3.19386 34.8723 3.15019 34.5369 3.15019C34.122 3.15019 33.8219 3.22007 33.6366 3.35984C33.4512 3.4996 33.3277 3.71799 33.2482 4.01499C33.2129 4.18096 33.1953 4.52164 33.1953 5.05449V5.04576Z" fill="#A7333E"/>
<path d="M41.4566 8.39152V12.6107C41.4566 13.1173 41.5007 13.4493 41.5978 13.6152C41.7479 13.8686 42.0127 13.9996 42.3833 13.9996C42.7187 13.9996 43.1953 13.9035 43.8043 13.7113L44.1397 16.8386C43.0012 17.0832 41.942 17.2055 40.9535 17.2055C39.8061 17.2055 38.9677 17.057 38.4205 16.7687C37.8821 16.4804 37.4761 16.0349 37.2201 15.4409C36.9642 14.8469 36.8318 13.8948 36.8318 12.567V8.39152H35.146V5.04589H36.8318V2.86206L41.439 0.520996V8.38278L41.4566 8.39152Z" fill="#A7333E"/>
<path d="M45.1904 0.529785H49.7975V16.9348H45.1904V0.529785Z" fill="#B4B4B3"/>
<path d="M51.7393 16.9347H56.3464V5.0459H51.7393V16.9347Z" fill="#B4B4B3"/>
<path d="M51.7393 0.529785V3.6483H56.3464V0.529785H51.7393Z" fill="#B4B4B3"/>
<path d="M58.103 5.04575H62.4014V6.985C63.0369 6.19008 63.69 5.63102 64.3432 5.29034C64.9963 4.94966 65.7995 4.78369 66.7351 4.78369C68.0061 4.78369 69.0034 5.15931 69.7184 5.91055C70.4333 6.66179 70.7952 7.81486 70.7952 9.38722V16.9433H66.1879V10.4093C66.1879 9.66675 66.0466 9.13389 65.773 8.82816C65.4906 8.52242 65.1022 8.36518 64.5991 8.36518C64.0431 8.36518 63.593 8.57483 63.2399 8.99413C62.8957 9.41342 62.7192 10.1647 62.7192 11.2391V16.952H58.103V5.07196V5.04575Z" fill="#B4B4B3"/>
<path d="M76.5584 9.97246C76.629 9.25615 76.8056 8.7233 77.088 8.35641C77.5205 7.77987 78.103 7.48287 78.8356 7.48287C79.4623 7.48287 79.9742 7.67505 80.3625 8.05941C80.7509 8.44376 80.9892 9.08145 81.0775 9.97246H76.5673H76.5584ZM85.7201 11.6234C85.7201 10.0511 85.4641 8.77571 84.9434 7.79735C84.4226 6.81898 83.6724 6.06774 82.675 5.55235C81.6777 5.03696 80.3272 4.7749 78.6149 4.7749C76.5055 4.7749 74.8461 5.35144 73.6458 6.49577C72.4454 7.64884 71.8452 9.15133 71.8452 11.0032C71.8452 12.3048 72.1453 13.4491 72.7367 14.41C73.3369 15.3797 74.0871 16.0785 74.9962 16.524C75.9053 16.9695 77.1498 17.1879 78.7385 17.1879C80.5655 17.1879 81.9601 16.9258 82.9398 16.4104C83.9195 15.895 84.7492 15.039 85.4376 13.8422L80.9186 13.4317C80.6362 13.7898 80.3714 14.0431 80.1242 14.1829C79.7182 14.41 79.2946 14.5149 78.8533 14.5149C78.1472 14.5149 77.5735 14.2615 77.1321 13.7461C76.8232 13.388 76.6202 12.8464 76.5408 12.1214H85.7201V11.606V11.6234Z" fill="#B4B4B3"/>
<path d="M21.1389 2.1281C26.3905 2.68716 28.4911 3.13266 33.3897 4.43423C37.4762 5.52615 43.9724 5.05444 43.9724 5.05444C43.9724 5.05444 43.9724 7.12471 43.9724 8.40007C41.4304 8.74949 35.9052 8.62719 31.3155 6.96748C23.0983 4.0062 19.3736 3.40346 14.9781 3.08899C9.02043 2.66969 1.92413 3.56069 1.92413 3.56069L1.85352 2.96669C1.85352 2.96669 12.1273 1.16721 21.1389 2.1281Z" fill="#B4B4B3"/>
<path d="M85.8974 0.861328C86.9918 0.861328 87.8833 1.69992 87.9539 2.7569V3.0539C87.8745 4.11088 86.983 4.94947 85.8974 4.94947C84.7588 4.94947 83.832 4.03226 83.832 2.9054C83.832 1.77854 84.7588 0.861328 85.8974 0.861328ZM85.8974 4.47776C86.7712 4.47776 87.4861 3.7702 87.4861 2.9054C87.4861 2.0406 86.7712 1.33304 85.8974 1.33304C85.0236 1.33304 84.3086 2.0406 84.3086 2.9054C84.3086 3.7702 85.0236 4.47776 85.8974 4.47776ZM86.0386 1.87463C86.5064 1.87463 86.7447 2.11922 86.7447 2.44243C86.7447 2.73069 86.5329 2.88793 86.3387 2.92287V2.93161C86.4623 2.96655 86.5417 3.11505 86.5593 3.14999L86.9036 3.96238H86.3475L86.0739 3.29849C86.0651 3.27228 85.9945 3.13252 85.8003 3.13252H85.6414V3.96238H85.1295V1.88336H86.0474L86.0386 1.87463ZM85.6326 2.73943H85.8621C86.1886 2.73943 86.2239 2.57346 86.2239 2.4861C86.2239 2.25898 85.915 2.26772 85.8621 2.26772H85.6326V2.73943Z" fill="#B4B4B3"/>
<path d="M20.4771 29.2056H16.6978V22.9038H20.332V24.0596H18.1172V25.4614H20.1782V26.6128H18.1172V28.0542H20.4771V29.2056ZM26.0054 28.9814C25.5454 29.2041 24.9448 29.3154 24.2036 29.3154C23.2368 29.3154 22.4766 29.0312 21.9229 28.4629C21.3691 27.8945 21.0923 27.1372 21.0923 26.1909C21.0923 25.1831 21.4028 24.3657 22.0239 23.7388C22.6479 23.1118 23.4565 22.7983 24.4497 22.7983C25.0649 22.7983 25.5835 22.876 26.0054 23.0312V24.3979C25.5835 24.146 25.103 24.02 24.564 24.02C23.9722 24.02 23.4946 24.2061 23.1313 24.5781C22.7681 24.9502 22.5864 25.4541 22.5864 26.0898C22.5864 26.6992 22.7578 27.1855 23.1006 27.5488C23.4434 27.9092 23.9048 28.0894 24.4849 28.0894C25.0386 28.0894 25.5454 27.9546 26.0054 27.6851V28.9814ZM29.6528 29.3154C28.7505 29.3154 28.0151 29.0225 27.4468 28.4365C26.8784 27.8477 26.5942 27.0815 26.5942 26.1382C26.5942 25.1421 26.8828 24.3364 27.46 23.7212C28.0371 23.106 28.8018 22.7983 29.7539 22.7983C30.6533 22.7983 31.3799 23.0928 31.9336 23.6816C32.4902 24.2705 32.7686 25.0469 32.7686 26.0107C32.7686 27.001 32.48 27.7993 31.9028 28.4058C31.3286 29.0122 30.5786 29.3154 29.6528 29.3154ZM29.7144 24.02C29.2163 24.02 28.8208 24.2075 28.5278 24.5825C28.2349 24.9546 28.0884 25.4482 28.0884 26.0635C28.0884 26.6875 28.2349 27.1812 28.5278 27.5444C28.8208 27.9077 29.2046 28.0894 29.6792 28.0894C30.1685 28.0894 30.5566 27.9136 30.8438 27.562C31.1309 27.2075 31.2744 26.7168 31.2744 26.0898C31.2744 25.4365 31.1353 24.9282 30.8569 24.5649C30.5786 24.2017 30.1978 24.02 29.7144 24.02ZM40.9995 29.2056H39.5977V25.4351C39.5977 25.0278 39.6152 24.5781 39.6504 24.0859H39.6152C39.542 24.4727 39.4761 24.751 39.4175 24.9209L37.9409 29.2056H36.7808L35.2778 24.9648C35.2368 24.8506 35.1709 24.5576 35.0801 24.0859H35.0405C35.0786 24.707 35.0977 25.252 35.0977 25.7207V29.2056H33.8188V22.9038H35.8975L37.1851 26.6392C37.2876 26.938 37.3623 27.2383 37.4092 27.54H37.4355C37.5146 27.1914 37.5981 26.8882 37.686 26.6304L38.9736 22.9038H40.9995V29.2056ZM49.6128 29.2056H48.2109V25.4351C48.2109 25.0278 48.2285 24.5781 48.2637 24.0859H48.2285C48.1553 24.4727 48.0894 24.751 48.0308 24.9209L46.5542 29.2056H45.394L43.8911 24.9648C43.8501 24.8506 43.7842 24.5576 43.6934 24.0859H43.6538C43.6919 24.707 43.7109 25.252 43.7109 25.7207V29.2056H42.4321V22.9038H44.5107L45.7983 26.6392C45.9009 26.938 45.9756 27.2383 46.0225 27.54H46.0488C46.1279 27.1914 46.2114 26.8882 46.2993 26.6304L47.5869 22.9038H49.6128V29.2056ZM54.8247 29.2056H51.0454V22.9038H54.6797V24.0596H52.4648V25.4614H54.5259V26.6128H52.4648V28.0542H54.8247V29.2056ZM61.1221 29.2056H59.4917L58.5117 27.584C58.4385 27.4609 58.3682 27.3511 58.3008 27.2544C58.2334 27.1577 58.1646 27.0757 58.0942 27.0083C58.0269 26.938 57.9551 26.8853 57.8789 26.8501C57.8057 26.812 57.7251 26.793 57.6372 26.793H57.2549V29.2056H55.8354V22.9038H58.0854C59.6147 22.9038 60.3794 23.4751 60.3794 24.6177C60.3794 24.8374 60.3457 25.041 60.2783 25.2285C60.2109 25.4131 60.1157 25.5801 59.9927 25.7295C59.8696 25.8789 59.7202 26.0078 59.5444 26.1162C59.3716 26.2246 59.1782 26.3096 58.9644 26.3711V26.3887C59.0581 26.418 59.1489 26.4663 59.2368 26.5337C59.3247 26.5981 59.4097 26.6743 59.4917 26.7622C59.5737 26.8501 59.6514 26.9453 59.7246 27.0479C59.8008 27.1475 59.8696 27.2456 59.9312 27.3423L61.1221 29.2056ZM57.2549 23.9673V25.7207H57.8701C58.1748 25.7207 58.4194 25.6328 58.604 25.457C58.7915 25.2783 58.8853 25.0571 58.8853 24.7935C58.8853 24.2427 58.5557 23.9673 57.8965 23.9673H57.2549ZM66.145 28.9814C65.6851 29.2041 65.0845 29.3154 64.3433 29.3154C63.3765 29.3154 62.6162 29.0312 62.0625 28.4629C61.5088 27.8945 61.2319 27.1372 61.2319 26.1909C61.2319 25.1831 61.5425 24.3657 62.1636 23.7388C62.7876 23.1118 63.5962 22.7983 64.5894 22.7983C65.2046 22.7983 65.7231 22.876 66.145 23.0312V24.3979C65.7231 24.146 65.2427 24.02 64.7036 24.02C64.1118 24.02 63.6343 24.2061 63.271 24.5781C62.9077 24.9502 62.7261 25.4541 62.7261 26.0898C62.7261 26.6992 62.8975 27.1855 63.2402 27.5488C63.583 27.9092 64.0444 28.0894 64.6245 28.0894C65.1782 28.0894 65.6851 27.9546 66.145 27.6851V28.9814ZM71.0229 29.2056H67.2437V22.9038H70.8779V24.0596H68.6631V25.4614H70.7241V26.6128H68.6631V28.0542H71.0229V29.2056Z" fill="#5F605F"/>
</svg>
