<svg display="none" xmlns="http://www.w3.org/2000/svg">
        <symbol id="softline-logo" viewBox="0 0 88 31">
            <g>
                <path d="M0 13.6326L4.56317 13.222C4.74852 13.7549 5.01331 14.1392 5.34871 14.3664C5.6841 14.5935 6.14307 14.707 6.70795 14.707C7.32579 14.707 7.8024 14.576 8.1378 14.3139C8.40259 14.1218 8.53498 13.8772 8.53498 13.5889C8.53498 13.257 8.35846 13.0036 8.01423 12.8289C7.7671 12.6979 7.10513 12.5407 6.03715 12.3572C4.4396 12.0777 3.33632 11.8244 2.70966 11.5885C2.09182 11.3526 1.57107 10.9596 1.13859 10.4005C0.714926 9.84142 0.503096 9.20374 0.503096 8.48744C0.503096 7.70126 0.732579 7.02863 1.19154 6.46083C1.65051 5.89303 2.286 5.47373 3.08919 5.1942C3.89238 4.91467 4.96918 4.7749 6.32842 4.7749C7.75827 4.7749 8.81742 4.87973 9.49704 5.09811C10.1767 5.3165 10.7504 5.64844 11.2005 6.10268C11.6595 6.55692 12.0302 7.1684 12.3391 7.93711L7.95245 8.39135C7.83771 8.00699 7.65236 7.71873 7.3964 7.53528C7.03452 7.29069 6.60203 7.1684 6.09894 7.1684C5.58701 7.1684 5.20749 7.26449 4.978 7.43919C4.73969 7.62264 4.62495 7.84976 4.62495 8.10308C4.62495 8.39135 4.775 8.61847 5.07509 8.76697C5.37518 8.91547 6.02833 9.05524 7.03452 9.1688C8.56146 9.34351 9.70005 9.57936 10.4415 9.8851C11.1829 10.1908 11.7566 10.6276 12.1537 11.1954C12.5509 11.7632 12.7451 12.3834 12.7451 13.0648C12.7451 13.7549 12.5333 14.4188 12.1184 15.0652C11.7036 15.7116 11.0416 16.227 10.1414 16.6113C9.24108 16.9957 8.01423 17.1879 6.46964 17.1879C4.28073 17.1879 2.72731 16.8821 1.79173 16.2619C0.864972 15.6417 0.264787 14.7594 0 13.6238V13.6326Z" fill="#A7333E"/>
                <path d="M18.4822 8.62721C18.9235 8.11182 19.4795 7.84976 20.1503 7.84976C20.7858 7.84976 21.3154 8.10308 21.7479 8.60974C22.1804 9.11639 22.3922 9.89384 22.3922 10.9333C22.3922 12.0515 22.1804 12.8639 21.7479 13.3705C21.3242 13.8772 20.777 14.1305 20.115 14.1305C19.453 14.1305 18.9146 13.8772 18.4733 13.3618C18.0408 12.8464 17.8202 12.0602 17.8202 10.9858C17.8202 9.92878 18.0408 9.14259 18.4733 8.62721H18.4822ZM15.4106 15.7465C16.6022 16.7162 18.1644 17.1966 20.0885 17.1966C22.251 17.1966 23.9456 16.6113 25.1636 15.4495C26.3905 14.279 26.9995 12.7852 26.9995 10.9508C26.9995 9.32604 26.5052 7.95458 25.5167 6.84519C24.2898 5.465 22.4716 4.7749 20.0709 4.7749C17.9702 4.7749 16.3021 5.36017 15.0664 6.53945C13.8307 7.71873 13.2129 9.21248 13.2129 11.0207C13.2129 12.9687 13.9455 14.5411 15.4018 15.7465H15.4106Z" fill="#A7333E"/>
                <path d="M33.1953 5.04576H35.3842V8.3914H33.1953V16.9258H28.5879V8.3914H26.8491V5.04576H28.5879V4.5129C28.5879 4.03246 28.6409 3.4996 28.7468 2.91433C28.8527 2.3378 29.0469 1.85736 29.3382 1.49047C29.6294 1.12359 30.0354 0.826586 30.565 0.599468C31.0769 0.372349 31.8272 0.258789 32.8157 0.258789H32.9128C33.716 0.258789 34.8811 0.354878 36.3904 0.53832L35.8696 3.28122C35.3136 3.19386 34.8723 3.15019 34.5369 3.15019C34.122 3.15019 33.8219 3.22007 33.6366 3.35984C33.4512 3.4996 33.3277 3.71799 33.2482 4.01499C33.2129 4.18096 33.1953 4.52164 33.1953 5.05449V5.04576Z" fill="#A7333E"/>
                <path d="M41.4566 8.39152V12.6107C41.4566 13.1173 41.5007 13.4493 41.5978 13.6152C41.7479 13.8686 42.0127 13.9996 42.3833 13.9996C42.7187 13.9996 43.1953 13.9035 43.8043 13.7113L44.1397 16.8386C43.0012 17.0832 41.942 17.2055 40.9535 17.2055C39.8061 17.2055 38.9677 17.057 38.4205 16.7687C37.8821 16.4804 37.4761 16.0349 37.2201 15.4409C36.9642 14.8469 36.8318 13.8948 36.8318 12.567V8.39152H35.146V5.04589H36.8318V2.86206L41.439 0.520996V8.38278L41.4566 8.39152Z" fill="#A7333E"/>
                <path d="M45.1904 0.529785H49.7975V16.9348H45.1904V0.529785Z" fill="#B4B4B3"/>
                <path d="M51.7393 16.9347H56.3464V5.0459H51.7393V16.9347Z" fill="#B4B4B3"/>
                <path d="M51.7393 0.529785V3.6483H56.3464V0.529785H51.7393Z" fill="#B4B4B3"/>
                <path d="M58.103 5.04575H62.4014V6.985C63.0369 6.19008 63.69 5.63102 64.3432 5.29034C64.9963 4.94966 65.7995 4.78369 66.7351 4.78369C68.0061 4.78369 69.0034 5.15931 69.7184 5.91055C70.4333 6.66179 70.7952 7.81486 70.7952 9.38722V16.9433H66.1879V10.4093C66.1879 9.66675 66.0466 9.13389 65.773 8.82816C65.4906 8.52242 65.1022 8.36518 64.5991 8.36518C64.0431 8.36518 63.593 8.57483 63.2399 8.99413C62.8957 9.41342 62.7192 10.1647 62.7192 11.2391V16.952H58.103V5.07196V5.04575Z" fill="#B4B4B3"/>
                <path d="M76.5584 9.97246C76.629 9.25615 76.8056 8.7233 77.088 8.35641C77.5205 7.77987 78.103 7.48287 78.8356 7.48287C79.4623 7.48287 79.9742 7.67505 80.3625 8.05941C80.7509 8.44376 80.9892 9.08145 81.0775 9.97246H76.5673H76.5584ZM85.7201 11.6234C85.7201 10.0511 85.4641 8.77571 84.9434 7.79735C84.4226 6.81898 83.6724 6.06774 82.675 5.55235C81.6777 5.03696 80.3272 4.7749 78.6149 4.7749C76.5055 4.7749 74.8461 5.35144 73.6458 6.49577C72.4454 7.64884 71.8452 9.15133 71.8452 11.0032C71.8452 12.3048 72.1453 13.4491 72.7367 14.41C73.3369 15.3797 74.0871 16.0785 74.9962 16.524C75.9053 16.9695 77.1498 17.1879 78.7385 17.1879C80.5655 17.1879 81.9601 16.9258 82.9398 16.4104C83.9195 15.895 84.7492 15.039 85.4376 13.8422L80.9186 13.4317C80.6362 13.7898 80.3714 14.0431 80.1242 14.1829C79.7182 14.41 79.2946 14.5149 78.8533 14.5149C78.1472 14.5149 77.5735 14.2615 77.1321 13.7461C76.8232 13.388 76.6202 12.8464 76.5408 12.1214H85.7201V11.606V11.6234Z" fill="#B4B4B3"/>
                <path d="M21.1389 2.1281C26.3905 2.68716 28.4911 3.13266 33.3897 4.43423C37.4762 5.52615 43.9724 5.05444 43.9724 5.05444C43.9724 5.05444 43.9724 7.12471 43.9724 8.40007C41.4304 8.74949 35.9052 8.62719 31.3155 6.96748C23.0983 4.0062 19.3736 3.40346 14.9781 3.08899C9.02043 2.66969 1.92413 3.56069 1.92413 3.56069L1.85352 2.96669C1.85352 2.96669 12.1273 1.16721 21.1389 2.1281Z" fill="#B4B4B3"/>
                <path d="M85.8974 0.861328C86.9918 0.861328 87.8833 1.69992 87.9539 2.7569V3.0539C87.8745 4.11088 86.983 4.94947 85.8974 4.94947C84.7588 4.94947 83.832 4.03226 83.832 2.9054C83.832 1.77854 84.7588 0.861328 85.8974 0.861328ZM85.8974 4.47776C86.7712 4.47776 87.4861 3.7702 87.4861 2.9054C87.4861 2.0406 86.7712 1.33304 85.8974 1.33304C85.0236 1.33304 84.3086 2.0406 84.3086 2.9054C84.3086 3.7702 85.0236 4.47776 85.8974 4.47776ZM86.0386 1.87463C86.5064 1.87463 86.7447 2.11922 86.7447 2.44243C86.7447 2.73069 86.5329 2.88793 86.3387 2.92287V2.93161C86.4623 2.96655 86.5417 3.11505 86.5593 3.14999L86.9036 3.96238H86.3475L86.0739 3.29849C86.0651 3.27228 85.9945 3.13252 85.8003 3.13252H85.6414V3.96238H85.1295V1.88336H86.0474L86.0386 1.87463ZM85.6326 2.73943H85.8621C86.1886 2.73943 86.2239 2.57346 86.2239 2.4861C86.2239 2.25898 85.915 2.26772 85.8621 2.26772H85.6326V2.73943Z" fill="#B4B4B3"/>
                <path d="M20.4771 29.2056H16.6978V22.9038H20.332V24.0596H18.1172V25.4614H20.1782V26.6128H18.1172V28.0542H20.4771V29.2056ZM26.0054 28.9814C25.5454 29.2041 24.9448 29.3154 24.2036 29.3154C23.2368 29.3154 22.4766 29.0312 21.9229 28.4629C21.3691 27.8945 21.0923 27.1372 21.0923 26.1909C21.0923 25.1831 21.4028 24.3657 22.0239 23.7388C22.6479 23.1118 23.4565 22.7983 24.4497 22.7983C25.0649 22.7983 25.5835 22.876 26.0054 23.0312V24.3979C25.5835 24.146 25.103 24.02 24.564 24.02C23.9722 24.02 23.4946 24.2061 23.1313 24.5781C22.7681 24.9502 22.5864 25.4541 22.5864 26.0898C22.5864 26.6992 22.7578 27.1855 23.1006 27.5488C23.4434 27.9092 23.9048 28.0894 24.4849 28.0894C25.0386 28.0894 25.5454 27.9546 26.0054 27.6851V28.9814ZM29.6528 29.3154C28.7505 29.3154 28.0151 29.0225 27.4468 28.4365C26.8784 27.8477 26.5942 27.0815 26.5942 26.1382C26.5942 25.1421 26.8828 24.3364 27.46 23.7212C28.0371 23.106 28.8018 22.7983 29.7539 22.7983C30.6533 22.7983 31.3799 23.0928 31.9336 23.6816C32.4902 24.2705 32.7686 25.0469 32.7686 26.0107C32.7686 27.001 32.48 27.7993 31.9028 28.4058C31.3286 29.0122 30.5786 29.3154 29.6528 29.3154ZM29.7144 24.02C29.2163 24.02 28.8208 24.2075 28.5278 24.5825C28.2349 24.9546 28.0884 25.4482 28.0884 26.0635C28.0884 26.6875 28.2349 27.1812 28.5278 27.5444C28.8208 27.9077 29.2046 28.0894 29.6792 28.0894C30.1685 28.0894 30.5566 27.9136 30.8438 27.562C31.1309 27.2075 31.2744 26.7168 31.2744 26.0898C31.2744 25.4365 31.1353 24.9282 30.8569 24.5649C30.5786 24.2017 30.1978 24.02 29.7144 24.02ZM40.9995 29.2056H39.5977V25.4351C39.5977 25.0278 39.6152 24.5781 39.6504 24.0859H39.6152C39.542 24.4727 39.4761 24.751 39.4175 24.9209L37.9409 29.2056H36.7808L35.2778 24.9648C35.2368 24.8506 35.1709 24.5576 35.0801 24.0859H35.0405C35.0786 24.707 35.0977 25.252 35.0977 25.7207V29.2056H33.8188V22.9038H35.8975L37.1851 26.6392C37.2876 26.938 37.3623 27.2383 37.4092 27.54H37.4355C37.5146 27.1914 37.5981 26.8882 37.686 26.6304L38.9736 22.9038H40.9995V29.2056ZM49.6128 29.2056H48.2109V25.4351C48.2109 25.0278 48.2285 24.5781 48.2637 24.0859H48.2285C48.1553 24.4727 48.0894 24.751 48.0308 24.9209L46.5542 29.2056H45.394L43.8911 24.9648C43.8501 24.8506 43.7842 24.5576 43.6934 24.0859H43.6538C43.6919 24.707 43.7109 25.252 43.7109 25.7207V29.2056H42.4321V22.9038H44.5107L45.7983 26.6392C45.9009 26.938 45.9756 27.2383 46.0225 27.54H46.0488C46.1279 27.1914 46.2114 26.8882 46.2993 26.6304L47.5869 22.9038H49.6128V29.2056ZM54.8247 29.2056H51.0454V22.9038H54.6797V24.0596H52.4648V25.4614H54.5259V26.6128H52.4648V28.0542H54.8247V29.2056ZM61.1221 29.2056H59.4917L58.5117 27.584C58.4385 27.4609 58.3682 27.3511 58.3008 27.2544C58.2334 27.1577 58.1646 27.0757 58.0942 27.0083C58.0269 26.938 57.9551 26.8853 57.8789 26.8501C57.8057 26.812 57.7251 26.793 57.6372 26.793H57.2549V29.2056H55.8354V22.9038H58.0854C59.6147 22.9038 60.3794 23.4751 60.3794 24.6177C60.3794 24.8374 60.3457 25.041 60.2783 25.2285C60.2109 25.4131 60.1157 25.5801 59.9927 25.7295C59.8696 25.8789 59.7202 26.0078 59.5444 26.1162C59.3716 26.2246 59.1782 26.3096 58.9644 26.3711V26.3887C59.0581 26.418 59.1489 26.4663 59.2368 26.5337C59.3247 26.5981 59.4097 26.6743 59.4917 26.7622C59.5737 26.8501 59.6514 26.9453 59.7246 27.0479C59.8008 27.1475 59.8696 27.2456 59.9312 27.3423L61.1221 29.2056ZM57.2549 23.9673V25.7207H57.8701C58.1748 25.7207 58.4194 25.6328 58.604 25.457C58.7915 25.2783 58.8853 25.0571 58.8853 24.7935C58.8853 24.2427 58.5557 23.9673 57.8965 23.9673H57.2549ZM66.145 28.9814C65.6851 29.2041 65.0845 29.3154 64.3433 29.3154C63.3765 29.3154 62.6162 29.0312 62.0625 28.4629C61.5088 27.8945 61.2319 27.1372 61.2319 26.1909C61.2319 25.1831 61.5425 24.3657 62.1636 23.7388C62.7876 23.1118 63.5962 22.7983 64.5894 22.7983C65.2046 22.7983 65.7231 22.876 66.145 23.0312V24.3979C65.7231 24.146 65.2427 24.02 64.7036 24.02C64.1118 24.02 63.6343 24.2061 63.271 24.5781C62.9077 24.9502 62.7261 25.4541 62.7261 26.0898C62.7261 26.6992 62.8975 27.1855 63.2402 27.5488C63.583 27.9092 64.0444 28.0894 64.6245 28.0894C65.1782 28.0894 65.6851 27.9546 66.145 27.6851V28.9814ZM71.0229 29.2056H67.2437V22.9038H70.8779V24.0596H68.6631V25.4614H70.7241V26.6128H68.6631V28.0542H71.0229V29.2056Z" fill="#5F605F"/>
            </g>
        </symbol>

        <symbol id="kaspersky" viewBox="0 0 99 20">
            <path d="M44.6012 10.0499C44.6012 13.8025 42.3116 15.5765 39.446 15.5765H37.6946V13.3249H39.3095C41.038 13.3249 42.1902 12.3925 42.1902 10.0499C42.1902 7.73 41.1005 6.5699 39.2583 6.5699C37.4842 6.5699 36.2162 7.66176 36.2162 10.0044V19.4205H33.8281V4.61387H36.2162V5.88771H36.5574C37.3535 4.81875 38.5304 4.34094 39.7586 4.34094C42.3969 4.34094 44.6012 6.25147 44.6012 10.0499ZM28.9061 9.07174L27.3139 8.91251C26.063 8.79881 25.4034 8.45765 25.4034 7.72982C25.4034 6.86556 26.245 6.3652 27.4504 6.3652C28.7014 6.3652 29.4973 6.95652 29.5656 7.79805H31.8628C31.7718 5.66013 30.1115 4.34094 27.4732 4.34094C24.8121 4.34094 23.0153 5.7511 23.0153 7.82082C23.0153 9.54939 24.107 10.6638 26.5862 10.914L28.2009 11.0732C29.179 11.1642 29.8386 11.3689 29.8386 12.3014C29.8386 13.143 29.2244 13.757 27.6096 13.757C26.1226 13.757 25.3899 13.0822 25.1328 12.1777H22.6476C22.8952 14.2453 24.6321 15.8495 27.6096 15.8495C30.4072 15.8495 32.2266 14.3711 32.2266 12.1877C32.2266 10.2544 30.953 9.27645 28.9061 9.07174ZM53.8504 12.1777C53.4757 13.0382 52.5806 13.6889 51.3102 13.6889C49.559 13.6889 48.2626 12.5516 48.2626 10.0952C48.2626 7.75259 49.468 6.45616 51.333 6.45616C52.9933 6.45616 53.9486 7.45693 54.0396 8.95801H49.7409V10.6867H56.3823V9.54939C56.3823 6.38793 54.2898 4.34094 51.3102 4.34094C48.5355 4.34094 45.8744 6.22873 45.8744 10.0952C45.8744 13.9617 48.5355 15.8495 51.3102 15.8495C53.8482 15.8495 55.658 14.2861 56.2203 12.1777H53.8504ZM16.2035 4.34094C13.5879 4.34094 11.6319 5.70577 11.4045 7.79805H13.9745C14.1565 7.02494 14.8616 6.45634 16.2035 6.45634C17.9321 6.45634 18.5007 7.36624 18.5007 8.48056V12.2332C17.5227 13.3478 16.3855 13.8707 15.2482 13.8707C14.0656 13.8707 13.2468 13.3022 13.2468 12.2789C13.2468 11.3006 13.8836 10.6867 15.1118 10.6867H17.0223V8.95801H15.0435C12.3142 8.95801 10.7904 10.3229 10.7904 12.4151C10.7904 14.3711 12.2687 15.8495 14.7024 15.8495C16.067 15.8495 17.2725 15.3038 18.1595 14.644H18.5007V15.5765H20.8888V8.25295C20.8888 5.5464 19.0465 4.34094 16.2035 4.34094ZM0 15.5765H2.38815V0.56543H0V15.5765ZM10.0302 4.61387H7.11892L3.63908 9.18562V10.6185L7.20989 15.5765H10.1666L5.98174 9.89055L10.0302 4.61387ZM96.3617 4.61387L94.4056 8.95801C93.928 10.0044 93.4734 11.0277 93.3368 11.7102H92.9954C92.8589 11.0277 92.3815 10.027 91.9038 8.98092L89.9478 4.61387H87.3095L91.9038 14.4621L89.6294 19.4205H92.1768L99 4.61387H96.3617ZM86.7813 4.61387H83.87L80.3901 9.18562V10.6185L83.9609 15.5765H86.9177L82.7327 9.89055L86.7813 4.61387ZM71.829 9.07174L70.2369 8.91251C68.9859 8.79881 68.3264 8.45765 68.3264 7.72982C68.3264 6.86556 69.1679 6.3652 70.3734 6.3652C71.6243 6.3652 72.4203 6.95652 72.4886 7.79805H74.7857C74.6947 5.66013 73.0344 4.34094 70.3961 4.34094C67.735 4.34094 65.9383 5.7511 65.9383 7.82082C65.9383 9.54939 67.03 10.6638 69.5091 10.914L71.1239 11.0732C72.1019 11.1642 72.7615 11.3689 72.7615 12.3014C72.7615 13.143 72.1474 13.757 70.5325 13.757C69.0455 13.757 68.3128 13.0822 68.0557 12.1777H65.5705C65.8181 14.2453 67.555 15.8495 70.5325 15.8495C73.3301 15.8495 75.1496 14.3711 75.1496 12.1877C75.1496 10.2544 73.8759 9.27645 71.829 9.07174ZM76.751 15.5765H79.1391V0.56543H76.751V15.5765ZM61.003 5.88771H60.6619V4.61387H58.2737V15.5765H60.6619V9.84503C60.6619 7.88905 61.5657 6.75182 63.3457 6.75182H64.8575V4.34094H63.9825C62.3309 4.34094 61.629 4.96386 61.003 5.88771Z"/>
        </symbol>

        <symbol id="allsoft-logo" viewBox="0 0 162 31" >
            <g clip-path="url(#clip0)">
            <path fill-rule="evenodd" clip-rule="evenodd" d="M0.968018 15.2319C0.968018 6.81781 7.78583 0 16.1999 0C24.614 0 31.4318 6.81781 31.4318 15.2319C31.4318 23.6459 24.614 30.4638 16.1999 30.4638C7.79292 30.4638 0.968018 23.6459 0.968018 15.2319Z" fill="#40A8E7"/>
            <path fill-rule="evenodd" clip-rule="evenodd" d="M14.1233 15.9564L15.5422 10.3801C15.5918 10.1957 15.6344 9.91191 15.7266 9.52171C15.8188 9.13861 15.8685 8.84774 15.9111 8.66328H16.5921C16.6134 8.93287 16.734 9.50043 16.9327 10.3801L18.3587 15.9564H14.1233ZM20.4019 23.2141H24.2329L19.3377 6.82581C19.1603 6.14473 18.7276 5.8042 18.0252 5.8042H14.4638C14.1516 5.8042 13.8749 5.88933 13.6266 6.07379C13.3712 6.25115 13.2223 6.50655 13.1726 6.82581L8.2561 23.2141H12.1084L13.3358 18.8155H19.1816L20.4019 23.2141Z"  />
            <g clip-path="url(#clip1)">
            <path fill-rule="evenodd" clip-rule="evenodd" d="M41.8811 8.60221L42.6308 5.5037C42.6547 5.41074 42.6826 5.25139 42.7344 5.02564C42.7703 4.81317 42.7983 4.65825 42.8222 4.56087H43.1771C43.193 4.71579 43.2568 5.02564 43.3565 5.50812L44.1222 8.60663H41.8811V8.60221ZM45.2029 12.918H47.2287L44.6286 3.53836C44.5409 3.15769 44.3096 2.9585 43.9388 2.9585H42.0485C41.8851 2.9585 41.7295 3.01161 41.6059 3.11342C41.4783 3.22851 41.3906 3.37015 41.3666 3.53836L38.7666 12.918H40.8044L41.4544 10.2046H44.5489L45.2029 12.918Z" fill="#211F1F"/>
            <path fill-rule="evenodd" clip-rule="evenodd" d="M47.8479 2.9585V11.019C47.8479 11.6299 48.0114 12.0947 48.3464 12.4222C48.6774 12.7631 49.12 12.9136 49.7102 12.9136C50.4001 12.9136 50.9225 12.8295 51.2495 12.6303L51.0222 11.1474H50.4998C50.0173 11.1474 49.774 10.9217 49.774 10.4569V2.9585H47.8479Z" fill="#211F1F"/>
            <path fill-rule="evenodd" clip-rule="evenodd" d="M52.0547 2.9585V11.019C52.0547 11.6299 52.2222 12.0947 52.5532 12.4222C52.8841 12.7631 53.3268 12.9136 53.913 12.9136C54.6029 12.9136 55.1253 12.8295 55.4563 12.6303L55.229 11.1474H54.7066C54.224 11.1474 53.9808 10.9217 53.9808 10.4569V2.9585H52.0547Z" fill="#211F1F"/>
            <path fill-rule="evenodd" clip-rule="evenodd" d="M59.3097 10.2266C59.3815 10.2532 59.4493 10.2709 59.4852 10.2709C59.525 10.2842 59.5729 10.2975 59.6407 10.324C59.6885 10.3506 59.7284 10.3639 59.7563 10.3816C59.7803 10.3949 59.8082 10.4081 59.8441 10.4347C59.88 10.4612 59.9079 10.4745 59.9358 10.4922C59.9478 10.5188 59.9597 10.5454 59.9836 10.5719C59.9956 10.6029 60.0116 10.6427 60.0116 10.6737C60.0116 10.718 60.0235 10.7578 60.0235 10.7977C60.0235 11.0234 59.9198 11.1695 59.7165 11.2226C59.5131 11.2801 59.0665 11.3067 58.4045 11.3067H56.1753L56.0597 12.6656C56.937 12.8338 57.894 12.9046 58.9388 12.9046C60.0116 12.9046 60.7732 12.763 61.2199 12.4664C61.6665 12.1876 61.8978 11.621 61.8978 10.7977C61.8978 10.2311 61.7702 9.79286 61.5269 9.50071C61.2757 9.21742 60.8649 8.97397 60.3027 8.79691L58.6597 8.32771C58.6118 8.32771 58.548 8.31443 58.4683 8.28787C58.3845 8.26131 58.3167 8.24803 58.2928 8.23475C58.2649 8.23475 58.2171 8.21704 58.1612 8.19049C58.1134 8.16393 58.0735 8.15065 58.0456 8.13737C58.0216 8.13737 57.9977 8.12409 57.9738 8.0931C57.9339 8.06655 57.906 8.05327 57.898 8.02671C57.8741 8.01343 57.8581 7.98244 57.8462 7.95589C57.8223 7.92933 57.8103 7.88506 57.8103 7.8408V7.72571C57.8103 7.61505 57.8223 7.51324 57.8462 7.46012C57.8741 7.40258 57.9339 7.34504 58.0615 7.31405C58.1772 7.28749 58.2928 7.27421 58.4204 7.27421H59.0545H61.5269L61.6585 5.92858C60.833 5.76037 59.8361 5.67627 58.6916 5.67627C57.6827 5.67627 56.9689 5.8312 56.5621 6.12777C56.1554 6.42434 55.948 6.9201 55.948 7.6239C55.948 8.19049 56.0517 8.64198 56.279 8.95626C56.5063 9.28382 56.913 9.53612 57.5152 9.70875L59.1223 10.1735C59.1542 10.2001 59.222 10.2134 59.3097 10.2266Z" fill="#211F1F"/>
            <path fill-rule="evenodd" clip-rule="evenodd" d="M66.96 7.69915C67.1354 7.97802 67.2232 8.51804 67.2232 9.31038C67.2232 10.1027 67.1354 10.6427 66.96 10.9083C66.7805 11.1916 66.4336 11.32 65.9511 11.32C65.4406 11.32 65.0937 11.1916 64.9182 10.9083C64.7388 10.6427 64.663 10.1027 64.663 9.31038C64.663 8.50476 64.7388 7.96474 64.9182 7.68587C65.0937 7.41586 65.4406 7.27421 65.9511 7.27421C66.4495 7.27421 66.7765 7.41143 66.96 7.69915ZM63.3909 6.49516C62.8805 7.04847 62.6372 7.97802 62.6372 9.31038C62.6372 10.6427 62.8805 11.5723 63.3909 12.1123C63.8854 12.6523 64.7388 12.9179 65.9511 12.9179C67.1474 12.9179 67.9888 12.6523 68.4992 12.1123C68.9977 11.5723 69.2489 10.6427 69.2489 9.31038C69.2489 7.99572 68.9977 7.06174 68.4992 6.50844C67.9888 5.95514 67.1474 5.67627 65.9511 5.67627C64.7388 5.67627 63.8854 5.95514 63.3909 6.49516Z" fill="#211F1F"/>
            <path fill-rule="evenodd" clip-rule="evenodd" d="M75.1536 3.11342C74.6711 3.01604 73.9812 2.9585 73.064 2.9585C71.6603 2.9585 70.9585 3.56492 70.9585 4.78219V5.6719H69.8259V7.26985H70.9585V12.9136H72.8965V7.27427H74.6711V5.67633H72.8965V5.14958C72.8965 4.93711 72.9643 4.78219 73.0879 4.69809C73.2195 4.61841 73.4349 4.55644 73.7659 4.55644H74.9781L75.1536 3.11342Z" fill="#211F1F"/>
            <path fill-rule="evenodd" clip-rule="evenodd" d="M79.6926 7.27457V5.67662H77.906V3.86621H75.9999V5.67662H74.8474V7.27457H75.9999V10.9352C75.9999 11.5594 76.1514 12.0551 76.4665 12.3915C76.7855 12.7456 77.2481 12.9183 77.8303 12.9183C78.5441 12.9183 79.1423 12.8342 79.6367 12.635L79.4334 11.1521H78.6079C78.3567 11.1521 78.1653 11.1123 78.0616 11.0105C77.9619 10.9131 77.906 10.7316 77.906 10.4705V7.27457H79.6926Z" fill="#211F1F"/>
            <path fill-rule="evenodd" clip-rule="evenodd" d="M86.4651 11.32C86.2498 11.32 86.0942 11.2625 85.9906 11.1341C85.8909 11.0058 85.851 10.7933 85.851 10.5011V8.38974H89.444V6.79179H85.851V5.29566C85.851 5.03892 85.8869 4.84416 85.9906 4.72907C86.0942 4.61398 86.2498 4.55644 86.4651 4.55644H89.9305L90.0182 3.11342C89.2047 3.01604 87.801 2.9585 85.839 2.9585C85.2409 2.9585 84.7663 3.14441 84.4114 3.49852C84.0525 3.86592 83.8611 4.34397 83.8611 4.95482V10.9217C83.8611 11.5458 84.0525 12.0283 84.4114 12.378C84.7663 12.7454 85.2369 12.9136 85.839 12.9136C87.801 12.9136 89.2047 12.8737 90.0182 12.7852L89.9305 11.32H86.4651Z" fill="#40A8E7"/>
            <path fill-rule="evenodd" clip-rule="evenodd" d="M94.5954 11.32C93.9973 11.32 93.5865 11.1783 93.3712 10.895C93.1439 10.6162 93.0402 10.0894 93.0402 9.2971C93.0402 8.51804 93.1439 7.97802 93.3712 7.69915C93.5865 7.41586 93.9973 7.27421 94.5954 7.27421H96.4298L96.6332 6.10121C96.0231 5.81792 95.2335 5.67627 94.2644 5.67627C93.0641 5.67627 92.2267 5.95514 91.7402 6.49516C91.2577 7.03519 91.0144 7.96474 91.0144 9.2971C91.0144 10.6295 91.2616 11.5723 91.7402 12.1123C92.2267 12.6523 93.0522 12.9179 94.2405 12.9179C95.2335 12.9179 96.0629 12.7763 96.7249 12.4797L96.5614 11.196C95.9991 11.2757 95.3491 11.32 94.5954 11.32Z" fill="#211F1F"/>
            <path fill-rule="evenodd" clip-rule="evenodd" d="M101.988 7.69915C102.167 7.97802 102.259 8.51804 102.259 9.31038C102.259 10.1027 102.171 10.6427 101.988 10.9083C101.812 11.1916 101.466 11.32 100.987 11.32C100.477 11.32 100.13 11.1916 99.9502 10.9083C99.7747 10.6427 99.699 10.1027 99.699 9.31038C99.699 8.50476 99.7747 7.96474 99.9502 7.68587C100.13 7.41586 100.477 7.27421 100.987 7.27421C101.478 7.27421 101.812 7.41143 101.988 7.69915ZM98.4189 6.49516C97.9085 7.04847 97.6692 7.97802 97.6692 9.31038C97.6692 10.6427 97.9085 11.5723 98.4189 12.1123C98.9174 12.6523 99.7707 12.9179 100.983 12.9179C102.179 12.9179 103.021 12.6523 103.531 12.1123C104.026 11.5723 104.281 10.6427 104.281 9.31038C104.281 7.99572 104.026 7.06174 103.531 6.50844C103.021 5.95514 102.179 5.67627 100.983 5.67627C99.7747 5.67627 98.9174 5.95514 98.4189 6.49516Z" fill="#211F1F"/>
            <path fill-rule="evenodd" clip-rule="evenodd" d="M105.409 5.67627V12.9179H107.336V7.91162C107.946 7.48668 108.416 7.27421 108.763 7.27421C108.99 7.27421 109.17 7.34504 109.286 7.4734C109.389 7.60177 109.449 7.82752 109.449 8.13737V12.9179H111.299V7.9249C111.654 7.67259 111.937 7.49996 112.129 7.41143C112.32 7.33176 112.524 7.26979 112.739 7.26979C112.99 7.26979 113.17 7.34061 113.273 7.46898C113.361 7.59734 113.413 7.82309 113.413 8.13294V12.9135H115.335V7.6239C115.335 7.0042 115.183 6.51729 114.88 6.18088C114.573 5.84005 114.127 5.67627 113.544 5.67627C112.727 5.67627 111.949 6.03038 111.2 6.70763C110.956 6.03038 110.41 5.67627 109.541 5.67627C108.723 5.67627 107.91 6.04366 107.096 6.78288L106.957 5.67627H105.409Z" fill="#211F1F"/>
            <path fill-rule="evenodd" clip-rule="evenodd" d="M116.958 5.67627V12.9179H118.884V7.91162C119.494 7.48668 119.965 7.27421 120.311 7.27421C120.539 7.27421 120.722 7.34504 120.834 7.4734C120.934 7.60177 120.997 7.82752 120.997 8.13737V12.9179H122.844V7.9249C123.203 7.67259 123.486 7.49996 123.673 7.41143C123.861 7.33176 124.064 7.26979 124.287 7.26979C124.539 7.26979 124.718 7.34061 124.822 7.46898C124.909 7.59734 124.961 7.82309 124.961 8.13294V12.9135H126.887V7.6239C126.887 7.0042 126.736 6.51729 126.433 6.18088C126.126 5.84005 125.679 5.67627 125.089 5.67627C124.271 5.67627 123.498 6.03038 122.744 6.70763C122.501 6.03038 121.958 5.67627 121.089 5.67627C120.272 5.67627 119.458 6.04366 118.641 6.78288L118.501 5.67627H116.958Z" fill="#211F1F"/>
            <path fill-rule="evenodd" clip-rule="evenodd" d="M130.558 7.49996C130.738 7.35832 131.081 7.27421 131.579 7.27421C131.986 7.27421 132.281 7.33176 132.433 7.41586C132.584 7.49996 132.676 7.65489 132.676 7.88064C132.676 8.05327 132.624 8.18163 132.544 8.26574C132.469 8.34984 132.301 8.3941 132.074 8.3941H130.251C130.275 7.93818 130.379 7.63718 130.558 7.49996ZM134.1 9.50956C134.407 9.19529 134.57 8.71723 134.57 8.06655C134.558 7.27421 134.315 6.66779 133.832 6.26941C133.346 5.87546 132.584 5.67627 131.512 5.67627C130.327 5.67627 129.486 5.94186 128.991 6.48188C128.481 7.02191 128.238 7.96916 128.238 9.31038C128.238 10.6162 128.493 11.5324 129.003 12.0858C129.514 12.6523 130.379 12.9179 131.587 12.9179C132.788 12.9179 133.717 12.7453 134.395 12.4089L134.215 11.1651C133.298 11.2801 132.493 11.3244 131.819 11.3244C131.296 11.3244 130.929 11.2403 130.71 11.0544C130.483 10.8862 130.343 10.5321 130.291 9.99647H132.612C133.298 9.98762 133.797 9.83269 134.1 9.50956Z" fill="#211F1F"/>
            <path fill-rule="evenodd" clip-rule="evenodd" d="M140.26 5.6763C139.391 5.6763 138.525 6.00386 137.66 6.62356L137.48 5.6763H135.981V12.918H137.919V7.80985C138.796 7.45573 139.458 7.26982 139.893 7.26982H140.415L140.607 5.67188H140.26V5.6763Z" fill="#211F1F"/>
            <path fill-rule="evenodd" clip-rule="evenodd" d="M145.127 11.32C144.529 11.32 144.118 11.1783 143.903 10.895C143.676 10.6162 143.572 10.0894 143.572 9.2971C143.572 8.51804 143.676 7.97802 143.903 7.69915C144.118 7.41586 144.525 7.27421 145.127 7.27421H146.962L147.165 6.10121C146.551 5.81792 145.765 5.67627 144.796 5.67627C143.6 5.67627 142.758 5.95514 142.272 6.49516C141.789 7.03519 141.546 7.96474 141.546 9.2971C141.546 10.6295 141.789 11.5723 142.272 12.1123C142.758 12.6523 143.584 12.9179 144.772 12.9179C145.769 12.9179 146.595 12.7763 147.257 12.4797L147.093 11.196C146.527 11.2757 145.881 11.32 145.127 11.32Z" fill="#211F1F"/>
            <path fill-rule="evenodd" clip-rule="evenodd" d="M150.519 7.49996C150.699 7.35832 151.041 7.27421 151.536 7.27421C151.943 7.27421 152.238 7.33176 152.389 7.41586C152.545 7.49996 152.633 7.65489 152.633 7.88064C152.633 8.05327 152.581 8.18163 152.501 8.26574C152.429 8.34984 152.262 8.3941 152.03 8.3941H150.208C150.24 7.93818 150.34 7.63718 150.519 7.49996ZM154.064 9.50956C154.371 9.19529 154.535 8.71723 154.535 8.06655C154.523 7.27421 154.284 6.66779 153.797 6.26941C153.311 5.87546 152.549 5.67627 151.476 5.67627C150.296 5.67627 149.45 5.94186 148.952 6.48188C148.441 7.02191 148.202 7.96916 148.202 9.31038C148.202 10.6162 148.457 11.5324 148.968 12.0858C149.478 12.6523 150.344 12.9179 151.556 12.9179C152.756 12.9179 153.685 12.7453 154.355 12.4089L154.18 11.1651C153.263 11.2801 152.457 11.3244 151.783 11.3244C151.261 11.3244 150.89 11.2403 150.675 11.0544C150.447 10.8862 150.308 10.5321 150.256 9.99647H152.577C153.263 9.98762 153.757 9.83269 154.064 9.50956Z" fill="#211F1F"/>
            <path fill-rule="evenodd" clip-rule="evenodd" d="M161.901 3.41005C161.901 4.28206 161.622 5.03013 161.064 5.64983C160.505 6.26953 159.831 6.57938 159.046 6.57938C158.26 6.57938 157.586 6.26953 157.028 5.64983C156.47 5.03013 156.195 4.28206 156.195 3.41005C156.195 2.53805 156.474 1.78998 157.028 1.17028C157.586 0.550574 158.26 0.240723 159.046 0.240723C159.831 0.240723 160.505 0.546147 161.064 1.17028C161.626 1.78998 161.901 2.53805 161.901 3.41005ZM161.275 3.41005C161.275 2.72838 161.056 2.14409 160.625 1.65276C160.19 1.16585 159.664 0.917968 159.05 0.917968C158.44 0.917968 157.913 1.16142 157.475 1.65276C157.044 2.13967 156.825 2.72396 156.825 3.41005C156.825 4.0873 157.044 4.67601 157.475 5.16735C157.913 5.65426 158.44 5.90214 159.05 5.90214C159.664 5.90214 160.19 5.65868 160.625 5.16735C161.052 4.68044 161.275 4.09173 161.275 3.41005ZM160.653 4.91062H159.756L158.894 3.75089H158.607V4.91062H157.905V1.75899H158.986C159.185 1.75899 159.345 1.76342 159.469 1.78112C159.592 1.79883 159.708 1.84309 159.831 1.91392C159.959 1.99359 160.055 2.0954 160.115 2.20606C160.17 2.32115 160.202 2.4628 160.202 2.63543C160.202 2.86118 160.146 3.05151 160.027 3.20201C159.911 3.35251 159.76 3.4676 159.576 3.5517L160.653 4.91062ZM159.433 2.69297C159.433 2.62215 159.421 2.5646 159.397 2.51149C159.373 2.45837 159.329 2.40968 159.269 2.37869C159.213 2.34328 159.15 2.32558 159.078 2.31672C159.01 2.30787 158.926 2.30344 158.834 2.30344H158.615V3.18873H158.787C158.902 3.18873 159.002 3.17988 159.086 3.16217C159.173 3.14447 159.237 3.11348 159.285 3.07364C159.341 3.03381 159.377 2.97626 159.401 2.91872C159.417 2.85232 159.433 2.77707 159.433 2.69297Z" fill="#989897"/>
            <path d="M44.9866 20.018V26.918H43.4566V21.088H41.0166V26.918H39.4866V20.018H44.9866ZM51.95 20.018V26.918H50.42V21.088H49.52C49.1266 21.088 48.9166 21.2813 48.89 21.668C48.81 22.548 48.73 23.2913 48.65 23.898C48.5766 24.5046 48.4566 25.0213 48.29 25.448C48.0766 26.0546 47.7733 26.4713 47.38 26.698C46.9933 26.9246 46.5366 27.008 46.01 26.948L45.89 25.768C46.11 25.7213 46.3033 25.6513 46.47 25.558C46.6433 25.458 46.78 25.2846 46.88 25.038C46.9733 24.798 47.0533 24.528 47.12 24.228C47.1866 23.928 47.2433 23.5613 47.29 23.128C47.3366 22.688 47.3833 22.148 47.43 21.508C47.5033 20.5146 48.0366 20.018 49.03 20.018H51.95ZM56.7968 20.018C56.9235 20.018 57.0335 20.0546 57.1268 20.128C57.2268 20.2013 57.2935 20.298 57.3268 20.418L59.3268 26.918H57.7668L57.2568 25.088H54.8768L54.3768 26.918H52.8168L54.8168 20.418C54.8502 20.298 54.9135 20.2013 55.0068 20.128C55.1068 20.0546 55.2202 20.018 55.3468 20.018H56.7968ZM55.7868 21.838L55.1968 23.948H56.9368L56.3568 21.838C56.3235 21.7313 56.2935 21.6213 56.2668 21.508C56.2468 21.388 56.2268 21.2746 56.2068 21.168H55.9368C55.9168 21.2746 55.8935 21.388 55.8668 21.508C55.8402 21.6213 55.8135 21.7313 55.7868 21.838ZM64.7639 20.018V21.218H62.6839V26.918H61.1639V21.218H59.0839V20.018H64.7639ZM70.0895 19.518V20.418C70.8628 20.458 71.4795 20.5813 71.9395 20.788C72.3995 20.988 72.7295 21.298 72.9295 21.718C73.1362 22.138 73.2395 22.6913 73.2395 23.378C73.2395 24.058 73.1362 24.6013 72.9295 25.008C72.7295 25.4146 72.3995 25.718 71.9395 25.918C71.4795 26.1113 70.8628 26.2313 70.0895 26.278V27.168H68.5695V26.278C67.7962 26.238 67.1762 26.118 66.7095 25.918C66.2495 25.718 65.9195 25.4146 65.7195 25.008C65.5195 24.6013 65.4195 24.058 65.4195 23.378C65.4195 22.6846 65.5195 22.1313 65.7195 21.718C65.9195 21.298 66.2495 20.988 66.7095 20.788C67.1762 20.5813 67.7962 20.458 68.5695 20.418V19.518H70.0895ZM66.9495 23.378C66.9495 23.8046 66.9962 24.1413 67.0895 24.388C67.1828 24.6346 67.3495 24.818 67.5895 24.938C67.8362 25.0513 68.1828 25.1213 68.6295 25.148V21.538C68.1828 21.5713 67.8362 21.648 67.5895 21.768C67.3495 21.888 67.1828 22.078 67.0895 22.338C66.9962 22.5913 66.9495 22.938 66.9495 23.378ZM71.7095 23.378C71.7028 22.938 71.6528 22.5913 71.5595 22.338C71.4662 22.078 71.2962 21.888 71.0495 21.768C70.8095 21.648 70.4662 21.5746 70.0195 21.548V25.148C70.4662 25.1213 70.8095 25.0513 71.0495 24.938C71.2962 24.818 71.4662 24.6346 71.5595 24.388C71.6528 24.1413 71.7028 23.8046 71.7095 23.378ZM77.2046 19.878C77.7513 19.878 78.2113 19.938 78.5846 20.058C78.9646 20.1713 79.2713 20.3646 79.5046 20.638C79.738 20.9113 79.908 21.278 80.0146 21.738C80.1213 22.198 80.1746 22.7746 80.1746 23.468C80.1746 24.1613 80.1213 24.738 80.0146 25.198C79.908 25.658 79.738 26.0246 79.5046 26.298C79.2713 26.5713 78.9646 26.7646 78.5846 26.878C78.2113 26.9913 77.7513 27.048 77.2046 27.048C76.658 27.048 76.1946 26.9913 75.8146 26.878C75.4346 26.7646 75.128 26.5713 74.8946 26.298C74.6613 26.0246 74.4913 25.658 74.3846 25.198C74.2846 24.738 74.2346 24.1613 74.2346 23.468C74.2346 22.7746 74.2846 22.198 74.3846 21.738C74.4913 21.278 74.6613 20.9113 74.8946 20.638C75.128 20.3646 75.4346 20.1713 75.8146 20.058C76.1946 19.938 76.658 19.878 77.2046 19.878ZM77.2046 21.078C76.8513 21.078 76.5746 21.148 76.3746 21.288C76.1813 21.428 76.0413 21.6713 75.9546 22.018C75.8746 22.3646 75.8346 22.848 75.8346 23.468C75.8346 24.088 75.8746 24.5713 75.9546 24.918C76.0413 25.2646 76.1813 25.508 76.3746 25.648C76.5746 25.7813 76.8513 25.848 77.2046 25.848C77.5513 25.848 77.8246 25.7813 78.0246 25.648C78.2246 25.508 78.3646 25.2646 78.4446 24.918C78.5246 24.5713 78.5646 24.088 78.5646 23.468C78.5646 22.848 78.5246 22.3646 78.4446 22.018C78.3646 21.6713 78.2246 21.428 78.0246 21.288C77.8246 21.148 77.5513 21.078 77.2046 21.078ZM84.1694 19.918C84.8094 19.918 85.3127 19.9846 85.6794 20.118C86.0461 20.2513 86.3061 20.4813 86.4594 20.808C86.6194 21.1346 86.6994 21.5913 86.6994 22.178C86.6994 22.7646 86.6227 23.2213 86.4694 23.548C86.3227 23.8746 86.0761 24.1013 85.7294 24.228C85.3894 24.3546 84.9327 24.4213 84.3594 24.428C84.1327 24.4213 83.9061 24.4113 83.6794 24.398C83.4594 24.3846 83.2461 24.368 83.0394 24.348V26.918H81.5194V20.018C81.7927 19.9913 82.0527 19.9713 82.2994 19.958C82.5461 19.9446 82.8127 19.9346 83.0994 19.928C83.3927 19.9213 83.7494 19.918 84.1694 19.918ZM84.1294 21.068C83.9294 21.068 83.7361 21.068 83.5494 21.068C83.3694 21.068 83.1994 21.068 83.0394 21.068V23.278H84.1294C84.5294 23.278 84.8027 23.2046 84.9494 23.058C85.0961 22.9113 85.1694 22.618 85.1694 22.178C85.1694 21.738 85.0961 21.4446 84.9494 21.298C84.8027 21.1446 84.5294 21.068 84.1294 21.068ZM94.9306 20.018C95.2906 20.018 95.4773 20.2046 95.4906 20.578L95.7506 26.918H94.3406L94.1106 21.188H93.9306L92.8206 25.498C92.7539 25.818 92.5539 25.978 92.2206 25.978H91.2606C90.9206 25.978 90.7173 25.818 90.6506 25.498L89.5306 21.188H89.3606L89.1506 26.918H87.7406L87.9906 20.578C88.0039 20.2046 88.1939 20.018 88.5606 20.018H89.9906C90.3173 20.018 90.5173 20.178 90.5906 20.498L91.4806 23.978C91.5206 24.138 91.5539 24.3013 91.5806 24.468C91.6073 24.628 91.6373 24.7913 91.6706 24.958H91.8006C91.8339 24.7913 91.8639 24.628 91.8906 24.468C91.9173 24.3013 91.9506 24.1346 91.9906 23.968L92.8706 20.498C92.9373 20.178 93.1406 20.018 93.4806 20.018H94.9306ZM42.7566 34.018C42.8833 34.018 42.9933 34.0546 43.0866 34.128C43.1866 34.2013 43.2533 34.298 43.2866 34.418L45.2866 40.918H43.7266L43.2166 39.088H40.8366L40.3366 40.918H38.7766L40.7766 34.418C40.8099 34.298 40.8733 34.2013 40.9666 34.128C41.0666 34.0546 41.1799 34.018 41.3066 34.018H42.7566ZM41.7466 35.838L41.1566 37.948H42.8966L42.3166 35.838C42.2833 35.7313 42.2533 35.6213 42.2266 35.508C42.2066 35.388 42.1866 35.2746 42.1666 35.168H41.8966C41.8766 35.2746 41.8533 35.388 41.8266 35.508C41.7999 35.6213 41.7733 35.7313 41.7466 35.838Z" fill="#40A8E7"/>
            </g>
            </g>
            <defs>
            <clipPath id="clip0">
            <rect width="160.933" height="30.4638"   transform="translate(0.968018)"/>
            </clipPath>
            <clipPath id="clip1">
            <rect width="123.135" height="29.9822"   transform="translate(38.7666 0.240723)"/>
            </clipPath>
            </defs>
        </symbol>

        <symbol id="arrow-down" viewBox="0 0 9 6">
            <path fill-rule="evenodd" clip-rule="evenodd" d="M4.5 5.91671C4.28667 5.91671 4.07334 5.83505 3.91084 5.67255L0.577505 2.33921C0.251672 2.01338 0.251672 1.48671 0.577505 1.16088C0.903338 0.835046 1.43 0.835046 1.75584 1.16088L4.51 3.91505L7.25417 1.26505C7.58667 0.945879 8.1125 0.955046 8.4325 1.28588C8.7525 1.61671 8.74334 2.14505 8.4125 2.46421L5.07917 5.68255C4.91667 5.83921 4.70834 5.91671 4.5 5.91671Z" />
        </symbol>

        <symbol id="parallels" viewBox="0 0 100 20">
            <g clip-path="url(#clip0)">
            <path fill-rule="evenodd" clip-rule="evenodd" d="M4.46822 -0.09375C5.38751 -0.09375 6.09465 0.619586 6.09465 1.54692V18.453C6.09465 19.309 5.38751 20.0936 4.46822 20.0936C3.54894 20.0936 2.8418 19.309 2.8418 18.453V1.54692C2.8418 0.619586 3.54894 -0.09375 4.46822 -0.09375Z" />
            <path fill-rule="evenodd" clip-rule="evenodd" d="M10.9743 -0.09375C11.8936 -0.09375 12.6008 0.619586 12.6008 1.54692V18.453C12.6008 19.309 11.8936 20.0936 10.9743 20.0936C10.1258 20.0936 9.3479 19.309 9.3479 18.453V1.54692C9.3479 0.619586 10.1258 -0.09375 10.9743 -0.09375Z" />
            <path fill-rule="evenodd" clip-rule="evenodd" d="M94.9122 5.96977V4.68577H95.5486V4.40044H93.9929V4.68577H94.5586V5.96977H94.9122ZM97.0336 4.5431L96.6093 5.6131C96.6093 5.68444 96.6093 5.68444 96.5386 5.6131L96.1851 4.5431C96.1851 4.5431 96.1144 4.5431 96.1144 4.47177C96.0436 4.40043 95.9022 4.3291 95.8315 4.40044C95.6901 4.40044 95.6194 4.47177 95.6194 4.61444V5.96977H95.9022V4.7571C95.9022 4.68577 95.9729 4.7571 95.9729 4.7571L96.3265 5.8271C96.3972 5.96977 96.4679 6.04111 96.6093 6.04111C96.7508 6.04111 96.7508 5.89844 96.8215 5.8271L97.2458 4.7571C97.2458 4.7571 97.2458 4.68577 97.2458 4.7571V5.96977H97.5993V4.61444C97.5993 4.47177 97.4579 4.40044 97.3165 4.3291C97.1751 4.3291 97.1043 4.40043 97.0336 4.5431Z" />
            <path fill-rule="evenodd" clip-rule="evenodd" d="M84.0219 17.2404H91.0933C92.9319 17.2404 93.9926 16.099 93.9219 14.2444C93.9219 13.2457 93.639 12.3184 92.7197 11.6764C92.0126 11.2484 91.2347 11.0344 90.4569 10.8204L88.194 10.1784C87.7697 10.0357 87.3455 9.96436 86.9919 9.67903C86.7797 9.46503 86.7797 9.32236 86.7797 9.10836C86.7797 8.60902 86.9919 8.39502 87.5576 8.39502H93.4976V6.04102H87.204C85.6483 6.04102 84.3048 6.46902 83.9512 8.25236C83.8098 9.32236 83.8805 10.4637 84.6583 11.2484C85.2947 11.8904 86.0726 12.1757 86.9212 12.461L88.9719 12.9604C89.4669 13.103 89.9619 13.2457 90.4569 13.4597C90.5983 13.531 90.8105 13.6024 90.8812 13.745C90.9519 13.959 91.0226 14.387 90.8812 14.601C90.7397 14.815 90.5276 14.8864 90.2447 14.8864H84.0219V17.2404Z" />
            <path fill-rule="evenodd" clip-rule="evenodd" d="M73.8395 8.39507C74.9003 8.39507 76.1024 8.60907 76.1731 9.89307C76.1731 10.1071 76.2438 10.3211 75.961 10.3211H71.4352C71.4352 9.82174 71.506 9.3224 71.8595 8.96574C72.2838 8.4664 73.0617 8.39507 73.8395 8.39507ZM73.0617 14.8864C72.4253 14.8151 71.8595 14.6724 71.5767 14.0304C71.506 13.6024 71.4352 13.1744 71.4352 12.7464H77.2338C78.0824 12.7464 78.7188 12.3184 79.0017 11.5337C79.2138 11.1057 79.2138 10.6064 79.2138 10.1071C79.1431 8.8944 78.8603 7.75306 77.941 6.9684C76.7388 6.04106 75.2538 5.96973 73.8395 5.96973C72.2838 5.96973 70.7281 6.11239 69.526 7.25373C68.4652 8.4664 68.3945 10.0357 68.3945 11.5337C68.3945 12.3184 68.3945 13.0317 68.536 13.7451C68.6774 14.6011 68.8895 15.3858 69.3845 16.0278C70.021 16.7411 70.7281 17.0264 71.5767 17.1691C72.001 17.2404 72.3545 17.2404 72.7081 17.2404H78.8603V14.8864H73.4152H73.0617Z"/>
            <path fill-rule="evenodd" clip-rule="evenodd" d="M38.3403 12.461V14.6724C38.3403 14.8864 38.1281 14.8864 37.916 14.8864H34.6631C34.0267 14.8864 33.8853 14.2444 33.8853 13.6737C33.8853 13.103 33.956 12.5324 34.7339 12.461H38.3403ZM31.6931 6.04102V8.46636H37.2089C37.4917 8.46636 37.7746 8.53769 38.0574 8.75169C38.2696 9.03702 38.3403 9.32236 38.3403 9.60769V10.107H34.0267C33.3903 10.107 32.8953 10.1784 32.3296 10.4637C31.1981 11.177 30.9153 12.3184 30.9153 13.6024C30.9153 14.8864 31.1274 16.313 32.3296 17.0264C32.8953 17.2404 33.3903 17.3117 34.0267 17.3117H39.0474C40.4617 17.3117 41.2396 16.6697 41.2396 15.243V9.67903C41.2396 8.89436 41.0981 8.18102 40.7446 7.46769C40.1081 6.46902 39.1181 6.11235 37.9867 6.04102H31.6931Z" />
            <path fill-rule="evenodd" clip-rule="evenodd" d="M20.7319 9.60788V5.89853C20.7319 5.75586 20.7319 5.54186 20.8027 5.47053C20.9441 5.32786 21.0855 5.32786 21.2269 5.32786H25.4698C26.4598 5.32786 27.0962 5.6132 27.2377 6.61187C27.3791 7.25387 27.3791 7.9672 27.2377 8.60921C26.9548 9.53654 26.2477 9.60788 25.4698 9.60788H20.7319ZM20.7319 17.3119V12.3186H26.9548C27.8741 12.3186 28.7227 12.1046 29.4298 11.4625C30.1369 10.7492 30.4198 9.75054 30.5612 8.75187C30.6319 7.89587 30.6319 6.96854 30.5612 6.11253C30.4905 5.47053 30.3491 4.82853 29.9955 4.18653C29.2177 2.97385 28.0155 2.68852 26.6719 2.61719H26.5305H19.8834C19.1762 2.61719 18.4691 2.83119 17.9741 3.40186C17.5498 3.90119 17.5498 4.40053 17.5498 5.04253V17.3119H20.7319Z" />
            <path fill-rule="evenodd" clip-rule="evenodd" d="M43.3615 7.18235C42.5129 8.10969 42.3008 9.17969 42.3008 10.321V17.2404H45.2001V10.963C45.2708 10.3924 45.2708 9.75036 45.5536 9.25103C46.0486 8.53769 46.7558 8.39502 47.4629 8.39502H49.3015V6.04102H46.8972C45.5536 6.04102 44.3515 6.25502 43.3615 7.18235Z" />
            <path fill-rule="evenodd" clip-rule="evenodd" d="M82.961 17.2406H80.0618V2.5459H82.961V17.2406Z" />
            <path fill-rule="evenodd" clip-rule="evenodd" d="M67.5454 17.2406H64.5754V2.61719H67.5454V17.2406Z" />
            <path fill-rule="evenodd" clip-rule="evenodd" d="M63.5148 17.2406H60.6155V2.61719H63.5148V17.2406Z" />
            <path fill-rule="evenodd" clip-rule="evenodd" d="M56.5854 12.461V14.601C56.5854 14.8864 56.444 14.8864 56.2318 14.8864H52.979C52.2718 14.815 52.2011 14.2444 52.2011 13.6737C52.2011 13.0317 52.2718 12.461 53.0497 12.461H56.5854ZM49.9383 6.04102V8.39502H55.454C55.8076 8.39502 56.0904 8.46636 56.3026 8.75169C56.5854 8.96569 56.5854 9.25103 56.5854 9.60769V10.0357H52.3425C51.7061 10.0357 51.1404 10.107 50.6454 10.4637C49.4433 11.177 49.2311 12.247 49.1604 13.531C49.2311 14.815 49.3725 16.2417 50.6454 16.9551C51.1404 17.2404 51.7061 17.2404 52.3425 17.2404H57.3633C58.7776 17.2404 59.5554 16.5984 59.5554 15.1717V9.67903C59.4847 8.89436 59.414 8.10969 58.9897 7.39635C58.424 6.39768 57.3633 6.04102 56.3026 6.04102H49.9383Z" />
            </g>
            <defs>
            <clipPath id="clip0">
            <rect width="99" height="19" transform="translate(0.721191 0.5)"/>
            </clipPath>
            </defs>
        </symbol>
        
        <symbol id="abbyy" viewBox="0 0 63 18">
            <g clip-path="url(#clip0)">
            <path d="M18.8779 10.3105C20.1926 10.3105 20.4479 11.0025 20.4479 12.6168C20.4479 14.8975 19.4305 14.8975 18.795 14.8975H17.8681V10.3105H18.8779ZM18.9837 3.13479C19.9106 3.13479 20.2821 3.98791 20.2821 5.17281C20.2821 6.67715 19.8115 7.20988 19.1504 7.20988H17.8681V3.13384H18.9884L18.9837 3.13479ZM13.6594 0.0332031V18H19.4705C23.5077 18 24.3556 15.3601 24.3556 13.1514C24.3556 11.266 24.0326 9.30857 21.9368 8.66115C23.3239 8.0924 24.4137 6.71697 24.4137 4.78416C24.4041 0.527068 21.4681 0.0332031 19.4876 0.0332031H13.6594Z"  />
            <path d="M30.7523 10.3105C32.0641 10.3105 32.3223 11.0025 32.3223 12.6168C32.3223 14.8965 31.3049 14.8965 30.6695 14.8965H29.7378V10.3105H30.7523ZM30.8581 3.13479C31.786 3.13479 32.1565 3.98791 32.1565 5.17281C32.1565 6.67715 31.6859 7.20988 31.0248 7.20988H29.7378V3.13384H30.8581V3.13479ZM25.53 0.0332031V18H31.3411C35.3802 18 36.2281 15.3601 36.2281 13.1514C36.2281 11.2651 35.9032 9.30857 33.8103 8.66115C35.1935 8.0924 36.2805 6.71792 36.2805 4.78416C36.2805 0.527068 33.3397 0.034151 31.3611 0.034151H25.53V0.0332031Z"  />
            <path d="M43.8224 0.0332031C43.8224 0.0332031 42.2458 6.12831 41.8886 7.23737C41.5533 6.12641 40.0929 0.0332031 40.0929 0.0332031H36.1719C36.1719 0.0332031 39.7223 11.6926 39.7442 11.7485V18.0048H43.9482V11.7542C43.9711 11.6888 47.512 0.0332031 47.512 0.0332031H43.8224Z"  />
            <path d="M55.6099 0.0332031C55.6099 0.0332031 54.0352 6.12831 53.6761 7.23737C53.3408 6.12357 51.8775 0.0332031 51.8775 0.0332031H47.9651C47.9651 0.0332031 51.5098 11.6926 51.5317 11.7485V18.0048H55.7357V11.7542C55.7614 11.6926 59.2995 0.0369948 59.2995 0.0369948H55.6099V0.0332031Z"  />
            <path d="M5.71988 11.0669L6.80779 5.70267L7.89569 11.0669H5.71988ZM9.30272 18H12.8951L9.25128 0.0322266H4.3662L0.721436 18H4.3138L5.09115 14.1723H8.52062L9.30272 18Z"  />
            <path d="M61.3818 1.2282e-05C61.558 -0.000742283 61.7327 0.0332787 61.8957 0.100108C62.0586 0.166938 62.2067 0.26525 62.3312 0.389361C62.4558 0.513472 62.5544 0.660919 62.6213 0.823178C62.6882 0.985437 62.7222 1.15929 62.7212 1.33468C62.7212 1.59873 62.6425 1.85685 62.495 2.07638C62.3475 2.2959 62.1379 2.46697 61.8927 2.56793C61.6475 2.66889 61.3777 2.69521 61.1175 2.64356C60.8573 2.59191 60.6183 2.46461 60.4308 2.27776C60.2433 2.09091 60.1157 1.85292 60.0641 1.5939C60.0126 1.33487 60.0394 1.06645 60.1412 0.82261C60.243 0.578764 60.4153 0.370449 60.6361 0.224022C60.8569 0.0775952 61.1164 -0.000362793 61.3818 1.2282e-05ZM61.3818 2.4646C61.9886 2.4646 62.4678 1.95557 62.4678 1.3271C62.4753 1.18033 62.4528 1.03357 62.4016 0.895744C62.3504 0.757914 62.2715 0.631896 62.1698 0.525355C62.068 0.418814 61.9456 0.333977 61.8099 0.276005C61.6742 0.218033 61.528 0.188137 61.3804 0.188137C61.2327 0.188137 61.0865 0.218033 60.9508 0.276005C60.8151 0.333977 60.6927 0.418814 60.5909 0.525355C60.4892 0.631896 60.4103 0.757914 60.3591 0.895744C60.3079 1.03357 60.2854 1.18033 60.2929 1.3271C60.2939 1.96031 60.7721 2.4646 61.3818 2.4646ZM60.8921 0.657867H61.4828C61.6257 0.657867 61.9248 0.694836 61.9248 1.04272C61.9273 1.11135 61.9064 1.1788 61.8656 1.23419C61.8248 1.28958 61.7665 1.32966 61.7 1.34795V1.35553C61.8705 1.38682 61.8829 1.53943 61.8905 1.67498C61.9019 1.88068 61.8905 1.9186 61.9429 1.98969H61.6895C61.6466 1.93661 61.6495 1.90627 61.6418 1.6873C61.6418 1.56597 61.6285 1.43895 61.3484 1.43895H61.1417V1.99064H60.894V0.657867H60.8921ZM61.1398 1.256H61.4256C61.6371 1.256 61.6723 1.13751 61.6723 1.04272C61.6723 0.881575 61.5628 0.840815 61.4046 0.840815H61.1408V1.256H61.1398Z"  />
            </g>
            <defs>
            <clipPath id="clip0">
            <rect width="62" height="18"   transform="translate(0.721191)"/>
            </clipPath>
            </defs>
        </symbol>

        <symbol id="acronis" viewBox="0 0 76 18">
            <g clip-path="url(#clip0)">
            <path d="M22.7158 7.13735C24.2644 7.13735 25.2641 7.99047 25.7346 9.42621H28.0477C27.4792 6.70038 25.4405 4.99414 22.7158 4.99414C19.4618 4.99414 17.0115 7.67835 17.0115 11.1949C17.0115 14.7114 19.4618 17.3124 22.7158 17.3124C25.4405 17.3124 27.4204 15.5229 28.0477 12.8803H25.7346C25.2641 14.2328 24.2448 15.1692 22.7158 15.1692C20.5791 15.1692 19.2462 13.5462 19.2462 11.2157C19.2658 8.8644 20.5791 7.13735 22.7158 7.13735Z"  />
            <path d="M32.2617 6.32569H32.1637L32.0461 5.16045H30.1055V17.3538H32.2617V9.63413C32.2617 8.01112 33.4379 7.11639 34.9865 7.11639C35.3197 7.11639 35.3981 7.13719 35.3981 7.13719V4.91076C35.3981 4.91076 35.2609 4.86914 34.9865 4.86914C34.32 4.86914 33.1047 5.16045 32.2617 6.32569Z"  />
            <path d="M55.4124 4.86914C53.4914 4.86914 52.3152 5.74307 51.8056 6.32569H51.7076L51.5899 5.16045H49.6493V17.3538H51.8056V9.67575C51.8056 7.96951 53.2562 7.07477 55.04 7.07477C56.569 7.07477 57.6667 7.88628 57.6667 9.57171V17.3538H59.823V9.42606C59.8034 6.05519 57.5687 4.86914 55.4124 4.86914Z"  />
            <path d="M64.7427 5.16113H62.5864V17.3545H64.7427V5.16113Z"  />
            <path d="M41.7495 4.99414C38.4758 4.99414 35.9863 7.63674 35.9863 11.1533C35.9863 14.6698 38.4562 17.3124 41.7495 17.3124C45.0231 17.3124 47.5126 14.6698 47.5126 11.1533C47.5126 7.63674 45.0231 4.99414 41.7495 4.99414ZM41.7495 15.1068C39.6128 15.1068 38.2406 13.4421 38.2406 11.1533C38.2406 8.8644 39.6128 7.15816 41.7495 7.15816C43.8861 7.15816 45.2583 8.8644 45.2583 11.1533C45.2583 13.4421 43.8861 15.1068 41.7495 15.1068Z"  />
            <path d="M71.7027 9.94708C69.566 9.44769 69.664 8.88588 69.664 8.38649C69.664 7.78307 70.2913 7.03398 71.3302 7.03398C72.1928 7.03398 73.1141 7.49176 73.1141 9.03154H75.1919C75.2704 6.5346 73.7217 5.01562 71.3302 5.01562C69.2132 5.01562 67.5077 6.57621 67.5077 8.49053C67.5077 10.9042 69.3112 11.6533 71.2714 12.1111C73.3493 12.5897 73.5257 13.2763 73.5257 13.7549C73.5257 14.6705 72.6436 15.4612 71.4086 15.4612C70.5265 15.4612 69.174 14.8785 69.174 13.1099H67.0961C66.9589 15.8981 68.8603 17.5003 71.4086 17.5003C73.8198 17.5003 75.7212 15.8565 75.7212 13.6717C75.7016 11.1747 73.6433 10.384 71.7027 9.94708Z"  />
            <path d="M7.8761 0.5L0.721191 17.3543H3.01468L4.40646 13.9627H13.306L14.6978 17.3543H16.9717L9.85596 0.5H7.8761ZM8.81702 3.37148H8.91504L9.03265 3.6836L11.0517 8.59425H6.68035L8.69941 3.6836L8.81702 3.37148ZM5.21016 12.0483L5.87665 10.467H11.8358L12.5023 12.0483H5.21016Z"  />
            </g>
            <defs>
            <clipPath id="clip0">
            <rect width="75" height="17"   transform="translate(0.721191 0.5)"/>
            </clipPath>
            </defs>
        </symbol>

        <symbol id="avast" viewBox="0 0 73 24">
            <g>
                <path fill-rule="evenodd" clip-rule="evenodd" d="M22.0142 15.9447C21.2753 15.2443 20.7927 15.1377 20.1895 14.6962C18.3497 13.3411 17.9123 10.4939 19.3148 8.65164C19.722 8.11875 20.2196 7.75334 20.7776 7.3727C21.3657 6.97684 21.8935 6.4135 22.1801 5.8197C22.738 4.63211 22.6023 3.12479 21.7427 1.9981C20.9284 0.932317 19.6315 0.368974 18.229 0.643033C17.5655 0.764837 17.0075 1.0389 16.4345 1.55656C15.8614 2.07423 15.7106 2.62235 15.0471 3.27704C14.0065 4.31238 12.7548 4.81482 11.2619 4.72347C10.538 4.67779 9.91973 4.49508 9.19587 4.084C8.41169 3.64246 8.09501 3.09434 7.49179 2.95731C6.85842 2.80505 6.16472 2.98776 5.74247 3.47498C5.16941 4.1449 5.24482 4.75392 5.50118 5.54564C5.74247 6.29169 5.93851 7.02252 5.98375 7.81424C6.02899 8.59074 5.93851 9.38247 5.71231 10.1285C5.30514 11.4988 4.32491 12.7778 3.37485 13.6304C2.59067 14.3308 2.04778 14.4373 1.53504 14.9245C1.03739 15.3813 0.720703 16.036 0.720703 16.7668C0.720703 18.0458 1.62553 19.1116 2.81687 19.3247C3.75186 19.5074 4.6416 19.0659 4.92813 18.9745C6.8735 18.3503 9.31651 18.4264 11.0809 18.9441C12.5437 19.3704 13.7954 20.1317 14.9717 21.0909C15.5447 21.5476 15.967 22.1719 16.5702 22.5982C18.1084 23.6944 20.7474 23.9228 22.4364 21.7151C23.5825 20.2535 23.854 17.6804 22.0142 15.9447Z"  />
                <path fill-rule="evenodd" clip-rule="evenodd" d="M14.7454 7.9043C14.1724 7.9043 13.9612 8.36106 13.9612 8.69602V9.30504C13.3731 8.49809 12.5738 7.98042 11.4881 7.98042C10.5983 7.98042 9.84429 8.34584 9.226 9.06143C8.6077 9.77703 8.29102 10.6601 8.29102 11.665C8.29102 12.6851 8.6077 13.553 9.226 14.2686C9.85937 14.9994 10.6134 15.3496 11.4881 15.3496C12.6492 15.3496 13.4636 14.7101 13.9612 14.0097V14.6644C13.9612 14.9537 14.2025 15.4257 14.7454 15.4257C15.2883 15.4257 15.5145 14.9537 15.5145 14.634V8.6808C15.5145 8.17836 15.0772 7.9043 14.7454 7.9043ZM11.9103 13.9031C10.719 13.9031 9.85937 12.8069 9.85937 11.6345C9.85937 10.3861 10.734 9.36594 11.9103 9.36594C13.162 9.36594 13.9612 10.5079 13.9612 11.6345C13.9612 12.8221 13.1167 13.9031 11.9103 13.9031Z"  />
                <path fill-rule="evenodd" clip-rule="evenodd" d="M45.1015 6.51877C44.3777 6.22949 43.8348 6.77761 43.699 7.14302L41.0751 14.0858L38.4511 7.14302C38.3153 6.79283 37.7725 6.22949 37.0486 6.51877C36.2644 6.82328 36.3097 7.56933 36.4303 7.90429C36.4303 7.90429 38.617 13.69 39.3257 15.5627C39.7329 16.6437 40.5322 16.8721 41.06 16.8721C41.5878 16.8721 42.387 16.6437 42.7942 15.5627C43.503 13.69 45.6896 7.90429 45.6896 7.90429C45.8555 7.56933 45.8857 6.82328 45.1015 6.51877Z"  />
                <path fill-rule="evenodd" clip-rule="evenodd" d="M33.9878 6.42676C33.2036 6.42676 32.8869 7.051 32.8869 7.50777V8.3604C32.0726 7.24893 30.9717 6.51811 29.4637 6.51811C28.2422 6.51811 27.1865 7.02055 26.3269 8.01021C25.4674 9.01509 25.03 10.2179 25.03 11.6339C25.03 13.0346 25.4674 14.2374 26.3269 15.2423C27.1865 16.2472 28.2422 16.7496 29.4637 16.7496C31.0773 16.7496 32.1932 15.8666 32.8869 14.8921V15.8057C32.8869 16.2167 33.2187 16.8562 33.9727 16.8562C34.7267 16.8562 35.0434 16.2015 35.0434 15.7752V7.52299C35.0585 6.82262 34.4553 6.42676 33.9878 6.42676ZM30.0367 14.7856C28.393 14.7856 27.2016 13.263 27.2016 11.6339C27.2016 9.9134 28.4231 8.49742 30.0367 8.49742C31.771 8.49742 32.8718 10.0656 32.8718 11.6339C32.8718 13.2935 31.6956 14.7856 30.0367 14.7856Z"  />
                <path fill-rule="evenodd" clip-rule="evenodd" d="M55.1756 6.42676C54.3915 6.42676 54.0748 7.051 54.0748 7.50777V8.3604C53.2604 7.24893 52.1596 6.51811 50.6515 6.51811C49.43 6.51811 48.3744 7.02055 47.5148 8.01021C46.6552 9.01509 46.2179 10.2179 46.2179 11.6339C46.2179 13.0346 46.6552 14.2374 47.5148 15.2423C48.3744 16.2472 49.43 16.7496 50.6515 16.7496C52.2651 16.7496 53.3811 15.8666 54.0748 14.8921V15.8057C54.0748 16.2167 54.4065 16.8562 55.1606 16.8562C55.9146 16.8562 56.2313 16.2015 56.2313 15.7752V7.52299C56.2313 6.82262 55.6431 6.42676 55.1756 6.42676ZM51.2246 14.7856C49.5808 14.7856 48.3895 13.263 48.3895 11.6339C48.3895 9.9134 49.611 8.49742 51.2246 8.49742C52.9588 8.49742 54.0597 10.0656 54.0597 11.6339C54.0446 13.2935 52.8834 14.7856 51.2246 14.7856Z"  />
                <path d="M58.0564 15.654C57.8151 15.517 57.619 15.2277 57.619 14.847C57.619 14.3294 58.0111 13.9183 58.5389 13.9183C58.735 13.9183 58.9009 13.9792 59.0366 14.0553C60.0017 14.71 60.997 15.0297 61.9018 15.0297C62.8821 15.0297 63.4551 14.6034 63.4551 13.9487V13.9031C63.4551 13.1266 62.3995 12.8982 61.2232 12.5328C59.7454 12.1064 58.1016 11.467 58.1016 9.53334V9.48766C58.1016 7.58447 59.67 6.41211 61.6455 6.41211C62.7011 6.41211 63.817 6.71662 64.7822 7.23429C65.0989 7.40177 65.3251 7.70628 65.3251 8.11736C65.3251 8.65026 64.9028 9.04612 64.375 9.04612C64.179 9.04612 64.0734 9.00044 63.9226 8.92432C63.1083 8.498 62.2789 8.23917 61.5852 8.23917C60.6954 8.23917 60.1827 8.66548 60.1827 9.22883V9.2745C60.1827 10.0206 61.2534 10.2794 62.4297 10.66C63.8774 11.1168 65.5211 11.8172 65.5211 13.629V13.6747C65.5211 15.791 63.8925 16.8416 61.8264 16.8416C60.5899 16.8568 59.2025 16.4609 58.0564 15.654Z"  />
            </g>
        </symbol>

        <symbol id="google" viewBox="0 0 63 22">
            <g clip-path="url(#clip0)">
            <path d="M26.978 11.2689C26.978 14.1838 24.7008 16.3317 21.9063 16.3317C19.1117 16.3317 16.8346 14.1838 16.8346 11.2689C16.8346 8.33345 19.1117 6.20605 21.9063 6.20605C24.7008 6.20605 26.978 8.33345 26.978 11.2689ZM24.7578 11.2689C24.7578 9.44736 23.438 8.20106 21.9063 8.20106C20.3745 8.20106 19.0547 9.44736 19.0547 11.2689C19.0547 13.0721 20.3745 14.3367 21.9063 14.3367C23.438 14.3367 24.7578 13.0699 24.7578 11.2689Z"  />
            <path d="M37.9201 11.2689C37.9201 14.1838 35.643 16.3317 32.8484 16.3317C30.0539 16.3317 27.7767 14.1838 27.7767 11.2689C27.7767 8.33573 30.0539 6.20605 32.8484 6.20605C35.643 6.20605 37.9201 8.33345 37.9201 11.2689ZM35.7 11.2689C35.7 9.44736 34.3802 8.20106 32.8484 8.20106C31.3167 8.20106 29.9969 9.44736 29.9969 11.2689C29.9969 13.0721 31.3167 14.3367 32.8484 14.3367C34.3802 14.3367 35.7 13.0699 35.7 11.2689Z"  />
            <path d="M48.4049 6.51192V15.6013C48.4049 19.3402 46.203 20.8673 43.5999 20.8673C41.1496 20.8673 39.6748 19.2261 39.1186 17.8839L41.0516 17.0781C41.3958 17.9021 42.2391 18.8745 43.5977 18.8745C45.2639 18.8745 46.2965 17.8451 46.2965 15.9071V15.179H46.219C45.7221 15.793 44.7647 16.3294 43.5566 16.3294C41.0288 16.3294 38.7129 14.1244 38.7129 11.2871C38.7129 8.42932 41.0288 6.20605 43.5566 6.20605C44.7624 6.20605 45.7198 6.74247 46.219 7.33823H46.2965V6.51421H48.4049V6.51192ZM46.4538 11.2871C46.4538 9.50442 45.2662 8.20106 43.7549 8.20106C42.2232 8.20106 40.9399 9.50442 40.9399 11.2871C40.9399 13.0516 42.2232 14.3367 43.7549 14.3367C45.2662 14.3367 46.4538 13.0516 46.4538 11.2871Z"  />
            <path d="M51.881 1.18457V16.0215H49.7156V1.18457H51.881Z"  />
            <path d="M60.3191 12.9355L62.0423 14.086C61.4862 14.91 60.1459 16.3298 57.83 16.3298C54.9579 16.3298 52.813 14.1065 52.813 11.2669C52.813 8.25617 54.9762 6.2041 57.5815 6.2041C60.2051 6.2041 61.4884 8.29497 61.9078 9.42486L62.1381 10.0001L55.3796 12.8031C55.897 13.8189 56.7017 14.337 57.83 14.337C58.9606 14.337 59.7447 13.7801 60.3191 12.9355ZM55.0149 11.114L59.5327 9.23541C59.2842 8.60312 58.5366 8.16258 57.6567 8.16258C56.5284 8.16258 54.9579 9.16008 55.0149 11.114Z"  />
            <path d="M8.63886 9.95242V7.80449H15.8669C15.9375 8.17883 15.974 8.62166 15.974 9.10101C15.974 10.7125 15.5341 12.7052 14.1163 14.125C12.7372 15.5631 10.9753 16.33 8.64114 16.33C4.31482 16.33 0.67688 12.8011 0.67688 8.46873C0.67688 4.13633 4.31482 0.607422 8.64114 0.607422C11.0345 0.607422 12.7395 1.54786 14.0206 2.77362L12.507 4.28927C11.5884 3.42644 10.3439 2.75536 8.63886 2.75536C5.4796 2.75536 3.00872 5.30503 3.00872 8.46873C3.00872 11.6324 5.4796 14.1821 8.63886 14.1821C10.6881 14.1821 11.8551 13.3581 12.6028 12.6094C13.2091 12.0022 13.608 11.1348 13.7653 9.95014L8.63886 9.95242Z"  />
            </g>
            <defs>
            <clipPath id="clip0">
            <rect width="62" height="21"   transform="translate(0.594238 0.5)"/>
            </clipPath>
            </defs>
        </symbol>

        <!-- 
        <symbol id="">
        
        </symbol>
         -->
</svg>