<svg width="53" height="40" viewBox="0 0 53 40" fill="none" xmlns="http://www.w3.org/2000/svg">
<path d="M14.2947 0C5.51724 6.26959 0 15.1724 0 25.4545C0 34.6082 6.01881 40 12.79 40C19.0596 40 24.326 34.7335 24.326 28.3386C24.326 22.1944 19.9373 18.0564 14.6708 18.0564C13.4169 18.0564 12.2884 18.3072 11.7868 18.4326C13.0408 13.9185 18.3072 8.52665 22.3197 6.52037L14.2947 0ZM42.5078 0C33.7304 6.26959 28.2132 15.1724 28.2132 25.4545C28.2132 34.6082 34.3574 40 41.1285 40C47.2727 40 52.5392 34.7335 52.5392 28.3386C52.5392 22.1944 48.2759 18.0564 42.884 18.0564C41.6301 18.0564 40.5016 18.3072 40 18.4326C41.3793 13.9185 46.5204 8.52665 50.5329 6.52037L42.5078 0Z" fill="white"/>
</svg>
